<svg width="160" height="160" viewBox="0 0 160 160" fill="none" xmlns="http://www.w3.org/2000/svg">
<path d="M80 160C124.183 160 160 124.183 160 80C160 35.8172 124.183 0 80 0C35.8172 0 0 35.8172 0 80C0 124.183 35.8172 160 80 160Z" fill="#2E3148"/>
<path d="M81.725 30C75.25 30 70 53.485 70 82.45C70 111.415 75.25 134.9 81.725 134.9C88.195 134.9 93.445 111.415 93.445 82.45C93.445 53.485 88.195 30 81.725 30ZM82.535 131.935C81.795 132.925 81.05 132.185 81.05 132.185C78.07 128.725 76.58 122.31 76.58 122.31C71.365 105.525 72.605 69.49 72.605 69.49C75.055 40.885 79.515 34.125 81.03 32.625C81.1852 32.4712 81.3898 32.3772 81.6076 32.3598C81.8254 32.3424 82.0424 32.4027 82.22 32.53C84.42 34.095 86.27 40.615 86.27 40.615C91.72 60.855 91.225 79.855 91.225 79.855C91.72 96.395 88.495 114.905 88.495 114.905C86.01 128.975 82.535 131.935 82.535 131.935Z" fill="white"/>
<path d="M126.361 56.9203C123.136 51.3003 100.161 58.4353 75.0265 72.8503C49.8915 87.2653 32.1615 103.5 35.3765 109.12C38.6015 114.74 61.5815 107.605 86.7165 93.1903C111.851 78.7753 129.586 62.5353 126.366 56.9203H126.361ZM38.3465 108.345C37.1165 108.195 37.3965 107.175 37.3965 107.175C38.9065 102.875 43.7265 98.3853 43.7265 98.3853C55.6915 85.5103 87.5715 68.6553 87.5715 68.6553C113.601 56.5453 121.686 57.0553 123.736 57.6153C123.948 57.6734 124.132 57.8049 124.256 57.9862C124.38 58.1676 124.435 58.387 124.411 58.6053C124.161 61.2903 119.411 66.1403 119.411 66.1403C104.581 80.9453 87.8515 89.9803 87.8515 89.9803C73.7515 98.6403 56.0865 105.045 56.0865 105.045C42.6465 109.885 38.3465 108.345 38.3465 108.345Z" fill="white"/>
<path d="M126.14 109.472C129.39 103.872 111.705 87.5571 86.6499 73.0321C61.5999 58.5121 38.6299 51.2921 35.3849 56.9021C32.1349 62.5171 49.8249 78.8171 74.8849 93.3421C99.9499 107.862 122.895 115.082 126.14 109.472ZM37.5399 59.0671C37.0549 57.9271 38.0699 57.6521 38.0699 57.6521C42.5549 56.8021 48.8549 58.7371 48.8549 58.7371C65.9899 62.6371 96.5449 81.7771 96.5449 81.7771C120.07 98.2371 123.68 105.492 124.22 107.547C124.275 107.758 124.253 107.982 124.159 108.179C124.064 108.375 123.904 108.532 123.705 108.622C121.255 109.747 114.68 108.072 114.68 108.072C94.4299 102.642 78.2349 92.6971 78.2349 92.6971C63.6849 84.8471 49.2949 72.7721 49.2949 72.7721C38.3599 63.5621 37.5449 59.0721 37.5449 59.0721L37.5349 59.0671H37.5399Z" fill="white"/>
<path d="M81.17 87.34C84.5776 87.34 87.34 84.5776 87.34 81.17C87.34 77.7624 84.5776 75 81.17 75C77.7624 75 75 77.7624 75 81.17C75 84.5776 77.7624 87.34 81.17 87.34Z" fill="white"/>
<path d="M105 65C107.761 65 110 62.7614 110 60C110 57.2386 107.761 55 105 55C102.239 55 100 57.2386 100 60C100 62.7614 102.239 65 105 65Z" fill="white"/>
<path d="M45 75C47.7614 75 50 72.7614 50 70C50 67.2386 47.7614 65 45 65C42.2386 65 40 67.2386 40 70C40 72.7614 42.2386 75 45 75Z" fill="white"/>
<path d="M75 120C77.7614 120 80 117.761 80 115C80 112.239 77.7614 110 75 110C72.2386 110 70 112.239 70 115C70 117.761 72.2386 120 75 120Z" fill="white"/>
</svg>
