<!--
  - This file is part of the Web3 Library developed by mFactory GmbH.
  -
  - Copyright © 2021, mFactory GmbH
  -
  - Solana Reference Stake Pool is free software: you can redistribute it
  - and/or modify it under the terms of the GNU Affero General Public License
  - as published by the Free Software Foundation, either version 3
  - of the License, or (at your option) any later version.
  -
  - Solana Reference Stake Pool is distributed in the hope that it
  - will be useful, but WITHOUT ANY WARRANTY; without even the implied
  - warranty of MERCHANTABILITY or FITNESS FOR A PARTICULAR PURPOSE.
  - See the GNU Affero General Public License for more details.
  -
  - You should have received a copy of the GNU Affero General Public License
  - along with this program.
  - If not, see <https://www.gnu.org/licenses/agpl-3.0.html>.
  -
  - You can be released from the requirements of the Affero GNU General Public License
  - by purchasing a commercial license. The purchase of such a license is
  - mandatory as soon as you develop commercial activities using the
  - Solana Reference Stake Pool code without disclosing the source code of
  - your own applications.
  -
  - The developer of this program can be contacted at <info@mfactory.ch>.
  -->

<svg width="75" height="75" viewBox="0 0 75 75" fill="none" xmlns="http://www.w3.org/2000/svg">
<path d="M64.5996 0H6.5918C2.95708 0 0 2.95708 0 6.5918V64.5996C0 68.2343 2.95708 71.1914 6.5918 71.1914H49.9512C50.534 71.1914 51.0929 70.9598 51.5048 70.5478L70.5478 51.5048C70.96 51.0927 71.1914 50.5339 71.1914 49.9512V6.5918C71.1914 2.95708 68.2343 0 64.5996 0Z" fill="#E9E9E9"/>
<path d="M35.5957 0H6.5918C2.95708 0 0 2.95708 0 6.5918V35.5957H35.5957V0Z" fill="#FFD140"/>
<path d="M71.1914 35.5957V6.5918C71.1914 2.95708 68.2343 0 64.5996 0H35.5957V35.5957H71.1914Z" fill="#B3B3B3"/>
<path d="M35.5957 35.5957V71.1914H49.9512C50.534 71.1914 51.0929 70.9598 51.5048 70.5478L70.5478 51.5048C70.96 51.0927 71.1914 50.5339 71.1914 49.9512V35.5957H35.5957ZM68.9941 49.9512H68.9956H68.9941Z" fill="#5C5C5C"/>
<path d="M0 35.5957V64.5996C0 68.2343 2.95708 71.1914 6.5918 71.1914H35.5957V35.5957H0Z" fill="#455A64"/>
<path d="M22.9248 15.6006H19.9951V12.6709C19.9951 11.4574 19.0113 10.4736 17.7979 10.4736C16.5844 10.4736 15.6006 11.4574 15.6006 12.6709V15.6006H12.6709C11.4574 15.6006 10.4736 16.5844 10.4736 17.7979C10.4736 19.0113 11.4574 19.9951 12.6709 19.9951H15.6006V22.9248C15.6006 24.1383 16.5844 25.1221 17.7979 25.1221C19.0113 25.1221 19.9951 24.1383 19.9951 22.9248V19.9951H22.9248C24.1383 19.9951 25.1221 19.0113 25.1221 17.7979C25.1221 16.5844 24.1383 15.6006 22.9248 15.6006Z" fill="white"/>
<path d="M58.5205 19.9951H48.2666C47.0531 19.9951 46.0693 19.0113 46.0693 17.7979C46.0693 16.5844 47.0531 15.6006 48.2666 15.6006H58.5205C59.734 15.6006 60.7178 16.5844 60.7178 17.7979C60.7178 19.0113 59.734 19.9951 58.5205 19.9951Z" fill="white"/>
<path d="M20.9048 53.3936L23.0133 51.2851C23.8714 50.427 23.8714 49.0359 23.0133 48.1778C22.1553 47.3197 20.764 47.3197 19.9059 48.1778L17.7974 50.2863L15.6889 48.1778C14.831 47.3197 13.4397 47.3197 12.5816 48.1778C11.7235 49.0359 11.7235 50.427 12.5816 51.2851L14.6901 53.3936L12.5816 55.5021C11.7235 56.3602 11.7235 57.7514 12.5816 58.6095C13.0106 59.0385 13.573 59.2531 14.1352 59.2531C14.6974 59.2531 15.2599 59.0387 15.6888 58.6095L17.7973 56.501L19.9058 58.6095C20.3348 59.0385 20.8972 59.2531 21.4594 59.2531C22.0216 59.2531 22.5841 59.0387 23.013 58.6095C23.8711 57.7514 23.8711 56.3602 23.013 55.5021L20.9048 53.3936Z" fill="white"/>
<path d="M52.2949 75C39.7752 75 29.5898 64.8145 29.5898 52.2949C29.5898 39.7753 39.7752 29.5898 52.2949 29.5898C64.8146 29.5898 75 39.7753 75 52.2949C75 64.8145 64.8146 75 52.2949 75Z" fill="#FFD140"/>
<path d="M44.3672 55.0054H42.5157V59.1344H40.1917V47.8551H44.3827C45.7151 47.8551 46.7428 48.1521 47.4659 48.746C48.1889 49.3399 48.5504 50.1792 48.5504 51.2637C48.5504 52.0332 48.3826 52.6762 48.0469 53.1927C47.7163 53.7039 47.2128 54.1119 46.5363 54.4166L48.9765 59.026V59.1344H46.482L44.3672 55.0054ZM42.5157 53.1229H44.3904C44.974 53.1229 45.4259 52.9757 45.7461 52.6814C46.0663 52.3818 46.2264 51.9712 46.2264 51.4496C46.2264 50.9177 46.074 50.4994 45.7693 50.1947C45.4698 49.8899 45.0076 49.7376 44.3827 49.7376H42.5157V53.1229Z" fill="#3E3E3F"/>
<path d="M59.5896 53.7504C59.5896 54.8608 59.3933 55.8343 59.0008 56.671C58.6083 57.5076 58.0454 58.1532 57.312 58.6076C56.5838 59.0621 55.7472 59.2894 54.8021 59.2894C53.8673 59.2894 53.0332 59.0647 52.2999 58.6154C51.5665 58.1661 50.9984 57.5257 50.5956 56.6942C50.1927 55.8575 49.9887 54.8969 49.9836 53.8124V53.2546C49.9836 52.1443 50.1824 51.1682 50.5801 50.3264C50.9829 49.4794 51.5484 48.8312 52.2766 48.3819C53.01 47.9274 53.8466 47.7002 54.7866 47.7002C55.7265 47.7002 56.5606 47.9274 57.2888 48.3819C58.0221 48.8312 58.5876 49.4794 58.9853 50.3264C59.3881 51.1682 59.5896 52.1417 59.5896 53.2469V53.7504ZM57.2345 53.2391C57.2345 52.0565 57.0228 51.1578 56.5993 50.5433C56.1758 49.9287 55.5716 49.6214 54.7866 49.6214C54.0067 49.6214 53.4051 49.9261 52.9816 50.5355C52.5581 51.1398 52.3438 52.0281 52.3386 53.2004V53.7504C52.3386 54.9021 52.5503 55.7956 52.9738 56.4308C53.3973 57.066 54.0067 57.3837 54.8021 57.3837C55.5819 57.3837 56.181 57.079 56.5993 56.4695C57.0176 55.855 57.2294 54.9615 57.2345 53.7892V53.2391Z" fill="#3E3E3F"/>
<path d="M63.7496 59.1344H61.4255V47.8551H63.7496V59.1344Z" fill="#3E3E3F"/>
</svg>
