<!--
  - This file is part of the Web3 Library developed by mFactory GmbH.
  -
  - Copyright © 2021, mFactory GmbH
  -
  - Solana Reference Stake Pool is free software: you can redistribute it
  - and/or modify it under the terms of the GNU Affero General Public License
  - as published by the Free Software Foundation, either version 3
  - of the License, or (at your option) any later version.
  -
  - Solana Reference Stake Pool is distributed in the hope that it
  - will be useful, but WITHOUT ANY WARRANTY; without even the implied
  - warranty of MERCHANTABILITY or FITNESS FOR A PARTICULAR PURPOSE.
  - See the GNU Affero General Public License for more details.
  -
  - You should have received a copy of the GNU Affero General Public License
  - along with this program.
  - If not, see <https://www.gnu.org/licenses/agpl-3.0.html>.
  -
  - You can be released from the requirements of the Affero GNU General Public License
  - by purchasing a commercial license. The purchase of such a license is
  - mandatory as soon as you develop commercial activities using the
  - Solana Reference Stake Pool code without disclosing the source code of
  - your own applications.
  -
  - The developer of this program can be contacted at <info@mfactory.ch>.
  -->

<svg width="21" height="17" viewBox="0 0 21 17" fill="none" xmlns="http://www.w3.org/2000/svg">
<path d="M17.6654 1.78999C16.3439 1.18365 14.9269 0.736915 13.4452 0.481054C13.4182 0.476116 13.3913 0.488456 13.3774 0.513138C13.1951 0.837282 12.9933 1.26015 12.8519 1.59253C11.2583 1.35395 9.67286 1.35395 8.11193 1.59253C7.97053 1.25277 7.76133 0.837282 7.57827 0.513138C7.56437 0.48928 7.53741 0.476939 7.51043 0.481054C6.0296 0.736097 4.61252 1.18283 3.29023 1.78999C3.27879 1.79493 3.26897 1.80316 3.26246 1.81385C0.574561 5.82952 -0.161768 9.74648 0.19945 13.6149C0.201085 13.6338 0.211708 13.6519 0.226419 13.6634C1.99982 14.9658 3.71766 15.7564 5.4036 16.2805C5.43058 16.2887 5.45917 16.2788 5.47634 16.2566C5.87515 15.712 6.23066 15.1377 6.53547 14.5338C6.55345 14.4985 6.53628 14.4565 6.49952 14.4425C5.93563 14.2286 5.3987 13.9678 4.8822 13.6717C4.84135 13.6478 4.83808 13.5894 4.87566 13.5614C4.98435 13.4799 5.09307 13.3952 5.19685 13.3096C5.21563 13.294 5.24179 13.2907 5.26387 13.3006C8.65701 14.8498 12.3305 14.8498 15.6836 13.3006C15.7057 13.2899 15.7318 13.2932 15.7514 13.3088C15.8552 13.3944 15.9639 13.4799 16.0734 13.5614C16.111 13.5894 16.1086 13.6478 16.0677 13.6717C15.5512 13.9736 15.0143 14.2286 14.4496 14.4417C14.4128 14.4557 14.3965 14.4985 14.4145 14.5338C14.7258 15.1369 15.0813 15.7111 15.4728 16.2558C15.4891 16.2788 15.5185 16.2887 15.5455 16.2805C17.2396 15.7564 18.9574 14.9658 20.7308 13.6634C20.7464 13.6519 20.7562 13.6346 20.7578 13.6157C21.1901 9.14341 20.0337 5.25856 17.6924 1.81467C17.6866 1.80316 17.6769 1.79493 17.6654 1.78999ZM7.04218 11.2594C6.02061 11.2594 5.17886 10.3216 5.17886 9.16975C5.17886 8.01794 6.00428 7.08006 7.04218 7.08006C8.08822 7.08006 8.92181 8.02617 8.90546 9.16975C8.90546 10.3216 8.08004 11.2594 7.04218 11.2594ZM13.9315 11.2594C12.9099 11.2594 12.0682 10.3216 12.0682 9.16975C12.0682 8.01794 12.8936 7.08006 13.9315 7.08006C14.9775 7.08006 15.8111 8.02617 15.7948 9.16975C15.7948 10.3216 14.9775 11.2594 13.9315 11.2594Z" fill="white"/>
</svg>
