<svg width="160" height="160" viewBox="0 0 160 160" fill="none" xmlns="http://www.w3.org/2000/svg">
<path d="M80 160C124.183 160 160 124.183 160 80C160 35.8172 124.183 0 80 0C35.8172 0 0 35.8172 0 80C0 124.183 35.8172 160 80 160Z" fill="#E6007A"/>
<path d="M83.68 35C65.145 35 50 50.06 50 68.68C50 72.425 50.62 76.08 51.78 79.64C52.1906 80.8153 53.0463 81.7825 54.1628 82.3332C55.2793 82.884 56.5675 82.9744 57.75 82.585C58.9244 82.1734 59.8904 81.3173 60.4402 80.2009C60.99 79.0845 61.0797 77.7969 60.69 76.615C59.7124 73.8394 59.2597 70.9062 59.355 67.965C59.71 55.405 69.87 45.065 82.435 44.445C85.7263 44.2721 89.0184 44.7705 92.111 45.9099C95.2036 47.0493 98.0321 48.806 100.424 51.073C102.817 53.34 104.723 56.0699 106.027 59.0968C107.331 62.1237 108.006 65.3842 108.01 68.68C108.003 74.8783 105.628 80.8397 101.371 85.3453C97.1147 89.8509 91.2979 92.5605 85.11 92.92C85.11 92.92 80.385 93.185 78.07 93.545C76.91 93.72 76.02 93.9 75.395 93.99C75.125 94.08 74.86 93.81 74.945 93.54L75.75 89.625L80.115 69.485C80.3694 68.2808 80.1382 67.0248 79.4715 65.9902C78.8049 64.9556 77.7567 64.226 76.555 63.96C75.3501 63.7057 74.0935 63.9377 73.0587 64.6053C72.024 65.273 71.2948 66.3224 71.03 67.525C71.03 67.525 60.515 116.535 60.425 117.07C60.1707 118.275 60.4027 119.532 61.0703 120.566C61.738 121.601 62.7874 122.33 63.99 122.595C65.1949 122.849 66.4515 122.617 67.4863 121.95C68.521 121.282 69.2502 120.233 69.515 119.03C69.6 118.495 71.03 111.99 71.03 111.99C71.5361 109.605 72.7664 107.435 74.5527 105.775C76.3391 104.116 78.5942 103.049 81.01 102.72C82.7577 102.529 84.5099 102.38 86.265 102.275C94.7249 101.616 102.625 97.791 108.39 91.564C114.154 85.337 117.359 77.1656 117.365 68.68C117.365 50.06 102.215 35 83.68 35V35ZM86.085 112.525C85.3595 112.369 84.6101 112.358 83.8803 112.493C83.1505 112.628 82.4549 112.907 81.8335 113.313C81.2122 113.719 80.6776 114.244 80.2608 114.858C79.8439 115.472 79.553 116.163 79.405 116.89C78.78 119.92 80.655 122.95 83.77 123.575C84.4962 123.732 85.2464 123.743 85.9771 123.608C86.7077 123.473 87.4042 123.194 88.0261 122.788C88.6481 122.381 89.183 121.855 89.6 121.24C90.0169 120.625 90.3076 119.933 90.455 119.205C91.075 116.09 89.205 113.145 86.085 112.525V112.525Z" fill="white"/>
</svg>
