<svg width="98" height="197" viewBox="0 0 98 197" fill="none" xmlns="http://www.w3.org/2000/svg">
<path d="M46.5426 120.116C46.5426 120.116 35.1507 79.2359 26.0558 65.36C16.961 51.484 -3.57873e-05 36.2324 -3.57873e-05 36.2324C-3.57873e-05 36.2324 0.400617 99.2419 46.5426 120.116Z" fill="#00A5B9"/>
<path d="M45.7279 119.409C41.8858 113.008 38.4166 106.391 35.3376 99.5896C34.0342 92.2868 32.145 85.1008 29.6884 78.1012C29.6858 78.086 29.68 78.0715 29.6713 78.0588C29.6626 78.0461 29.6513 78.0354 29.6381 78.0275C29.6248 78.0195 29.6101 78.0146 29.5947 78.0129C29.5794 78.0112 29.5639 78.0128 29.5493 78.0177C29.5347 78.0226 29.5213 78.0306 29.51 78.0411C29.4988 78.0516 29.4899 78.0645 29.4841 78.0788C29.4783 78.093 29.4757 78.1084 29.4764 78.1238C29.477 78.1392 29.481 78.1543 29.4881 78.168C30.9972 84.6319 32.7467 91.029 34.3494 97.4662C29.7552 87.5166 25.3881 77.4334 19.9125 68.0849C18.6294 63.5395 16.8373 59.1535 14.5704 55.0102C14.5704 54.89 14.3167 55.0102 14.3701 55.077C15.7762 58.2612 16.9805 61.5308 17.976 64.8663C15.4005 60.6459 12.5074 56.6277 9.32185 52.8466C9.12153 52.6062 8.73422 52.8466 8.9212 53.1271C16.2398 62.4757 21.3014 73.093 26.1093 83.8439C20.9396 78.2288 16.1649 72.2626 11.8193 65.9881C11.8193 65.9213 11.6857 65.9881 11.7258 66.0549C16.2534 73.0894 21.3737 79.7243 27.0307 85.8872C30.5298 93.7801 33.9754 101.7 38.1556 109.192C29.8086 102.14 23.3848 93.0055 17.0278 84.1911C16.9994 84.1486 16.9554 84.1191 16.9053 84.1091C16.8552 84.0991 16.8032 84.1094 16.7607 84.1377C16.7182 84.166 16.6886 84.2101 16.6786 84.2602C16.6686 84.3103 16.6789 84.3623 16.7072 84.4048C23.0643 94.0739 29.6484 103.182 38.81 110.34C40.6663 113.638 42.7038 116.83 44.9133 119.903C44.9919 119.977 45.0928 120.023 45.2004 120.035C45.308 120.046 45.4163 120.022 45.5088 119.966C45.6013 119.91 45.6729 119.825 45.7125 119.724C45.752 119.624 45.7575 119.513 45.7279 119.409V119.409Z" fill="#263238"/>
<path d="M50.0684 123.789C50.0684 123.789 29.595 86.1005 35.5514 49.5475C41.5077 12.9945 47.8648 0 47.8648 0C47.8648 0 80.0373 56.8528 50.0684 123.789Z" fill="#00A5B9"/>
<path d="M56.9997 58.7089C56.3216 61.99 55.8754 65.3147 55.6642 68.6585C55.6718 68.6789 55.6854 68.6965 55.7033 68.709C55.7212 68.7215 55.7425 68.7281 55.7643 68.7281C55.7861 68.7281 55.8074 68.7215 55.8253 68.709C55.8432 68.6965 55.8569 68.6789 55.8645 68.6585C56.6596 65.3948 57.2219 62.0789 57.5472 58.7356C57.5472 58.4952 57.1199 58.4552 56.9997 58.7089Z" fill="#263238"/>
<path d="M45.1002 31.1579C45.1002 31.0377 44.9133 31.0778 44.8999 31.1579C44.9349 33.4817 45.2807 35.7903 45.9282 38.0223C45.9282 38.2093 46.2488 38.1158 46.2087 37.9422C45.768 35.6986 45.4875 33.4282 45.1002 31.1579Z" fill="#263238"/>
<path d="M57.5339 126.673C57.5339 126.673 56.7059 87.3291 67.9909 67.7772C79.276 48.2253 97.9999 38.249 97.9999 38.249C97.9999 38.249 90.3875 107.602 57.5339 126.673Z" fill="#00A5B9"/>
<path d="M78.1008 93.032C73.5652 99.8999 68.4588 106.373 62.8359 112.384C65.0796 104.37 67.6838 96.4643 70.6486 88.6649C76.9656 83.1091 83.2425 77.3664 87.1289 69.7673C87.143 69.7425 87.1468 69.7131 87.1393 69.6856C87.1318 69.658 87.1136 69.6346 87.0888 69.6204C87.064 69.6062 87.0346 69.6025 87.0071 69.61C86.9795 69.6175 86.9561 69.6357 86.9419 69.6605C82.7751 76.338 77.1927 81.7602 71.3164 86.942C75.8391 75.2229 81.0843 63.7957 87.022 52.7262C87.0411 52.671 87.0405 52.6109 87.0204 52.5561C87.0003 52.5012 86.9619 52.455 86.9117 52.4252C86.8615 52.3954 86.8025 52.3838 86.7448 52.3924C86.687 52.401 86.634 52.4293 86.5947 52.4724C82.9842 58.2758 79.694 64.2723 76.7386 70.4351C77.807 66.2282 78.6484 61.9279 79.7301 57.7477C79.7232 57.7304 79.7112 57.7155 79.6957 57.705C79.6803 57.6945 79.662 57.6889 79.6433 57.6889C79.6246 57.6889 79.6064 57.6945 79.5909 57.705C79.5754 57.7155 79.5635 57.7304 79.5565 57.7477C77.3387 63.1032 75.7825 68.7093 74.9223 74.4416C70.978 83.1489 67.6663 92.1289 65.0128 101.312C65.2932 95.4092 65.6672 89.5463 66.2815 83.6567C66.2815 83.5498 66.0945 83.5231 66.0812 83.6567C64.819 90.1849 64.2461 96.8277 64.3717 103.476C62.7424 109.339 61.3802 115.282 60.2717 121.251C60.2717 121.412 60.4854 121.492 60.5255 121.318C61.1398 118.816 61.7897 116.328 62.4753 113.853C62.5189 113.865 62.5652 113.865 62.6089 113.853C68.6587 107.789 74.4148 100.871 78.1943 93.1388L78.1008 93.032Z" fill="#263238"/>
<path d="M23.9991 121.879L25.4281 140.509L29.7151 196.855H67.1095L71.4099 140.509L72.8255 121.879H23.9991Z" fill="#455A64"/>
<path d="M23.9991 121.879L25.4281 140.509H71.3965L72.8121 121.879H23.9991Z" fill="#37474F"/>
<path d="M76.1242 127.021H20.6737V112.731H76.1242V127.021Z" fill="#455A64"/>
</svg>
