<!--
  - This file is part of the Web3 Library developed by mFactory GmbH.
  -
  - Copyright © 2021, mFactory GmbH
  -
  - Solana Reference Stake Pool is free software: you can redistribute it
  - and/or modify it under the terms of the GNU Affero General Public License
  - as published by the Free Software Foundation, either version 3
  - of the License, or (at your option) any later version.
  -
  - Solana Reference Stake Pool is distributed in the hope that it
  - will be useful, but WITHOUT ANY WARRANTY; without even the implied
  - warranty of MERCHANTABILITY or FITNESS FOR A PARTICULAR PURPOSE.
  - See the GNU Affero General Public License for more details.
  -
  - You should have received a copy of the GNU Affero General Public License
  - along with this program.
  - If not, see <https://www.gnu.org/licenses/agpl-3.0.html>.
  -
  - You can be released from the requirements of the Affero GNU General Public License
  - by purchasing a commercial license. The purchase of such a license is
  - mandatory as soon as you develop commercial activities using the
  - Solana Reference Stake Pool code without disclosing the source code of
  - your own applications.
  -
  - The developer of this program can be contacted at <info@mfactory.ch>.
  -->

<svg width="43" height="40" viewBox="0 0 43 40" fill="none" xmlns="http://www.w3.org/2000/svg">
  <path
    d="M7.82143 30.16C8.07486 29.856 8.42331 29.6787 8.79288 29.6787H42.3079C42.9203 29.6787 43.2265 30.5653 42.7936 31.0846L36.173 39.0262C35.9195 39.3302 35.5711 39.5075 35.2015 39.5075H1.68652C1.07409 39.5075 0.767873 38.6209 1.2008 38.1016L7.82143 30.16Z"
    fill="#1CE4B0"/>
  <path
    d="M7.81973 0.508166C8.08371 0.20418 8.43216 0.0268555 8.79117 0.0268555H42.3062C42.9186 0.0268555 43.2248 0.913479 42.7919 1.43279L36.1712 9.3744C35.9178 9.67839 35.5694 9.85571 35.1998 9.85571H1.68482C1.07238 9.85571 0.766164 8.96909 1.19909 8.44978L7.81973 0.508166Z"
    fill="#1CE4B0"/>
  <path
    d="M9.34619 14.6641H10.6655V21.7119C10.6655 22.6644 10.3784 23.4095 9.8042 23.9473C9.23454 24.485 8.47347 24.7539 7.521 24.7539C6.53206 24.7539 5.76188 24.501 5.21045 23.9951C4.65902 23.4893 4.3833 22.7806 4.3833 21.8691H5.6958C5.6958 22.4388 5.85075 22.8831 6.16064 23.2021C6.4751 23.5212 6.92855 23.6807 7.521 23.6807C8.06331 23.6807 8.50081 23.5098 8.8335 23.168C9.17074 22.8262 9.34163 22.3477 9.34619 21.7324V14.6641ZM15.8335 20.1807C14.7078 19.8571 13.8875 19.4606 13.3726 18.9912C12.8621 18.5173 12.6069 17.9339 12.6069 17.2412C12.6069 16.4574 12.9191 15.8102 13.5435 15.2998C14.1724 14.7848 14.9881 14.5273 15.9907 14.5273C16.6743 14.5273 17.2827 14.6595 17.8159 14.9238C18.3537 15.1882 18.7684 15.5527 19.0601 16.0176C19.3563 16.4824 19.5044 16.9906 19.5044 17.542H18.1851C18.1851 16.9404 17.9937 16.4688 17.6108 16.127C17.228 15.7806 16.688 15.6074 15.9907 15.6074C15.3436 15.6074 14.8377 15.751 14.4731 16.0381C14.1131 16.3206 13.9331 16.7148 13.9331 17.2207C13.9331 17.6263 14.104 17.9704 14.4458 18.2529C14.7922 18.5309 15.3778 18.7861 16.2026 19.0186C17.0321 19.251 17.6792 19.5085 18.144 19.791C18.6134 20.069 18.9598 20.3949 19.1831 20.7686C19.411 21.1423 19.5249 21.582 19.5249 22.0879C19.5249 22.8945 19.2104 23.5417 18.5815 24.0293C17.9526 24.5124 17.1118 24.7539 16.0591 24.7539C15.3755 24.7539 14.7375 24.624 14.145 24.3643C13.5526 24.0999 13.0946 23.7399 12.771 23.2842C12.452 22.8285 12.2925 22.3112 12.2925 21.7324H13.6118C13.6118 22.334 13.8328 22.8102 14.2749 23.1611C14.7215 23.5075 15.3162 23.6807 16.0591 23.6807C16.7518 23.6807 17.2827 23.5394 17.6519 23.2568C18.021 22.9743 18.2056 22.5892 18.2056 22.1016C18.2056 21.6139 18.0347 21.238 17.6929 20.9736C17.3511 20.7048 16.7313 20.4404 15.8335 20.1807ZM28.8696 19.9619C28.8696 20.9372 28.7056 21.7894 28.3774 22.5186C28.0493 23.2432 27.5845 23.7969 26.9829 24.1797C26.3813 24.5625 25.6795 24.7539 24.8774 24.7539C24.0936 24.7539 23.3986 24.5625 22.7925 24.1797C22.1864 23.7923 21.7147 23.2432 21.3774 22.5322C21.0448 21.8167 20.8739 20.9896 20.8647 20.0508V19.333C20.8647 18.376 21.0311 17.5306 21.3638 16.7969C21.6965 16.0632 22.1659 15.5026 22.772 15.1152C23.3826 14.7233 24.0799 14.5273 24.8638 14.5273C25.6613 14.5273 26.3631 14.721 26.9692 15.1084C27.5799 15.4912 28.0493 16.0495 28.3774 16.7832C28.7056 17.5124 28.8696 18.3623 28.8696 19.333V19.9619ZM27.564 19.3193C27.564 18.139 27.327 17.2344 26.853 16.6055C26.3791 15.972 25.716 15.6553 24.8638 15.6553C24.0343 15.6553 23.3804 15.972 22.9019 16.6055C22.4279 17.2344 22.1841 18.1094 22.1704 19.2305V19.9619C22.1704 21.1058 22.4097 22.0059 22.8882 22.6621C23.3713 23.3138 24.0343 23.6396 24.8774 23.6396C25.7251 23.6396 26.3813 23.332 26.8462 22.7168C27.311 22.097 27.5503 21.2106 27.564 20.0576V19.3193ZM32.1577 23.5439H36.8745V24.6172H30.8384V14.6641H32.1577V23.5439Z"
    fill="black"/>
</svg>
