<svg width="210" height="145" viewBox="0 0 210 145" fill="none" xmlns="http://www.w3.org/2000/svg">
<rect y="62" width="210" height="102" fill="#455A64"/>
<rect width="210" height="62" fill="white"/>
<path d="M79.3259 120.282C79.3259 121.114 79.8091 121.87 80.5636 122.219C83.5189 123.587 85.7456 125.246 87.182 127.151C87.5852 127.686 88.2158 128 88.8856 128H111.606C112.415 128 113.155 127.543 113.516 126.818C113.877 126.094 113.797 125.228 113.31 124.582C109.402 119.398 102.36 117.059 99.0761 116.212L79.3259 120.282ZM79.3259 120.282C79.3254 119.451 79.8083 118.695 80.5631 118.346C82.8985 117.265 85.1041 116.592 86.5638 116.214L79.3259 120.282ZM87.0638 116.214V116.601L86.6892 116.698C85.2486 117.071 83.0733 117.735 80.7731 118.799C80.1951 119.067 79.8256 119.646 79.8259 120.282V120.282C79.8259 120.919 80.1959 121.498 80.7735 121.765L80.7736 121.765C83.7777 123.155 86.0805 124.86 87.5812 126.85L87.5813 126.85C87.89 127.259 88.3728 127.5 88.8856 127.5H111.606C112.226 127.5 112.792 127.15 113.068 126.595L113.068 126.595C113.345 126.041 113.284 125.378 112.911 124.883L112.911 124.883C109.113 119.846 102.224 117.54 98.9513 116.696L98.5761 116.6V116.212V104.128C98.5761 103.226 97.8446 102.494 96.9423 102.494H88.6977C87.7951 102.494 87.0638 103.226 87.0638 104.128V116.214Z" fill="url(#paint0_linear_1335_406)" stroke="white"/>
<path d="M85.7623 95.8793L85.7624 95.8793L85.7641 95.8831L85.972 96.3296L86.4216 96.1285L103.371 88.5476L103.556 88.4653L103.631 88.2782C103.894 87.6269 104.159 86.9562 104.427 86.2602L104.427 86.26C104.751 85.4174 105.695 84.9962 106.537 85.321L106.538 85.3213C107.38 85.6447 107.8 86.5899 107.477 87.432L85.7623 95.8793ZM85.7623 95.8793L85.7596 95.8732M85.7623 95.8793L85.7596 95.8732M85.7596 95.8732C85.3898 95.0503 84.4231 94.6833 83.5996 95.0529C82.7767 95.4228 82.4094 96.3897 82.7798 97.2126L82.78 97.2129M85.7596 95.8732L82.78 97.2129M82.78 97.2129L86.1893 104.798C86.1893 104.798 86.1893 104.798 86.1893 104.798C86.4532 105.385 87.0365 105.762 87.6794 105.762H96.8015C97.1782 105.762 97.5432 105.632 97.8349 105.394C98.7421 104.653 99.7462 103.333 100.767 101.684M82.78 97.2129L100.767 101.684M100.767 101.684C101.78 100.045 102.785 98.1231 103.702 96.214M100.767 101.684L103.702 96.214M103.702 96.214C105.535 92.3968 107.003 88.6647 107.477 87.4321L103.702 96.214Z" fill="url(#paint1_linear_1335_406)" stroke="white"/>
<path d="M145.847 69.1809L145.847 69.1811C145.733 69.7189 145.898 70.2776 146.284 70.6673L146.285 70.6677C152.388 76.8316 159.25 87.3651 166.139 101.097L165.692 101.321L166.139 101.097C171.379 111.543 174.815 120.222 174.852 120.316L174.852 120.316C175.102 120.95 175.712 121.35 176.371 121.35C176.483 121.35 176.598 121.339 176.712 121.314L176.712 121.314C177.493 121.148 178.039 120.442 178.004 119.644C176.546 86.6762 156.751 63.5116 155.924 62.5589C155.59 62.1737 155.091 61.9669 154.58 61.9997C154.069 62.0344 153.605 62.3057 153.324 62.7332L152.906 62.4589L153.324 62.7332C151.751 65.1313 149.511 66.953 146.849 67.9976C146.337 68.1985 145.96 68.6432 145.847 69.1809Z" fill="url(#paint2_linear_1335_406)" stroke="white"/>
<path d="M64.3429 116.212V116.6L63.9677 116.696C60.6954 117.54 53.8055 119.846 50.0082 124.883C49.6353 125.378 49.5744 126.041 49.8509 126.595L49.851 126.595C50.1273 127.15 50.6934 127.5 51.3129 127.5H88.8851C89.5045 127.5 90.0707 127.15 90.347 126.595L90.3471 126.595C90.6236 126.041 90.5626 125.378 90.1897 124.883L90.1896 124.883C86.3921 119.846 79.5024 117.54 76.23 116.696L75.8549 116.6V116.212V104.128C75.8549 103.226 75.1236 102.494 74.221 102.494H65.9767C65.0741 102.494 64.3429 103.226 64.3429 104.128V116.212Z" fill="url(#paint3_linear_1335_406)" stroke="white"/>
<path d="M137.7 38.7193L137.437 38.7852L137.239 38.6016C129.116 31.0968 113.531 19.8859 94.4217 21.6945L94.3745 21.1968L94.4216 21.6945C86.265 22.4661 77.533 26.1712 69.8466 32.1514C61.887 38.3441 55.6866 46.5611 52.3822 55.2779C49.3798 63.1971 48.7203 71.3028 50.4168 79.3781C52.3093 88.3863 57.118 97.0894 64.7415 105.244L64.7416 105.244C65.0504 105.575 65.4826 105.762 65.9351 105.762H74.0335C74.3276 105.762 74.6166 105.682 74.8697 105.532L74.8704 105.531C74.9711 105.472 78.2237 103.509 81.6156 98.6268L81.7539 98.4277L81.996 98.413C92.395 97.7831 103.618 92.0307 115.378 81.1864L115.717 81.554L115.378 81.1864C121.587 75.4615 126.264 69.8318 128.62 66.8166L128.981 66.3541L129.38 66.7845C132.571 70.2246 137.053 72.2135 141.835 72.2135C151.209 72.2135 158.837 64.5858 158.837 55.211C158.837 45.8364 151.209 38.2085 141.835 38.2085C140.437 38.2085 139.051 38.38 137.7 38.7193Z" fill="url(#paint4_linear_1335_406)" stroke="white"/>
<path opacity="0.1" d="M66.9355 107.262C66.3446 107.262 65.78 107.017 65.3766 106.585C57.7036 98.378 52.8426 89.5954 50.9279 80.4809C49.2109 72.3094 49.8792 64.1066 52.9145 56.1005C56.254 47.291 62.5133 39.0009 70.5394 32.7566C78.2869 26.7287 87.107 22.9786 95.3744 22.1965C100.461 21.7152 105.298 22.1465 109.813 23.1795C107.487 23.5207 105.032 23.87 102.44 24.2282C102.05 24.254 101.658 24.2836 101.265 24.321C72.8328 27.0108 39.6449 69.4082 75.0334 107.262H66.9355Z" fill="white"/>
<mask id="path-9-inside-1_1335_406" fill="white">
<path d="M147.496 64.5592C150.253 64.5592 152.495 62.3205 152.495 59.5685C152.495 56.8165 150.253 54.5779 147.496 54.5779C144.738 54.5779 142.495 56.8165 142.495 59.5685C142.496 62.32 144.739 64.5592 147.496 64.5592Z"/>
</mask>
<path d="M147.496 64.5592C150.253 64.5592 152.495 62.3205 152.495 59.5685C152.495 56.8165 150.253 54.5779 147.496 54.5779C144.738 54.5779 142.495 56.8165 142.495 59.5685C142.496 62.32 144.739 64.5592 147.496 64.5592Z" fill="#455A64"/>
<path d="M142.495 59.5685L141.495 59.5689V59.5685H142.495ZM147.496 63.5592C149.702 63.5592 151.495 61.7665 151.495 59.5685H153.495C153.495 62.8745 150.803 65.5592 147.496 65.5592V63.5592ZM151.495 59.5685C151.495 57.3705 149.702 55.5779 147.496 55.5779V53.5779C150.803 53.5779 153.495 56.2625 153.495 59.5685H151.495ZM147.496 55.5779C145.289 55.5779 143.495 57.3707 143.495 59.5685H141.495C141.495 56.2624 144.188 53.5779 147.496 53.5779V55.5779ZM143.495 59.5682C143.496 61.7662 145.29 63.5592 147.496 63.5592V65.5592C144.188 65.5592 141.497 62.8739 141.495 59.5689L143.495 59.5682Z" fill="white" mask="url(#path-9-inside-1_1335_406)"/>
<circle cx="148" cy="60.0001" r="1" fill="white"/>
<rect y="87" width="149" height="50" fill="#455A64"/>
<path d="M33.287 118.17C32.369 118.17 31.4793 118.04 30.618 117.779C29.768 117.518 29.0937 117.173 28.595 116.742L29.36 115.025C29.8473 115.41 30.4423 115.728 31.145 115.977C31.859 116.215 32.573 116.334 33.287 116.334C34.171 116.334 34.8283 116.192 35.259 115.909C35.701 115.626 35.922 115.252 35.922 114.787C35.922 114.447 35.7973 114.169 35.548 113.954C35.31 113.727 35.004 113.552 34.63 113.427C34.256 113.302 33.746 113.161 33.1 113.002C32.1933 112.787 31.4567 112.571 30.89 112.356C30.3347 112.141 29.853 111.806 29.445 111.353C29.0483 110.888 28.85 110.265 28.85 109.483C28.85 108.826 29.0257 108.231 29.377 107.698C29.7397 107.154 30.278 106.723 30.992 106.406C31.7173 106.089 32.6013 105.93 33.644 105.93C34.3693 105.93 35.0833 106.021 35.786 106.202C36.4887 106.383 37.095 106.644 37.605 106.984L36.908 108.701C36.3867 108.395 35.8427 108.163 35.276 108.004C34.7093 107.845 34.1597 107.766 33.627 107.766C32.7543 107.766 32.1027 107.913 31.672 108.208C31.2527 108.503 31.043 108.894 31.043 109.381C31.043 109.721 31.162 109.999 31.4 110.214C31.6493 110.429 31.961 110.599 32.335 110.724C32.709 110.849 33.219 110.99 33.865 111.149C34.749 111.353 35.4743 111.568 36.041 111.795C36.6077 112.01 37.0893 112.345 37.486 112.798C37.894 113.251 38.098 113.863 38.098 114.634C38.098 115.291 37.9167 115.886 37.554 116.419C37.2027 116.952 36.6643 117.377 35.939 117.694C35.2137 118.011 34.3297 118.17 33.287 118.17ZM42.5374 107.97H38.5934V106.1H48.6914V107.97H44.7474V118H42.5374V107.97ZM57.4703 115.246H51.5203L50.3473 118H48.0693L53.4243 106.1H55.6003L60.9723 118H58.6603L57.4703 115.246ZM56.7393 113.512L54.4953 108.31L52.2683 113.512H56.7393ZM66.5827 113.019L64.6957 114.957V118H62.4857V106.1H64.6957V112.203L70.5777 106.1H73.0597L68.0617 111.421L73.3657 118H70.7817L66.5827 113.019ZM74.8705 106.1H77.0805V118H74.8705V106.1ZM90.8732 106.1V118H89.0542L82.4922 109.942V118H80.2992V106.1H82.1182L88.6802 114.158V106.1H90.8732ZM102.188 111.914H104.279V116.657C103.667 117.144 102.953 117.518 102.137 117.779C101.321 118.04 100.482 118.17 99.6209 118.17C98.4082 118.17 97.3145 117.909 96.3399 117.388C95.3652 116.855 94.6002 116.124 94.0449 115.195C93.4895 114.266 93.2119 113.217 93.2119 112.05C93.2119 110.883 93.4895 109.834 94.0449 108.905C94.6002 107.976 95.3652 107.25 96.3399 106.729C97.3259 106.196 98.4309 105.93 99.6549 105.93C100.652 105.93 101.559 106.094 102.375 106.423C103.191 106.752 103.877 107.233 104.432 107.868L103.038 109.228C102.131 108.321 101.038 107.868 99.7569 107.868C98.9182 107.868 98.1702 108.044 97.5129 108.395C96.8669 108.746 96.3569 109.239 95.9829 109.874C95.6202 110.509 95.4389 111.234 95.4389 112.05C95.4389 112.843 95.6202 113.557 95.9829 114.192C96.3569 114.827 96.8669 115.325 97.5129 115.688C98.1702 116.051 98.9125 116.232 99.7399 116.232C100.669 116.232 101.485 116.028 102.188 115.62V111.914ZM107.836 118.119C107.45 118.119 107.122 117.989 106.85 117.728C106.578 117.456 106.442 117.116 106.442 116.708C106.442 116.289 106.572 115.949 106.833 115.688C107.105 115.427 107.439 115.297 107.836 115.297C108.232 115.297 108.561 115.427 108.822 115.688C109.094 115.949 109.23 116.289 109.23 116.708C109.23 117.116 109.094 117.456 108.822 117.728C108.55 117.989 108.221 118.119 107.836 118.119ZM115.607 113.019L113.72 114.957V118H111.51V106.1H113.72V112.203L119.602 106.1H122.084L117.086 111.421L122.39 118H119.806L115.607 113.019ZM123.895 106.1H126.105V118H123.895V106.1ZM146.632 106.1L142.688 118H140.342L137.401 109.194L134.409 118H132.046L128.102 106.1H130.397L133.355 115.144L136.432 106.1H138.472L141.481 115.195L144.524 106.1H146.632ZM148.432 106.1H150.642V118H148.432V106.1Z" fill="#FFCD29"/>
<path d="M33.377 138.066C32.805 138.066 32.255 137.974 31.727 137.791C31.2063 137.608 30.803 137.366 30.517 137.065L30.836 136.438C31.1147 136.717 31.485 136.944 31.947 137.12C32.409 137.289 32.8857 137.373 33.377 137.373C34.0663 137.373 34.5833 137.248 34.928 136.999C35.2727 136.742 35.445 136.412 35.445 136.009C35.445 135.701 35.3497 135.455 35.159 135.272C34.9757 135.089 34.7483 134.949 34.477 134.854C34.2057 134.751 33.828 134.641 33.344 134.524C32.7647 134.377 32.3027 134.238 31.958 134.106C31.6133 133.967 31.3163 133.758 31.067 133.479C30.825 133.2 30.704 132.823 30.704 132.346C30.704 131.957 30.8067 131.605 31.012 131.29C31.2173 130.967 31.5327 130.711 31.958 130.52C32.3833 130.329 32.9113 130.234 33.542 130.234C33.982 130.234 34.411 130.296 34.829 130.421C35.2543 130.538 35.621 130.703 35.929 130.916L35.654 131.565C35.3313 131.352 34.9867 131.195 34.62 131.092C34.2533 130.982 33.894 130.927 33.542 130.927C32.8673 130.927 32.3577 131.059 32.013 131.323C31.6757 131.58 31.507 131.913 31.507 132.324C31.507 132.632 31.5987 132.881 31.782 133.072C31.9727 133.255 32.2073 133.398 32.486 133.501C32.772 133.596 33.1533 133.703 33.63 133.82C34.1947 133.959 34.6493 134.099 34.994 134.238C35.346 134.37 35.643 134.575 35.885 134.854C36.127 135.125 36.248 135.496 36.248 135.965C36.248 136.354 36.1417 136.709 35.929 137.032C35.7237 137.347 35.4047 137.6 34.972 137.791C34.5393 137.974 34.0077 138.066 33.377 138.066ZM39.4102 131.004H36.7042V130.3H42.9302V131.004H40.2242V138H39.4102V131.004ZM48.6728 135.943H44.3828L43.4588 138H42.6118L46.1318 130.3H46.9348L50.4548 138H49.5968L48.6728 135.943ZM48.3758 135.283L46.5278 131.147L44.6798 135.283H48.3758ZM54.1156 134.381L52.5426 135.976V138H51.7286V130.3H52.5426V134.953L57.0636 130.3H57.9986L54.6656 133.787L58.2296 138H57.2616L54.1156 134.381ZM64.9939 137.296V138H59.5489V130.3H64.8289V131.004H60.3629V133.743H64.3449V134.436H60.3629V137.296H64.9939ZM72.4262 135.338V138H71.6232V135.338L68.5432 130.3H69.4122L72.0522 134.623L74.6922 130.3H75.5062L72.4262 135.338ZM79.8016 138.066C79.039 138.066 78.346 137.897 77.7226 137.56C77.1066 137.215 76.6226 136.746 76.2706 136.152C75.926 135.558 75.7536 134.891 75.7536 134.15C75.7536 133.409 75.926 132.742 76.2706 132.148C76.6226 131.554 77.1066 131.088 77.7226 130.751C78.346 130.406 79.039 130.234 79.8016 130.234C80.5643 130.234 81.25 130.403 81.8586 130.74C82.4746 131.077 82.9586 131.547 83.3106 132.148C83.6626 132.742 83.8386 133.409 83.8386 134.15C83.8386 134.891 83.6626 135.562 83.3106 136.163C82.9586 136.757 82.4746 137.223 81.8586 137.56C81.25 137.897 80.5643 138.066 79.8016 138.066ZM79.8016 137.34C80.4103 137.34 80.9603 137.204 81.4516 136.933C81.943 136.654 82.328 136.273 82.6066 135.789C82.8853 135.298 83.0246 134.751 83.0246 134.15C83.0246 133.549 82.8853 133.006 82.6066 132.522C82.328 132.031 81.943 131.649 81.4516 131.378C80.9603 131.099 80.4103 130.96 79.8016 130.96C79.193 130.96 78.6393 131.099 78.1406 131.378C77.6493 131.649 77.2606 132.031 76.9746 132.522C76.696 133.006 76.5566 133.549 76.5566 134.15C76.5566 134.751 76.696 135.298 76.9746 135.789C77.2606 136.273 77.6493 136.654 78.1406 136.933C78.6393 137.204 79.193 137.34 79.8016 137.34ZM88.7652 138.066C87.7678 138.066 86.9905 137.78 86.4332 137.208C85.8758 136.636 85.5972 135.804 85.5972 134.711V130.3H86.4112V134.678C86.4112 135.573 86.6128 136.24 87.0162 136.68C87.4195 137.12 88.0025 137.34 88.7652 137.34C89.5352 137.34 90.1218 137.12 90.5252 136.68C90.9285 136.24 91.1302 135.573 91.1302 134.678V130.3H91.9222V134.711C91.9222 135.804 91.6435 136.636 91.0862 137.208C90.5362 137.78 89.7625 138.066 88.7652 138.066ZM99.6331 138L97.8731 135.525C97.6751 135.547 97.4698 135.558 97.2571 135.558H95.1891V138H94.3751V130.3H97.2571C98.2398 130.3 99.0098 130.535 99.5671 131.004C100.124 131.473 100.403 132.119 100.403 132.94C100.403 133.541 100.249 134.051 99.9411 134.469C99.6404 134.88 99.2078 135.177 98.6431 135.36L100.524 138H99.6331ZM97.2351 134.865C97.9978 134.865 98.5808 134.696 98.9841 134.359C99.3874 134.022 99.5891 133.549 99.5891 132.94C99.5891 132.317 99.3874 131.84 98.9841 131.51C98.5808 131.173 97.9978 131.004 97.2351 131.004H95.1891V134.865H97.2351ZM107.326 138.066C106.754 138.066 106.204 137.974 105.676 137.791C105.156 137.608 104.752 137.366 104.466 137.065L104.785 136.438C105.064 136.717 105.434 136.944 105.896 137.12C106.358 137.289 106.835 137.373 107.326 137.373C108.016 137.373 108.533 137.248 108.877 136.999C109.222 136.742 109.394 136.412 109.394 136.009C109.394 135.701 109.299 135.455 109.108 135.272C108.925 135.089 108.698 134.949 108.426 134.854C108.155 134.751 107.777 134.641 107.293 134.524C106.714 134.377 106.252 134.238 105.907 134.106C105.563 133.967 105.266 133.758 105.016 133.479C104.774 133.2 104.653 132.823 104.653 132.346C104.653 131.957 104.756 131.605 104.961 131.29C105.167 130.967 105.482 130.711 105.907 130.52C106.333 130.329 106.861 130.234 107.491 130.234C107.931 130.234 108.36 130.296 108.778 130.421C109.204 130.538 109.57 130.703 109.878 130.916L109.603 131.565C109.281 131.352 108.936 131.195 108.569 131.092C108.203 130.982 107.843 130.927 107.491 130.927C106.817 130.927 106.307 131.059 105.962 131.323C105.625 131.58 105.456 131.913 105.456 132.324C105.456 132.632 105.548 132.881 105.731 133.072C105.922 133.255 106.157 133.398 106.435 133.501C106.721 133.596 107.103 133.703 107.579 133.82C108.144 133.959 108.599 134.099 108.943 134.238C109.295 134.37 109.592 134.575 109.834 134.854C110.076 135.125 110.197 135.496 110.197 135.965C110.197 136.354 110.091 136.709 109.878 137.032C109.673 137.347 109.354 137.6 108.921 137.791C108.489 137.974 107.957 138.066 107.326 138.066ZM115.337 138.066C114.574 138.066 113.881 137.897 113.258 137.56C112.642 137.215 112.158 136.746 111.806 136.152C111.461 135.558 111.289 134.891 111.289 134.15C111.289 133.409 111.461 132.742 111.806 132.148C112.158 131.554 112.642 131.088 113.258 130.751C113.881 130.406 114.574 130.234 115.337 130.234C116.099 130.234 116.785 130.403 117.394 130.74C118.01 131.077 118.494 131.547 118.846 132.148C119.198 132.742 119.374 133.409 119.374 134.15C119.374 134.891 119.198 135.562 118.846 136.163C118.494 136.757 118.01 137.223 117.394 137.56C116.785 137.897 116.099 138.066 115.337 138.066ZM115.337 137.34C115.945 137.34 116.495 137.204 116.987 136.933C117.478 136.654 117.863 136.273 118.142 135.789C118.42 135.298 118.56 134.751 118.56 134.15C118.56 133.549 118.42 133.006 118.142 132.522C117.863 132.031 117.478 131.649 116.987 131.378C116.495 131.099 115.945 130.96 115.337 130.96C114.728 130.96 114.174 131.099 113.676 131.378C113.184 131.649 112.796 132.031 112.51 132.522C112.231 133.006 112.092 133.549 112.092 134.15C112.092 134.751 112.231 135.298 112.51 135.789C112.796 136.273 113.184 136.654 113.676 136.933C114.174 137.204 114.728 137.34 115.337 137.34ZM121.198 130.3H122.012V137.296H126.324V138H121.198V130.3ZM132.526 135.943H128.236L127.312 138H126.465L129.985 130.3H130.788L134.308 138H133.45L132.526 135.943ZM132.229 135.283L130.381 131.147L128.533 135.283H132.229ZM142.017 130.3V138H141.346L136.396 131.752V138H135.582V130.3H136.253L141.214 136.548V130.3H142.017ZM149.359 135.943H145.069L144.145 138H143.298L146.818 130.3H147.621L151.141 138H150.283L149.359 135.943ZM149.062 135.283L147.214 131.147L145.366 135.283H149.062Z" fill="#CFCFCF"/>
<line x1="30" y1="124.5" x2="152" y2="124.5" stroke="#CFCFCF"/>
<defs>
<linearGradient id="paint0_linear_1335_406" x1="87.9032" y1="105.349" x2="108.979" y2="125.339" gradientUnits="userSpaceOnUse">
<stop stop-color="#00A5B9"/>
<stop offset="1" stop-color="#FFC100"/>
</linearGradient>
<linearGradient id="paint1_linear_1335_406" x1="88.6032" y1="87.4915" x2="105.905" y2="102.424" gradientUnits="userSpaceOnUse">
<stop stop-color="#00A5B9"/>
<stop offset="1" stop-color="#FFC100"/>
</linearGradient>
<linearGradient id="paint2_linear_1335_406" x1="178.5" y1="78.9999" x2="150.5" y2="103" gradientUnits="userSpaceOnUse">
<stop stop-color="#13A8AC"/>
<stop offset="0.848958" stop-color="#FFC100"/>
</linearGradient>
<linearGradient id="paint3_linear_1335_406" x1="59.6071" y1="105.35" x2="80.4998" y2="129.442" gradientUnits="userSpaceOnUse">
<stop stop-color="#00A5B9"/>
<stop offset="1" stop-color="#FFC100"/>
</linearGradient>
<linearGradient id="paint4_linear_1335_406" x1="76.5" y1="32" x2="145.5" y2="95.9999" gradientUnits="userSpaceOnUse">
<stop stop-color="#00A5B9"/>
<stop offset="1" stop-color="#FFC100"/>
</linearGradient>
</defs>
</svg>
