<svg width="156" height="111" viewBox="0 0 156 111" fill="none" xmlns="http://www.w3.org/2000/svg">
<path d="M122.358 48.0777C122.506 47.3752 122.998 46.7945 123.666 46.5322C126.231 45.5255 128.389 43.7708 129.906 41.4589C130.273 40.8999 130.88 40.5458 131.547 40.5008C132.213 40.4578 132.864 40.7267 133.302 41.231C134.148 42.2056 154.038 65.4792 155.504 98.6223C155.55 99.6639 154.836 100.586 153.817 100.803C153.668 100.835 153.518 100.85 153.371 100.85C152.511 100.85 151.714 100.327 151.387 99.4995C151.353 99.413 147.923 90.749 142.692 80.3208C135.811 66.6056 128.977 56.1275 122.929 50.0195C122.424 49.5101 122.209 48.7801 122.358 48.0777Z" fill="url(#paint0_linear_1445_1131)"/>
<path fill-rule="evenodd" clip-rule="evenodd" d="M123.336 48.2845L123.336 48.2841C123.415 47.9111 123.676 47.6025 124.031 47.463C126.79 46.3804 129.112 44.4918 130.742 42.0075L129.909 41.4607L130.742 42.0075C130.936 41.7114 131.258 41.523 131.613 41.4986C131.969 41.4761 132.316 41.6206 132.547 41.8868C133.355 42.8176 153.054 65.8731 154.505 98.6665C154.529 99.2197 154.15 99.7096 153.608 99.8251L153.607 99.8253C153.528 99.8424 153.448 99.8505 153.371 99.8505C152.914 99.8505 152.49 99.5716 152.317 99.1326L152.317 99.1324C152.277 99.0317 148.836 90.3375 143.586 79.8724L142.692 80.3208C147.923 90.749 151.353 99.413 151.387 99.4995C151.714 100.327 152.511 100.85 153.371 100.85C153.518 100.85 153.668 100.835 153.817 100.803C154.836 100.586 155.55 99.6639 155.504 98.6223C154.038 65.4792 134.148 42.2056 133.302 41.231C132.864 40.7267 132.213 40.4578 131.547 40.5008C130.88 40.5458 130.273 40.8999 129.906 41.4589C128.389 43.7708 126.231 45.5255 123.666 46.5322C122.998 46.7945 122.506 47.3752 122.358 48.0777C122.209 48.7801 122.424 49.5101 122.929 50.0195C128.977 56.1275 135.811 66.6056 142.692 80.3208L143.586 79.8724C136.688 66.1246 129.799 55.5357 123.64 49.3159L123.639 49.3152C123.372 49.0452 123.257 48.6578 123.336 48.2845Z" fill="white"/>
<path fill-rule="evenodd" clip-rule="evenodd" d="M46.5396 10.7568C38.5135 17.0011 32.2542 25.2913 28.9146 34.1007C25.8793 42.1068 25.2108 50.3096 26.9275 58.4809C27.1752 59.6597 27.4721 60.8329 27.818 62H91.1184C91.6503 61.5283 92.1833 61.0463 92.7172 60.554C98.9524 54.8049 103.648 49.153 106.014 46.1245C109.298 49.6659 113.913 51.7135 118.835 51.7135C128.486 51.7135 136.337 43.8619 136.337 34.211C136.337 24.5603 128.486 16.7085 118.835 16.7085C117.396 16.7085 115.969 16.885 114.578 17.2343C106.426 9.70228 90.7023 -1.63251 71.3746 0.196757C63.1072 0.97885 54.2871 4.72895 46.5396 10.7568Z" fill="url(#paint1_linear_1445_1131)"/>
<path fill-rule="evenodd" clip-rule="evenodd" d="M113.899 17.9688C105.807 10.4914 90.3597 -0.595624 71.4688 1.19231L71.3746 0.196817L71.4687 1.19231C63.4229 1.95345 54.7788 5.61346 47.1536 11.546L46.5396 10.7568C54.2871 4.72895 63.1072 0.97885 71.3745 0.196757C90.7023 -1.63251 106.426 9.70228 114.578 17.2343C115.969 16.885 117.396 16.7085 118.835 16.7085C128.486 16.7085 136.337 24.5603 136.337 34.211C136.337 43.8619 128.486 51.7135 118.835 51.7135C114.257 51.7135 109.944 49.9417 106.721 46.844C106.479 46.6115 106.243 46.3717 106.014 46.1245C105.82 46.3721 105.611 46.6372 105.387 46.9185C102.87 50.0777 98.4427 55.2749 92.7172 60.554C92.1833 61.0463 91.6503 61.5283 91.1184 62H89.6018C90.4114 61.2978 91.2239 60.5708 92.0393 59.8188C98.2221 54.1181 102.88 48.5106 105.226 45.5088L105.949 44.5837L106.747 45.4445C109.843 48.7833 114.194 50.7135 118.835 50.7135C127.933 50.7135 135.337 43.3097 135.337 34.211C135.337 25.1125 127.933 17.7085 118.835 17.7085C117.478 17.7085 116.133 17.8749 114.821 18.2042L114.297 18.336L113.899 17.9688ZM28.862 62C28.4869 60.7643 28.1682 59.5226 27.9062 58.2753C26.2298 50.296 26.8803 42.2874 29.8497 34.4552C33.119 25.831 39.2605 17.687 47.1536 11.546L46.5396 10.7568C38.5135 17.0011 32.2542 25.2913 28.9146 34.1007C25.8793 42.1068 25.2108 50.3096 26.9275 58.4809C27.1752 59.6597 27.4721 60.8329 27.818 62H28.862Z" fill="white"/>
<path fill-rule="evenodd" clip-rule="evenodd" d="M28.275 62C28.1502 61.4947 28.0344 60.9883 27.9279 60.4809C26.2109 52.3094 26.8792 44.1066 29.9145 36.1005C33.254 27.291 39.5133 19.0009 47.5394 12.7566C55.2869 6.72873 64.107 2.97863 72.3744 2.19653C77.4613 1.71519 82.298 2.14645 86.813 3.17946C84.4867 3.52068 82.0322 3.86999 79.4403 4.22816C79.05 4.25396 78.6582 4.28355 78.2649 4.32099C56.1105 6.41687 31.0685 32.6217 37.8326 62H28.275Z" fill="url(#paint2_linear_1445_1131)"/>
<mask id="path-6-inside-1_1445_1131" fill="white">
<path d="M124.496 43.5591C127.253 43.5591 129.495 41.3205 129.495 38.5685C129.495 35.8165 127.253 33.5778 124.496 33.5778C121.738 33.5778 119.495 35.8165 119.495 38.5685C119.496 41.32 121.739 43.5591 124.496 43.5591Z"/>
</mask>
<path d="M124.496 43.5591C127.253 43.5591 129.495 41.3205 129.495 38.5685C129.495 35.8165 127.253 33.5778 124.496 33.5778C121.738 33.5778 119.495 35.8165 119.495 38.5685C119.496 41.32 121.739 43.5591 124.496 43.5591Z" fill="#455A64"/>
<path d="M119.495 38.5685L118.495 38.5688V38.5685H119.495ZM124.496 42.5591C126.702 42.5591 128.495 40.7665 128.495 38.5685H130.495C130.495 41.8745 127.803 44.5591 124.496 44.5591V42.5591ZM128.495 38.5685C128.495 36.3705 126.702 34.5778 124.496 34.5778V32.5778C127.803 32.5778 130.495 35.2625 130.495 38.5685H128.495ZM124.496 34.5778C122.289 34.5778 120.495 36.3706 120.495 38.5685H118.495C118.495 35.2623 121.188 32.5778 124.496 32.5778V34.5778ZM120.495 38.5681C120.496 40.7661 122.29 42.5591 124.496 42.5591V44.5591C121.188 44.5591 118.497 41.8738 118.495 38.5688L120.495 38.5681Z" fill="white" mask="url(#path-6-inside-1_1445_1131)"/>
<circle cx="125" cy="39.0001" r="0.5" fill="white" stroke="white"/>
<path d="M5.287 88.1701C4.369 88.1701 3.47933 88.0397 2.618 87.7791C1.768 87.5184 1.09367 87.1727 0.595 86.7421L1.36 85.0251C1.84733 85.4104 2.44233 85.7277 3.145 85.9771C3.859 86.2151 4.573 86.3341 5.287 86.3341C6.171 86.3341 6.82833 86.1924 7.259 85.9091C7.701 85.6257 7.922 85.2517 7.922 84.7871C7.922 84.4471 7.79733 84.1694 7.548 83.9541C7.31 83.7274 7.004 83.5517 6.63 83.4271C6.256 83.3024 5.746 83.1607 5.1 83.0021C4.19333 82.7867 3.45667 82.5714 2.89 82.3561C2.33467 82.1407 1.853 81.8064 1.445 81.3531C1.04833 80.8884 0.85 80.2651 0.85 79.4831C0.85 78.8257 1.02567 78.2307 1.377 77.6981C1.73967 77.1541 2.278 76.7234 2.992 76.4061C3.71733 76.0887 4.60133 75.9301 5.644 75.9301C6.36933 75.9301 7.08333 76.0207 7.786 76.2021C8.48867 76.3834 9.095 76.6441 9.605 76.9841L8.908 78.7011C8.38667 78.3951 7.84267 78.1627 7.276 78.0041C6.70933 77.8454 6.15967 77.7661 5.627 77.7661C4.75433 77.7661 4.10267 77.9134 3.672 78.2081C3.25267 78.5027 3.043 78.8937 3.043 79.3811C3.043 79.7211 3.162 79.9987 3.4 80.2141C3.64933 80.4294 3.961 80.5994 4.335 80.7241C4.709 80.8487 5.219 80.9904 5.865 81.1491C6.749 81.3531 7.47433 81.5684 8.041 81.7951C8.60767 82.0104 9.08933 82.3447 9.486 82.7981C9.894 83.2514 10.098 83.8634 10.098 84.6341C10.098 85.2914 9.91667 85.8864 9.554 86.4191C9.20267 86.9517 8.66433 87.3767 7.939 87.6941C7.21367 88.0114 6.32967 88.1701 5.287 88.1701ZM14.5374 77.9701H10.5934V76.1001H20.6914V77.9701H16.7474V88.0001H14.5374V77.9701ZM29.4703 85.2461H23.5203L22.3473 88.0001H20.0693L25.4243 76.1001H27.6003L32.9723 88.0001H30.6603L29.4703 85.2461ZM28.7393 83.5121L26.4953 78.3101L24.2683 83.5121H28.7393ZM38.5827 83.0191L36.6957 84.9571V88.0001H34.4857V76.1001H36.6957V82.2031L42.5777 76.1001H45.0597L40.0617 81.4211L45.3657 88.0001H42.7817L38.5827 83.0191ZM46.8705 76.1001H49.0805V88.0001H46.8705V76.1001ZM62.8732 76.1001V88.0001H61.0542L54.4922 79.9421V88.0001H52.2992V76.1001H54.1182L60.6802 84.1581V76.1001H62.8732ZM74.1879 81.9141H76.2789V86.6571C75.6669 87.1444 74.9529 87.5184 74.1369 87.7791C73.3209 88.0397 72.4822 88.1701 71.6209 88.1701C70.4082 88.1701 69.3145 87.9094 68.3399 87.3881C67.3652 86.8554 66.6002 86.1244 66.0449 85.1951C65.4895 84.2657 65.2119 83.2174 65.2119 82.0501C65.2119 80.8827 65.4895 79.8344 66.0449 78.9051C66.6002 77.9757 67.3652 77.2504 68.3399 76.7291C69.3259 76.1964 70.4309 75.9301 71.6549 75.9301C72.6522 75.9301 73.5589 76.0944 74.3749 76.4231C75.1909 76.7517 75.8765 77.2334 76.4319 77.8681L75.0379 79.2281C74.1312 78.3214 73.0375 77.8681 71.7569 77.8681C70.9182 77.8681 70.1702 78.0437 69.5129 78.3951C68.8669 78.7464 68.3569 79.2394 67.9829 79.8741C67.6202 80.5087 67.4389 81.2341 67.4389 82.0501C67.4389 82.8434 67.6202 83.5574 67.9829 84.1921C68.3569 84.8267 68.8669 85.3254 69.5129 85.6881C70.1702 86.0507 70.9125 86.2321 71.7399 86.2321C72.6692 86.2321 73.4852 86.0281 74.1879 85.6201V81.9141ZM79.8357 88.1191C79.4504 88.1191 79.1217 87.9887 78.8497 87.7281C78.5777 87.4561 78.4417 87.1161 78.4417 86.7081C78.4417 86.2887 78.5721 85.9487 78.8327 85.6881C79.1047 85.4274 79.4391 85.2971 79.8357 85.2971C80.2324 85.2971 80.5611 85.4274 80.8217 85.6881C81.0937 85.9487 81.2297 86.2887 81.2297 86.7081C81.2297 87.1161 81.0937 87.4561 80.8217 87.7281C80.5497 87.9887 80.2211 88.1191 79.8357 88.1191ZM87.6071 83.0191L85.7201 84.9571V88.0001H83.5101V76.1001H85.7201V82.2031L91.6021 76.1001H94.0841L89.0861 81.4211L94.3901 88.0001H91.8061L87.6071 83.0191ZM95.8949 76.1001H98.1049V88.0001H95.8949V76.1001ZM118.632 76.1001L114.688 88.0001H112.342L109.401 79.1941L106.409 88.0001H104.046L100.102 76.1001H102.397L105.355 85.1441L108.432 76.1001H110.472L113.481 85.1951L116.524 76.1001H118.632ZM120.432 76.1001H122.642V88.0001H120.432V76.1001Z" fill="#FFCD29"/>
<path d="M5.377 108.066C4.805 108.066 4.255 107.974 3.727 107.791C3.20633 107.608 2.803 107.366 2.517 107.065L2.836 106.438C3.11467 106.717 3.485 106.944 3.947 107.12C4.409 107.289 4.88567 107.373 5.377 107.373C6.06633 107.373 6.58333 107.248 6.928 106.999C7.27267 106.742 7.445 106.412 7.445 106.009C7.445 105.701 7.34967 105.455 7.159 105.272C6.97567 105.089 6.74833 104.949 6.477 104.854C6.20567 104.751 5.828 104.641 5.344 104.524C4.76467 104.377 4.30267 104.238 3.958 104.106C3.61333 103.967 3.31633 103.758 3.067 103.479C2.825 103.2 2.704 102.823 2.704 102.346C2.704 101.957 2.80667 101.605 3.012 101.29C3.21733 100.967 3.53267 100.711 3.958 100.52C4.38333 100.329 4.91133 100.234 5.542 100.234C5.982 100.234 6.411 100.296 6.829 100.421C7.25433 100.538 7.621 100.703 7.929 100.916L7.654 101.565C7.33133 101.352 6.98667 101.195 6.62 101.092C6.25333 100.982 5.894 100.927 5.542 100.927C4.86733 100.927 4.35767 101.059 4.013 101.323C3.67567 101.58 3.507 101.913 3.507 102.324C3.507 102.632 3.59867 102.881 3.782 103.072C3.97267 103.255 4.20733 103.398 4.486 103.501C4.772 103.596 5.15333 103.703 5.63 103.82C6.19467 103.959 6.64933 104.099 6.994 104.238C7.346 104.37 7.643 104.575 7.885 104.854C8.127 105.125 8.248 105.496 8.248 105.965C8.248 106.354 8.14167 106.709 7.929 107.032C7.72367 107.347 7.40467 107.6 6.972 107.791C6.53933 107.974 6.00767 108.066 5.377 108.066ZM11.4102 101.004H8.70416V100.3H14.9302V101.004H12.2242V108H11.4102V101.004ZM20.6728 105.943H16.3828L15.4588 108H14.6118L18.1318 100.3H18.9348L22.4548 108H21.5968L20.6728 105.943ZM20.3758 105.283L18.5278 101.147L16.6798 105.283H20.3758ZM26.1156 104.381L24.5426 105.976V108H23.7286V100.3H24.5426V104.953L29.0636 100.3H29.9986L26.6656 103.787L30.2296 108H29.2616L26.1156 104.381ZM36.9939 107.296V108H31.5489V100.3H36.8289V101.004H32.3629V103.743H36.3449V104.436H32.3629V107.296H36.9939ZM44.4262 105.338V108H43.6232V105.338L40.5432 100.3H41.4122L44.0522 104.623L46.6922 100.3H47.5062L44.4262 105.338ZM51.8016 108.066C51.039 108.066 50.346 107.897 49.7226 107.56C49.1066 107.215 48.6226 106.746 48.2706 106.152C47.926 105.558 47.7536 104.891 47.7536 104.15C47.7536 103.409 47.926 102.742 48.2706 102.148C48.6226 101.554 49.1066 101.088 49.7226 100.751C50.346 100.406 51.039 100.234 51.8016 100.234C52.5643 100.234 53.25 100.403 53.8586 100.74C54.4746 101.077 54.9586 101.547 55.3106 102.148C55.6626 102.742 55.8386 103.409 55.8386 104.15C55.8386 104.891 55.6626 105.562 55.3106 106.163C54.9586 106.757 54.4746 107.223 53.8586 107.56C53.25 107.897 52.5643 108.066 51.8016 108.066ZM51.8016 107.34C52.4103 107.34 52.9603 107.204 53.4516 106.933C53.943 106.654 54.328 106.273 54.6066 105.789C54.8853 105.298 55.0246 104.751 55.0246 104.15C55.0246 103.549 54.8853 103.006 54.6066 102.522C54.328 102.031 53.943 101.649 53.4516 101.378C52.9603 101.099 52.4103 100.96 51.8016 100.96C51.193 100.96 50.6393 101.099 50.1406 101.378C49.6493 101.649 49.2606 102.031 48.9746 102.522C48.696 103.006 48.5566 103.549 48.5566 104.15C48.5566 104.751 48.696 105.298 48.9746 105.789C49.2606 106.273 49.6493 106.654 50.1406 106.933C50.6393 107.204 51.193 107.34 51.8016 107.34ZM60.7652 108.066C59.7678 108.066 58.9905 107.78 58.4332 107.208C57.8758 106.636 57.5972 105.804 57.5972 104.711V100.3H58.4112V104.678C58.4112 105.573 58.6128 106.24 59.0162 106.68C59.4195 107.12 60.0025 107.34 60.7652 107.34C61.5352 107.34 62.1218 107.12 62.5252 106.68C62.9285 106.24 63.1302 105.573 63.1302 104.678V100.3H63.9222V104.711C63.9222 105.804 63.6435 106.636 63.0862 107.208C62.5362 107.78 61.7625 108.066 60.7652 108.066ZM71.6331 108L69.8731 105.525C69.6751 105.547 69.4698 105.558 69.2571 105.558H67.1891V108H66.3751V100.3H69.2571C70.2398 100.3 71.0098 100.535 71.5671 101.004C72.1244 101.473 72.4031 102.119 72.4031 102.94C72.4031 103.541 72.2491 104.051 71.9411 104.469C71.6404 104.88 71.2078 105.177 70.6431 105.36L72.5241 108H71.6331ZM69.2351 104.865C69.9978 104.865 70.5808 104.696 70.9841 104.359C71.3874 104.022 71.5891 103.549 71.5891 102.94C71.5891 102.317 71.3874 101.84 70.9841 101.51C70.5808 101.173 69.9978 101.004 69.2351 101.004H67.1891V104.865H69.2351ZM79.3262 108.066C78.7542 108.066 78.2042 107.974 77.6762 107.791C77.1556 107.608 76.7522 107.366 76.4662 107.065L76.7852 106.438C77.0639 106.717 77.4342 106.944 77.8962 107.12C78.3582 107.289 78.8349 107.373 79.3262 107.373C80.0156 107.373 80.5326 107.248 80.8772 106.999C81.2219 106.742 81.3942 106.412 81.3942 106.009C81.3942 105.701 81.2989 105.455 81.1082 105.272C80.9249 105.089 80.6976 104.949 80.4262 104.854C80.1549 104.751 79.7772 104.641 79.2932 104.524C78.7139 104.377 78.2519 104.238 77.9072 104.106C77.5626 103.967 77.2656 103.758 77.0162 103.479C76.7742 103.2 76.6532 102.823 76.6532 102.346C76.6532 101.957 76.7559 101.605 76.9612 101.29C77.1666 100.967 77.4819 100.711 77.9072 100.52C78.3326 100.329 78.8606 100.234 79.4912 100.234C79.9312 100.234 80.3602 100.296 80.7782 100.421C81.2036 100.538 81.5702 100.703 81.8782 100.916L81.6032 101.565C81.2806 101.352 80.9359 101.195 80.5692 101.092C80.2026 100.982 79.8432 100.927 79.4912 100.927C78.8166 100.927 78.3069 101.059 77.9622 101.323C77.6249 101.58 77.4562 101.913 77.4562 102.324C77.4562 102.632 77.5479 102.881 77.7312 103.072C77.9219 103.255 78.1566 103.398 78.4352 103.501C78.7212 103.596 79.1026 103.703 79.5792 103.82C80.1439 103.959 80.5986 104.099 80.9432 104.238C81.2952 104.37 81.5922 104.575 81.8342 104.854C82.0762 105.125 82.1972 105.496 82.1972 105.965C82.1972 106.354 82.0909 106.709 81.8782 107.032C81.6729 107.347 81.3539 107.6 80.9212 107.791C80.4886 107.974 79.9569 108.066 79.3262 108.066ZM87.3368 108.066C86.5741 108.066 85.8811 107.897 85.2578 107.56C84.6418 107.215 84.1578 106.746 83.8058 106.152C83.4611 105.558 83.2888 104.891 83.2888 104.15C83.2888 103.409 83.4611 102.742 83.8058 102.148C84.1578 101.554 84.6418 101.088 85.2578 100.751C85.8811 100.406 86.5741 100.234 87.3368 100.234C88.0995 100.234 88.7851 100.403 89.3938 100.74C90.0098 101.077 90.4938 101.547 90.8458 102.148C91.1978 102.742 91.3738 103.409 91.3738 104.15C91.3738 104.891 91.1978 105.562 90.8458 106.163C90.4938 106.757 90.0098 107.223 89.3938 107.56C88.7851 107.897 88.0995 108.066 87.3368 108.066ZM87.3368 107.34C87.9455 107.34 88.4955 107.204 88.9868 106.933C89.4781 106.654 89.8631 106.273 90.1418 105.789C90.4205 105.298 90.5598 104.751 90.5598 104.15C90.5598 103.549 90.4205 103.006 90.1418 102.522C89.8631 102.031 89.4781 101.649 88.9868 101.378C88.4955 101.099 87.9455 100.96 87.3368 100.96C86.7281 100.96 86.1745 101.099 85.6758 101.378C85.1845 101.649 84.7958 102.031 84.5098 102.522C84.2311 103.006 84.0918 103.549 84.0918 104.15C84.0918 104.751 84.2311 105.298 84.5098 105.789C84.7958 106.273 85.1845 106.654 85.6758 106.933C86.1745 107.204 86.7281 107.34 87.3368 107.34ZM93.1983 100.3H94.0123V107.296H98.3243V108H93.1983V100.3ZM104.526 105.943H100.236L99.3124 108H98.4654L101.985 100.3H102.788L106.308 108H105.45L104.526 105.943ZM104.229 105.283L102.381 101.147L100.533 105.283H104.229ZM114.017 100.3V108H113.346L108.396 101.752V108H107.582V100.3H108.253L113.214 106.548V100.3H114.017ZM121.359 105.943H117.069L116.145 108H115.298L118.818 100.3H119.621L123.141 108H122.283L121.359 105.943ZM121.062 105.283L119.214 101.147L117.366 105.283H121.062Z" fill="#CFCFCF"/>
<line x1="2" y1="94.5001" x2="124" y2="94.5001" stroke="#CFCFCF"/>
<defs>
<linearGradient id="paint0_linear_1445_1131" x1="155.5" y1="57.9999" x2="127.5" y2="81.9999" gradientUnits="userSpaceOnUse">
<stop stop-color="#5A7683"/>
<stop offset="0.848958" stop-color="#3C5A68"/>
</linearGradient>
<linearGradient id="paint1_linear_1445_1131" x1="53.5" y1="11" x2="122.5" y2="74.9999" gradientUnits="userSpaceOnUse">
<stop stop-color="#5A7683"/>
<stop offset="1" stop-color="#789EB0"/>
</linearGradient>
<linearGradient id="paint2_linear_1445_1131" x1="56.9065" y1="2" x2="56.9065" y2="87.2621" gradientUnits="userSpaceOnUse">
<stop stop-color="#5A7683"/>
<stop offset="1" stop-color="#314D5B"/>
</linearGradient>
</defs>
</svg>
