<svg width="169" height="118" viewBox="0 0 169 118" fill="none" xmlns="http://www.w3.org/2000/svg">
<path d="M5.287 93.1701C4.369 93.1701 3.47933 93.0397 2.618 92.7791C1.768 92.5184 1.09367 92.1727 0.595 91.7421L1.36 90.0251C1.84733 90.4104 2.44233 90.7277 3.145 90.9771C3.859 91.2151 4.573 91.3341 5.287 91.3341C6.171 91.3341 6.82833 91.1924 7.259 90.9091C7.701 90.6257 7.922 90.2517 7.922 89.7871C7.922 89.4471 7.79733 89.1694 7.548 88.9541C7.31 88.7274 7.004 88.5517 6.63 88.4271C6.256 88.3024 5.746 88.1607 5.1 88.0021C4.19333 87.7867 3.45667 87.5714 2.89 87.3561C2.33467 87.1407 1.853 86.8064 1.445 86.3531C1.04833 85.8884 0.85 85.2651 0.85 84.4831C0.85 83.8257 1.02567 83.2307 1.377 82.6981C1.73967 82.1541 2.278 81.7234 2.992 81.4061C3.71733 81.0887 4.60133 80.9301 5.644 80.9301C6.36933 80.9301 7.08333 81.0207 7.786 81.2021C8.48867 81.3834 9.095 81.6441 9.605 81.9841L8.908 83.7011C8.38667 83.3951 7.84267 83.1627 7.276 83.0041C6.70933 82.8454 6.15967 82.7661 5.627 82.7661C4.75433 82.7661 4.10267 82.9134 3.672 83.2081C3.25267 83.5027 3.043 83.8937 3.043 84.3811C3.043 84.7211 3.162 84.9987 3.4 85.2141C3.64933 85.4294 3.961 85.5994 4.335 85.7241C4.709 85.8487 5.219 85.9904 5.865 86.1491C6.749 86.3531 7.47433 86.5684 8.041 86.7951C8.60767 87.0104 9.08933 87.3447 9.486 87.7981C9.894 88.2514 10.098 88.8634 10.098 89.6341C10.098 90.2914 9.91667 90.8864 9.554 91.4191C9.20267 91.9517 8.66433 92.3767 7.939 92.6941C7.21367 93.0114 6.32967 93.1701 5.287 93.1701ZM14.5374 82.9701H10.5934V81.1001H20.6914V82.9701H16.7474V93.0001H14.5374V82.9701ZM29.4703 90.2461H23.5203L22.3473 93.0001H20.0693L25.4243 81.1001H27.6003L32.9723 93.0001H30.6603L29.4703 90.2461ZM28.7393 88.5121L26.4953 83.3101L24.2683 88.5121H28.7393ZM38.5827 88.0191L36.6957 89.9571V93.0001H34.4857V81.1001H36.6957V87.2031L42.5777 81.1001H45.0597L40.0617 86.4211L45.3657 93.0001H42.7817L38.5827 88.0191ZM46.8705 81.1001H49.0805V93.0001H46.8705V81.1001ZM62.8732 81.1001V93.0001H61.0542L54.4922 84.9421V93.0001H52.2992V81.1001H54.1182L60.6802 89.1581V81.1001H62.8732ZM74.1879 86.9141H76.2789V91.6571C75.6669 92.1444 74.9529 92.5184 74.1369 92.7791C73.3209 93.0397 72.4822 93.1701 71.6209 93.1701C70.4082 93.1701 69.3145 92.9094 68.3399 92.3881C67.3652 91.8554 66.6002 91.1244 66.0449 90.1951C65.4895 89.2657 65.2119 88.2174 65.2119 87.0501C65.2119 85.8827 65.4895 84.8344 66.0449 83.9051C66.6002 82.9757 67.3652 82.2504 68.3399 81.7291C69.3259 81.1964 70.4309 80.9301 71.6549 80.9301C72.6522 80.9301 73.5589 81.0944 74.3749 81.4231C75.1909 81.7517 75.8765 82.2334 76.4319 82.8681L75.0379 84.2281C74.1312 83.3214 73.0375 82.8681 71.7569 82.8681C70.9182 82.8681 70.1702 83.0437 69.5129 83.3951C68.8669 83.7464 68.3569 84.2394 67.9829 84.8741C67.6202 85.5087 67.4389 86.2341 67.4389 87.0501C67.4389 87.8434 67.6202 88.5574 67.9829 89.1921C68.3569 89.8267 68.8669 90.3254 69.5129 90.6881C70.1702 91.0507 70.9125 91.2321 71.7399 91.2321C72.6692 91.2321 73.4852 91.0281 74.1879 90.6201V86.9141ZM79.8357 93.1191C79.4504 93.1191 79.1217 92.9887 78.8497 92.7281C78.5777 92.4561 78.4417 92.1161 78.4417 91.7081C78.4417 91.2887 78.5721 90.9487 78.8327 90.6881C79.1047 90.4274 79.4391 90.2971 79.8357 90.2971C80.2324 90.2971 80.5611 90.4274 80.8217 90.6881C81.0937 90.9487 81.2297 91.2887 81.2297 91.7081C81.2297 92.1161 81.0937 92.4561 80.8217 92.7281C80.5497 92.9887 80.2211 93.1191 79.8357 93.1191ZM87.6071 88.0191L85.7201 89.9571V93.0001H83.5101V81.1001H85.7201V87.2031L91.6021 81.1001H94.0841L89.0861 86.4211L94.3901 93.0001H91.8061L87.6071 88.0191ZM95.8949 81.1001H98.1049V93.0001H95.8949V81.1001ZM118.632 81.1001L114.688 93.0001H112.342L109.401 84.1941L106.409 93.0001H104.046L100.102 81.1001H102.397L105.355 90.1441L108.432 81.1001H110.472L113.481 90.1951L116.524 81.1001H118.632ZM120.432 81.1001H122.642V93.0001H120.432V81.1001Z" fill="#FFCD29"/>
<path d="M5.377 113.066C4.805 113.066 4.255 112.974 3.727 112.791C3.20633 112.608 2.803 112.366 2.517 112.065L2.836 111.438C3.11467 111.717 3.485 111.944 3.947 112.12C4.409 112.289 4.88567 112.373 5.377 112.373C6.06633 112.373 6.58333 112.248 6.928 111.999C7.27267 111.742 7.445 111.412 7.445 111.009C7.445 110.701 7.34967 110.455 7.159 110.272C6.97567 110.089 6.74833 109.949 6.477 109.854C6.20567 109.751 5.828 109.641 5.344 109.524C4.76467 109.377 4.30267 109.238 3.958 109.106C3.61333 108.967 3.31633 108.758 3.067 108.479C2.825 108.2 2.704 107.823 2.704 107.346C2.704 106.957 2.80667 106.605 3.012 106.29C3.21733 105.967 3.53267 105.711 3.958 105.52C4.38333 105.329 4.91133 105.234 5.542 105.234C5.982 105.234 6.411 105.296 6.829 105.421C7.25433 105.538 7.621 105.703 7.929 105.916L7.654 106.565C7.33133 106.352 6.98667 106.195 6.62 106.092C6.25333 105.982 5.894 105.927 5.542 105.927C4.86733 105.927 4.35767 106.059 4.013 106.323C3.67567 106.58 3.507 106.913 3.507 107.324C3.507 107.632 3.59867 107.881 3.782 108.072C3.97267 108.255 4.20733 108.398 4.486 108.501C4.772 108.596 5.15333 108.703 5.63 108.82C6.19467 108.959 6.64933 109.099 6.994 109.238C7.346 109.37 7.643 109.575 7.885 109.854C8.127 110.125 8.248 110.496 8.248 110.965C8.248 111.354 8.14167 111.709 7.929 112.032C7.72367 112.347 7.40467 112.6 6.972 112.791C6.53933 112.974 6.00767 113.066 5.377 113.066ZM11.4102 106.004H8.70416V105.3H14.9302V106.004H12.2242V113H11.4102V106.004ZM20.6728 110.943H16.3828L15.4588 113H14.6118L18.1318 105.3H18.9348L22.4548 113H21.5968L20.6728 110.943ZM20.3758 110.283L18.5278 106.147L16.6798 110.283H20.3758ZM26.1156 109.381L24.5426 110.976V113H23.7286V105.3H24.5426V109.953L29.0636 105.3H29.9986L26.6656 108.787L30.2296 113H29.2616L26.1156 109.381ZM36.9939 112.296V113H31.5489V105.3H36.8289V106.004H32.3629V108.743H36.3449V109.436H32.3629V112.296H36.9939ZM44.4262 110.338V113H43.6232V110.338L40.5432 105.3H41.4122L44.0522 109.623L46.6922 105.3H47.5062L44.4262 110.338ZM51.8016 113.066C51.039 113.066 50.346 112.897 49.7226 112.56C49.1066 112.215 48.6226 111.746 48.2706 111.152C47.926 110.558 47.7536 109.891 47.7536 109.15C47.7536 108.409 47.926 107.742 48.2706 107.148C48.6226 106.554 49.1066 106.088 49.7226 105.751C50.346 105.406 51.039 105.234 51.8016 105.234C52.5643 105.234 53.25 105.403 53.8586 105.74C54.4746 106.077 54.9586 106.547 55.3106 107.148C55.6626 107.742 55.8386 108.409 55.8386 109.15C55.8386 109.891 55.6626 110.562 55.3106 111.163C54.9586 111.757 54.4746 112.223 53.8586 112.56C53.25 112.897 52.5643 113.066 51.8016 113.066ZM51.8016 112.34C52.4103 112.34 52.9603 112.204 53.4516 111.933C53.943 111.654 54.328 111.273 54.6066 110.789C54.8853 110.298 55.0246 109.751 55.0246 109.15C55.0246 108.549 54.8853 108.006 54.6066 107.522C54.328 107.031 53.943 106.649 53.4516 106.378C52.9603 106.099 52.4103 105.96 51.8016 105.96C51.193 105.96 50.6393 106.099 50.1406 106.378C49.6493 106.649 49.2606 107.031 48.9746 107.522C48.696 108.006 48.5566 108.549 48.5566 109.15C48.5566 109.751 48.696 110.298 48.9746 110.789C49.2606 111.273 49.6493 111.654 50.1406 111.933C50.6393 112.204 51.193 112.34 51.8016 112.34ZM60.7652 113.066C59.7678 113.066 58.9905 112.78 58.4332 112.208C57.8758 111.636 57.5972 110.804 57.5972 109.711V105.3H58.4112V109.678C58.4112 110.573 58.6128 111.24 59.0162 111.68C59.4195 112.12 60.0025 112.34 60.7652 112.34C61.5352 112.34 62.1218 112.12 62.5252 111.68C62.9285 111.24 63.1302 110.573 63.1302 109.678V105.3H63.9222V109.711C63.9222 110.804 63.6435 111.636 63.0862 112.208C62.5362 112.78 61.7625 113.066 60.7652 113.066ZM71.6331 113L69.8731 110.525C69.6751 110.547 69.4698 110.558 69.2571 110.558H67.1891V113H66.3751V105.3H69.2571C70.2398 105.3 71.0098 105.535 71.5671 106.004C72.1244 106.473 72.4031 107.119 72.4031 107.94C72.4031 108.541 72.2491 109.051 71.9411 109.469C71.6404 109.88 71.2078 110.177 70.6431 110.36L72.5241 113H71.6331ZM69.2351 109.865C69.9978 109.865 70.5808 109.696 70.9841 109.359C71.3874 109.022 71.5891 108.549 71.5891 107.94C71.5891 107.317 71.3874 106.84 70.9841 106.51C70.5808 106.173 69.9978 106.004 69.2351 106.004H67.1891V109.865H69.2351ZM79.3262 113.066C78.7542 113.066 78.2042 112.974 77.6762 112.791C77.1556 112.608 76.7522 112.366 76.4662 112.065L76.7852 111.438C77.0639 111.717 77.4342 111.944 77.8962 112.12C78.3582 112.289 78.8349 112.373 79.3262 112.373C80.0156 112.373 80.5326 112.248 80.8772 111.999C81.2219 111.742 81.3942 111.412 81.3942 111.009C81.3942 110.701 81.2989 110.455 81.1082 110.272C80.9249 110.089 80.6976 109.949 80.4262 109.854C80.1549 109.751 79.7772 109.641 79.2932 109.524C78.7139 109.377 78.2519 109.238 77.9072 109.106C77.5626 108.967 77.2656 108.758 77.0162 108.479C76.7742 108.2 76.6532 107.823 76.6532 107.346C76.6532 106.957 76.7559 106.605 76.9612 106.29C77.1666 105.967 77.4819 105.711 77.9072 105.52C78.3326 105.329 78.8606 105.234 79.4912 105.234C79.9312 105.234 80.3602 105.296 80.7782 105.421C81.2036 105.538 81.5702 105.703 81.8782 105.916L81.6032 106.565C81.2806 106.352 80.9359 106.195 80.5692 106.092C80.2026 105.982 79.8432 105.927 79.4912 105.927C78.8166 105.927 78.3069 106.059 77.9622 106.323C77.6249 106.58 77.4562 106.913 77.4562 107.324C77.4562 107.632 77.5479 107.881 77.7312 108.072C77.9219 108.255 78.1566 108.398 78.4352 108.501C78.7212 108.596 79.1026 108.703 79.5792 108.82C80.1439 108.959 80.5986 109.099 80.9432 109.238C81.2952 109.37 81.5922 109.575 81.8342 109.854C82.0762 110.125 82.1972 110.496 82.1972 110.965C82.1972 111.354 82.0909 111.709 81.8782 112.032C81.6729 112.347 81.3539 112.6 80.9212 112.791C80.4886 112.974 79.9569 113.066 79.3262 113.066ZM87.3368 113.066C86.5741 113.066 85.8811 112.897 85.2578 112.56C84.6418 112.215 84.1578 111.746 83.8058 111.152C83.4611 110.558 83.2888 109.891 83.2888 109.15C83.2888 108.409 83.4611 107.742 83.8058 107.148C84.1578 106.554 84.6418 106.088 85.2578 105.751C85.8811 105.406 86.5741 105.234 87.3368 105.234C88.0995 105.234 88.7851 105.403 89.3938 105.74C90.0098 106.077 90.4938 106.547 90.8458 107.148C91.1978 107.742 91.3738 108.409 91.3738 109.15C91.3738 109.891 91.1978 110.562 90.8458 111.163C90.4938 111.757 90.0098 112.223 89.3938 112.56C88.7851 112.897 88.0995 113.066 87.3368 113.066ZM87.3368 112.34C87.9455 112.34 88.4955 112.204 88.9868 111.933C89.4781 111.654 89.8631 111.273 90.1418 110.789C90.4205 110.298 90.5598 109.751 90.5598 109.15C90.5598 108.549 90.4205 108.006 90.1418 107.522C89.8631 107.031 89.4781 106.649 88.9868 106.378C88.4955 106.099 87.9455 105.96 87.3368 105.96C86.7281 105.96 86.1745 106.099 85.6758 106.378C85.1845 106.649 84.7958 107.031 84.5098 107.522C84.2311 108.006 84.0918 108.549 84.0918 109.15C84.0918 109.751 84.2311 110.298 84.5098 110.789C84.7958 111.273 85.1845 111.654 85.6758 111.933C86.1745 112.204 86.7281 112.34 87.3368 112.34ZM93.1983 105.3H94.0123V112.296H98.3243V113H93.1983V105.3ZM104.526 110.943H100.236L99.3124 113H98.4654L101.985 105.3H102.788L106.308 113H105.45L104.526 110.943ZM104.229 110.283L102.381 106.147L100.533 110.283H104.229ZM114.017 105.3V113H113.346L108.396 106.752V113H107.582V105.3H108.253L113.214 111.548V105.3H114.017ZM121.359 110.943H117.069L116.145 113H115.298L118.818 105.3H119.621L123.141 113H122.283L121.359 110.943ZM121.062 110.283L119.214 106.147L117.366 110.283H121.062Z" fill="#CFCFCF"/>
<line x1="2" y1="99.5001" x2="124" y2="99.5001" stroke="#CFCFCF"/>
<mask id="mask0_1377_883" style="mask-type:alpha" maskUnits="userSpaceOnUse" x="17" y="0" width="152" height="118">
<path d="M110.5 68.0001H22L17.5 53.5001L22 31.5L51 7.5L88 0L123.5 18C131.5 24.8333 140.7 36 145.5 40C150.3 44 152 57.1667 152 66.5C153 75.1667 167.6 98.0001 168 100C168.4 102 163.833 108.167 164.5 117.5H150L121.5 77.0001H118L110.5 68.0001Z" fill="#FF6B48"/>
</mask>
<g mask="url(#mask0_1377_883)">
<g filter="url(#filter0_d_1377_883)">
<g filter="url(#filter1_d_1377_883)">
<path d="M64.0638 100.601L63.6892 100.698C63.5294 100.74 63.3606 100.785 63.1835 100.833L63.051 100.351C62.735 100.438 62.3933 100.537 62.0302 100.648L62.1766 101.126C61.8593 101.223 61.5256 101.33 61.1786 101.447L61.0187 100.973C60.6953 101.083 60.3605 101.201 60.0168 101.328L60.1905 101.797C59.8718 101.915 59.5455 102.041 59.2136 102.175L59.0258 101.712C58.7044 101.842 58.3776 101.98 58.0473 102.126L58.2497 102.584C58.0915 102.654 57.9326 102.726 57.7731 102.799C57.6298 102.866 57.4996 102.951 57.3847 103.051L57.0558 102.675C56.7492 102.942 56.5253 103.293 56.4113 103.684L56.8912 103.824C56.8484 103.97 56.8259 104.124 56.8259 104.282V104.282C56.8259 104.44 56.8486 104.594 56.8915 104.741L56.4116 104.881C56.5258 105.271 56.7498 105.622 57.0563 105.89L57.3852 105.513C57.5002 105.613 57.6304 105.699 57.7735 105.765L57.7736 105.765C57.9356 105.84 58.0955 105.916 58.2533 105.993L58.0346 106.442C58.3527 106.597 58.6619 106.755 58.962 106.917L59.1992 106.477C59.5174 106.648 59.826 106.824 60.125 107.003L59.8676 107.432C60.1714 107.614 60.4646 107.801 60.747 107.991L61.0264 107.576C61.3282 107.78 61.6185 107.988 61.8972 108.2L61.5939 108.598C61.8758 108.813 62.1449 109.032 62.4011 109.256L62.7302 108.88C63.0061 109.121 63.2683 109.367 63.5162 109.619L63.1598 109.97C63.4082 110.223 63.6413 110.48 63.8589 110.742L64.2437 110.423C64.3604 110.564 64.4729 110.706 64.5812 110.85L64.5813 110.85C64.658 110.952 64.7454 111.043 64.8413 111.123L64.5217 111.507C64.7756 111.718 65.0753 111.868 65.3967 111.943L65.5113 111.457C65.6327 111.485 65.7582 111.5 65.8856 111.5H66.402V112H67.4347V111.5H68.4675V112H69.5002V111.5H70.533V112H71.5658V111.5H72.5985V112H73.6313V111.5H74.664V112H75.6968V111.5H76.7295V112H77.7623V111.5H78.7951V112H79.8278V111.5H80.8606V112H81.8933V111.5H82.9261V112H83.9588V111.5H84.9916V112H86.0244V111.5H87.0571V112H88.0899V111.5H88.6062C88.7598 111.5 88.91 111.478 89.0532 111.438L89.19 111.919C89.5713 111.81 89.9155 111.597 90.1826 111.304L89.8132 110.967C89.9135 110.858 89.9997 110.733 90.0681 110.595L90.0683 110.595C90.1368 110.458 90.1846 110.314 90.212 110.167L90.7034 110.26C90.7766 109.87 90.7395 109.467 90.5966 109.097L90.1302 109.277C90.0765 109.138 90.0033 109.006 89.9108 108.883L89.9108 108.883C89.8087 108.748 89.7044 108.614 89.5979 108.483L89.9865 108.168C89.7656 107.895 89.5361 107.63 89.2989 107.374L88.9317 107.713C88.7007 107.463 88.462 107.221 88.2166 106.986L88.5625 106.625C88.309 106.382 88.049 106.147 87.7835 105.92L87.4585 106.3C87.1985 106.078 86.9328 105.863 86.6626 105.655L86.9674 105.259C86.6887 105.044 86.4056 104.838 86.1192 104.639L85.8337 105.049C85.551 104.852 85.2648 104.663 84.9763 104.481L85.2433 104.058C84.9452 103.87 84.6449 103.689 84.3437 103.516L84.0942 103.949C83.7938 103.776 83.4922 103.611 83.1907 103.452L83.4235 103.01C83.1099 102.845 82.7967 102.687 82.4852 102.537L82.2683 102.988C81.953 102.836 81.6394 102.692 81.3291 102.555L81.5309 102.097C81.204 101.953 80.8809 101.817 80.5631 101.689L80.3758 102.152C80.0476 102.02 79.7251 101.895 79.4104 101.779L79.5836 101.31C79.2432 101.184 78.9117 101.068 78.5916 100.96L78.432 101.434C78.0888 101.318 77.7587 101.213 77.4449 101.117L77.5909 100.639C77.2319 100.529 76.8938 100.432 76.5811 100.346L76.449 100.829C76.2748 100.781 76.1086 100.737 75.9513 100.696L75.5761 100.6V100.212V99.7086H76.0761V98.7016H75.5761V97.6946H76.0761V96.6876H75.5761V95.6806H76.0761V94.6736H75.5761V93.6666H76.0761V92.6596H75.5761V91.6526H76.0761V90.6456H75.5761V89.6386H76.0761V88.6316H75.5761V88.1281C75.5761 88.0184 75.5653 87.9116 75.545 87.8087L76.0355 87.7117C75.9801 87.4317 75.87 87.1715 75.7167 86.9425L75.3012 87.2207C75.1818 87.0423 75.0281 86.8886 74.8497 86.7692L75.1279 86.3537C74.8989 86.2004 74.6387 86.0903 74.3587 86.0349L74.2617 86.5254C74.1588 86.5051 74.052 86.4943 73.9423 86.4943H73.427V85.9943H72.3964V86.4943H71.3658V85.9943H70.3352V86.4943H69.3047V85.9943H68.2741V86.4943H67.2435V85.9943H66.2129V86.4943H65.6977C65.5879 86.4943 65.4811 86.5051 65.3782 86.5254L65.2812 86.0349C65.0012 86.0903 64.7409 86.2004 64.512 86.3536L64.7901 86.7692C64.6118 86.8886 64.4581 87.0422 64.3387 87.2206L63.9232 86.9425C63.7699 87.1714 63.6598 87.4317 63.6044 87.7117L64.0949 87.8087C64.0746 87.9116 64.0638 88.0184 64.0638 88.1281V88.6317H63.5638V89.6389H64.0638V90.6461H63.5638V91.6533H64.0638V92.6605H63.5638V93.6677H64.0638V94.6749H63.5638V95.6821H64.0638V96.6892H63.5638V97.6964H64.0638V98.7036H63.5638V99.7108H64.0638V100.214V100.601Z" fill="#455A64" stroke="white" stroke-dasharray="1 1"/>
<path d="M60.0314 78.8046C59.7988 78.9699 59.6066 79.1771 59.4606 79.4107L59.8847 79.6756C59.771 79.8577 59.6939 80.0608 59.6581 80.2725L59.1651 80.1892C59.1193 80.4609 59.1256 80.7434 59.19 81.0214L59.6771 80.9086C59.7008 81.0108 59.7348 81.1125 59.7798 81.2126L59.7799 81.2129L59.993 81.6869L59.537 81.8919L59.9632 82.8401L60.4192 82.6351L60.8454 83.5832L60.3893 83.7882L60.8155 84.7364L61.2716 84.5314L61.6977 85.4795L61.2417 85.6845L61.6679 86.6327L62.1239 86.4277L62.5501 87.3758L62.094 87.5808L62.5202 88.529L62.9763 88.324L63.1893 88.798C63.2547 88.9434 63.3395 89.0757 63.4399 89.1925L63.0606 89.5183C63.3284 89.8301 63.6812 90.0583 64.0752 90.1747L64.2169 89.6952C64.3646 89.7388 64.5201 89.7619 64.6794 89.7619H65.1355V90.2619H66.0477V89.7619H66.9599V90.2619H67.8721V89.7619H68.7843V90.2619H69.6966V89.7619H70.6088V90.2619H71.521V89.7619H72.4332V90.2619H73.3454V89.7619H73.8015C73.8953 89.7619 73.9884 89.7539 74.0798 89.7381L74.165 90.2308C74.4056 90.1892 74.6373 90.1066 74.8499 89.9866L74.6042 89.5512C74.685 89.5056 74.7622 89.4529 74.8349 89.3936C74.9522 89.2978 75.072 89.1915 75.1942 89.0751L75.5392 89.437C75.7734 89.2136 76.0108 88.9599 76.2501 88.6798L75.87 88.355C76.0757 88.1143 76.2842 87.8519 76.4949 87.5699L76.8954 87.8693C77.0956 87.6013 77.2966 87.3178 77.4978 87.021L77.0839 86.7405C77.2693 86.4669 77.4553 86.1811 77.6413 85.8849L78.0647 86.1509C78.2455 85.863 78.426 85.5661 78.6058 85.2618L78.1753 85.0075C78.3466 84.7175 78.5173 84.4203 78.6872 84.1175L79.1233 84.3622C79.2911 84.063 79.4579 83.7587 79.6233 83.4506L79.1828 83.2141C79.3443 82.9132 79.5046 82.6084 79.6634 82.3012L80.1076 82.5306C80.2661 82.2237 80.423 81.9144 80.5779 81.6041L80.1305 81.3808C80.2844 81.0724 80.4364 80.7629 80.5862 80.4535L81.0362 80.6713C81.1878 80.3581 81.3369 80.0452 81.4834 79.7339L81.031 79.5211C81.1792 79.206 81.3246 78.8926 81.4669 78.582L81.9215 78.7903C82.0678 78.4711 82.2108 78.1549 82.3502 77.8434L81.8937 77.6392C82.0371 77.3188 82.1765 77.0033 82.3116 76.6942L82.7697 76.8944C82.9125 76.5678 83.0505 76.2484 83.1831 75.9382L82.7233 75.7416C82.8637 75.4134 82.998 75.0954 83.1258 74.7901L83.587 74.983C83.7278 74.6465 83.8607 74.3251 83.9848 74.0221L83.522 73.8327C83.6635 73.4872 83.7935 73.1656 83.9109 72.8725L84.375 73.0583C84.5236 72.6873 84.6521 72.3615 84.758 72.0902L84.2922 71.9083C84.3646 71.723 84.4263 71.5633 84.4768 71.4321L60.0314 78.8046ZM60.0314 78.8046L60.321 79.2122C60.4065 79.1514 60.4995 79.0979 60.5996 79.0529C60.6997 79.0079 60.8014 78.974 60.9036 78.9505L60.7911 78.4633C61.0692 78.3991 61.3517 78.3928 61.6233 78.4387L61.5401 78.9317C61.7518 78.9675 61.9549 79.0446 62.137 79.1583L62.4019 78.7342C62.6355 78.8802 62.8427 79.0724 63.0079 79.3051L62.6003 79.5946C62.661 79.6801 62.7146 79.7731 62.7596 79.8732L62.7623 79.8793L62.7624 79.8793L62.7628 79.8803L63.2161 79.6692L63.217 79.6711L62.7637 79.8822L62.7641 79.8831L62.972 80.3296L63.4216 80.1285L63.8924 79.9179L63.6883 79.4615L64.6299 79.0403L64.834 79.4968L65.7757 79.0756L65.5716 78.6192L66.5132 78.198L66.7174 78.6544L67.659 78.2333L67.4549 77.7768L68.3965 77.3557L68.6007 77.8121L69.5423 77.391L69.3382 76.9345L70.2799 76.5134L70.484 76.9698L71.4256 76.5486L71.2215 76.0922L72.1632 75.671L72.3673 76.1275L73.309 75.7063L73.1048 75.2499L74.0465 74.8287L74.2506 75.2852L75.1923 74.864L74.9881 74.4076L75.9298 73.9864L76.1339 74.4428L77.0756 74.0217L76.8715 73.5652L77.8131 73.1441L78.0172 73.6005L78.9589 73.1793L78.7548 72.7229L79.6964 72.3018L79.9006 72.7582L80.3714 72.5476L80.5555 72.4653L80.631 72.2782C80.6981 72.1118 80.7654 71.9441 80.8328 71.775L80.3684 71.5897C80.4999 71.26 80.632 70.9252 80.7648 70.5844L81.2307 70.766C81.2958 70.5988 81.3611 70.4302 81.4266 70.2602L81.4267 70.26C81.4661 70.1575 81.5144 70.0617 81.5704 69.9728L81.1473 69.7064C81.2994 69.4649 81.4955 69.2614 81.7206 69.1025L82.0089 69.5111C82.1843 69.3873 82.3828 69.2989 82.5921 69.2515L82.4814 68.7638C82.7501 68.7029 83.0326 68.6936 83.3138 68.7426L83.228 69.2352C83.3312 69.2532 83.4346 69.2815 83.5371 69.321L83.5377 69.3213C83.6402 69.3606 83.7359 69.4089 83.8246 69.4648L84.0911 69.0418C84.3325 69.1938 84.5359 69.39 84.6947 69.6152L84.286 69.9032C84.4096 70.0787 84.498 70.2772 84.5455 70.4866L85.0331 70.3759C85.0941 70.6446 85.1036 70.927 85.0549 71.2081M60.0314 78.8046L85.0549 71.2081M85.0549 71.2081L84.5622 71.1228C84.5443 71.2261 84.5161 71.3296 84.4768 71.432L85.0549 71.2081Z" fill="#455A64" stroke="white" stroke-dasharray="1 1"/>
<path d="M122.847 53.1809L122.847 53.1811C122.733 53.7189 122.898 54.2776 123.284 54.6673L123.285 54.6677C129.388 60.8316 136.25 71.3651 143.139 85.0966L142.692 85.3208L143.139 85.0966C148.38 95.5433 151.815 104.222 151.852 104.316L151.852 104.316C152.102 104.95 152.712 105.35 153.371 105.35C153.483 105.35 153.598 105.339 153.712 105.314L153.712 105.314C154.493 105.148 155.039 104.442 155.004 103.644C153.546 70.675 133.75 47.51 132.924 46.5588C132.59 46.1736 132.091 45.9669 131.58 45.9997C131.069 46.0344 130.605 46.3057 130.324 46.7332L129.906 46.4589L130.324 46.7332C128.751 49.1313 126.511 50.9529 123.849 51.9976C123.337 52.1985 122.961 52.6432 122.847 53.1809Z" fill="url(#paint0_linear_1377_883)" stroke="white"/>
<path d="M26.2157 110.26C26.1426 109.87 26.1797 109.467 26.3226 109.097L26.789 109.277C26.8426 109.139 26.9157 109.006 27.0081 108.883C27.1102 108.748 27.2146 108.614 27.321 108.483L26.9324 108.168C27.1533 107.895 27.3829 107.63 27.62 107.374L27.9872 107.713C28.2182 107.463 28.4569 107.221 28.7023 106.986L28.3564 106.625C28.6098 106.382 28.8699 106.147 29.1354 105.92L29.4604 106.3C29.7204 106.078 29.986 105.863 30.2563 105.655L29.9515 105.259C30.2302 105.044 30.5133 104.838 30.7997 104.639L31.0851 105.049C31.3679 104.853 31.6541 104.663 31.9426 104.481L31.6756 104.058C31.9737 103.87 32.274 103.689 32.5752 103.516L32.8247 103.949C33.1251 103.776 33.4267 103.611 33.7282 103.452L33.4954 103.01C33.809 102.845 34.1223 102.687 34.4337 102.537L34.6506 102.988C34.9659 102.836 35.2795 102.692 35.5898 102.555L35.388 102.097C35.7149 101.953 36.0381 101.817 36.3559 101.689L36.5431 102.152C36.8713 102.02 37.1938 101.895 37.5086 101.779L37.3353 101.31C37.6757 101.184 38.0072 101.068 38.3273 100.96L38.4869 101.434C38.8302 101.318 39.1602 101.213 39.474 101.117L39.3281 100.639C39.6871 100.529 40.0251 100.432 40.3378 100.347L40.4699 100.829C40.6441 100.781 40.8103 100.737 40.9677 100.696L41.3429 100.6V100.212V99.7088H40.8429V98.7018H41.3429V97.6948H40.8429V96.6878H41.3429V95.6808H40.8429V94.6738H41.3429V93.6668H40.8429V92.6598H41.3429V91.6528H40.8429V90.6458H41.3429V89.6388H40.8429V88.6318H41.3429V88.1283C41.3429 88.0185 41.3536 87.9117 41.374 87.8088L40.8835 87.7118C40.9388 87.4318 41.049 87.1716 41.2022 86.9426L41.6177 87.2207C41.7371 87.0424 41.8908 86.8887 42.0692 86.7693L41.791 86.3538C42.02 86.2005 42.2803 86.0904 42.5602 86.035L42.6572 86.5255C42.7601 86.5052 42.8669 86.4944 42.9767 86.4944H43.492V85.9944H44.5225V86.4944H45.5531V85.9944H46.5836V86.4944H47.6141V85.9944H48.6447V86.4944H49.6752V85.9944H50.7058V86.4944H51.221C51.3308 86.4944 51.4376 86.5052 51.5405 86.5255L51.6375 86.035C51.9175 86.0904 52.1778 86.2005 52.4067 86.3538L52.1286 86.7693C52.3069 86.8887 52.4606 87.0424 52.58 87.2207L52.9955 86.9426C53.1488 87.1716 53.2589 87.4318 53.3143 87.7118L52.8238 87.8088C52.8441 87.9117 52.8549 88.0185 52.8549 88.1283V88.6318H53.3549V89.6388H52.8549V90.6458H53.3549V91.6528H52.8549V92.6598H53.3549V93.6668H52.8549V94.6738H53.3549V95.6808H52.8549V96.6878H53.3549V97.6948H52.8549V98.7018H53.3549V99.7088H52.8549V100.212V100.6L53.23 100.696C53.3874 100.737 53.5536 100.781 53.7278 100.829L53.8599 100.347C54.1726 100.432 54.5106 100.529 54.8697 100.639L54.7237 101.117C55.0375 101.213 55.3676 101.318 55.7108 101.434L55.8704 100.96C56.1905 101.068 56.522 101.184 56.8624 101.31L56.6892 101.779C57.0039 101.896 57.3264 102.02 57.6546 102.152L57.8419 101.689C58.1597 101.817 58.4828 101.953 58.8097 102.097L58.6079 102.555C58.9182 102.692 59.2318 102.836 59.5471 102.988L59.764 102.537C60.0755 102.687 60.3887 102.845 60.7023 103.01L60.4695 103.452C60.771 103.611 61.0726 103.776 61.373 103.949L61.6225 103.516C61.9237 103.689 62.224 103.87 62.5221 104.058L62.2551 104.481C62.5436 104.663 62.8298 104.853 63.1126 105.049L63.398 104.639C63.6844 104.838 63.9675 105.044 64.2462 105.259L63.9414 105.655C64.2117 105.863 64.4773 106.078 64.7374 106.3L65.0623 105.92C65.3278 106.147 65.5879 106.382 65.8413 106.625L65.4955 106.986C65.7408 107.221 65.9795 107.463 66.2105 107.713L66.5777 107.374C66.8149 107.631 67.0444 107.895 67.2654 108.168L66.8767 108.483C66.9832 108.614 67.0875 108.748 67.1896 108.883L67.1897 108.883C67.2821 109.006 67.3553 109.139 67.409 109.277L67.8754 109.097C68.0183 109.467 68.0554 109.87 67.9823 110.26L67.4908 110.167C67.4634 110.314 67.4156 110.458 67.3471 110.595L67.347 110.595C67.2785 110.733 67.1923 110.858 67.092 110.968L67.4614 111.304C67.1942 111.597 66.85 111.81 66.4687 111.919L66.332 111.438C66.1888 111.479 66.0387 111.5 65.8851 111.5H65.3907V112H64.4019V111.5H63.4132V112H62.4245V111.5H61.4357V112H60.447V111.5H59.4582V112H58.4695V111.5H57.4808V112H56.492V111.5H55.5033V112H54.5145V111.5H53.5258V112H52.5371V111.5H51.5483V112H50.5596V111.5H49.5708V112H48.5821V111.5H47.5934V112H46.6046V111.5H45.6159V112H44.6271V111.5H43.6384V112H42.6497V111.5H41.6609V112H40.6722V111.5H39.6835V112H38.6947V111.5H37.706V112H36.7172V111.5H35.7285V112H34.7398V111.5H33.751V112H32.7623V111.5H31.7735V112H30.7848V111.5H29.7961V112H28.8073V111.5H28.3129C28.1593 111.5 28.0092 111.479 27.8661 111.438L27.7293 111.919C27.3479 111.81 27.0038 111.597 26.7366 111.304L27.106 110.967C27.0057 110.858 26.9195 110.733 26.851 110.595L26.8509 110.595C26.7823 110.458 26.7346 110.314 26.7071 110.168L26.2157 110.26Z" fill="#455A64" stroke="white" stroke-dasharray="1 1"/>
<path d="M114.7 22.7193L114.437 22.7852L114.239 22.6016C106.116 15.0968 90.5311 3.88593 71.4217 5.69453L71.3746 5.19676L71.4217 5.69453C63.2651 6.46615 54.533 10.1712 46.8466 16.1514C38.887 22.3441 32.6867 30.5611 29.3822 39.2779C26.3799 47.1971 25.7204 55.3028 27.4169 63.3781C29.3093 72.3863 34.1181 81.0894 41.7416 89.244L41.7417 89.2441C42.0504 89.5745 42.4827 89.762 42.9352 89.762H51.0336C51.3277 89.762 51.6166 89.6823 51.8698 89.5318L51.8705 89.5314C51.9711 89.4717 55.2238 87.5094 58.6157 82.6268L58.754 82.4277L58.9961 82.413C69.3951 81.7831 80.6179 76.0307 92.3783 65.1864L92.7173 65.554L92.3783 65.1864C98.5873 59.4615 103.264 53.8318 105.62 50.8166L105.981 50.3541L106.38 50.7845C109.571 54.2246 114.054 56.2135 118.835 56.2135C128.209 56.2135 135.837 48.5858 135.837 39.211C135.837 29.8364 128.209 22.2085 118.835 22.2085C117.437 22.2085 116.051 22.38 114.7 22.7193Z" fill="url(#paint1_linear_1377_883)" stroke="white"/>
<path d="M43.9355 92.2621C43.3446 92.2621 42.78 92.0172 42.3766 91.5854C34.7036 83.378 29.8426 74.5954 27.9279 65.4809C26.2109 57.3094 26.8792 49.1066 29.9145 41.1005C33.254 32.291 39.5133 24.0009 47.5394 17.7566C55.2869 11.7287 64.107 7.97863 72.3744 7.19653C77.4613 6.71519 82.298 7.14645 86.813 8.17946C84.4867 8.52068 82.0322 8.86999 79.4403 9.22816C79.05 9.25396 78.6582 9.28355 78.2649 9.32099C49.8328 12.0108 16.6449 54.4082 52.0334 92.2621H43.9355Z" fill="url(#paint2_linear_1377_883)"/>
</g>
<mask id="path-11-inside-1_1377_883" fill="white">
<path d="M124.496 48.5591C127.253 48.5591 129.495 46.3205 129.495 43.5685C129.495 40.8165 127.253 38.5778 124.496 38.5778C121.739 38.5778 119.495 40.8165 119.495 43.5685C119.496 46.32 121.739 48.5591 124.496 48.5591Z"/>
</mask>
<path d="M124.496 48.5591C127.253 48.5591 129.495 46.3205 129.495 43.5685C129.495 40.8165 127.253 38.5778 124.496 38.5778C121.739 38.5778 119.495 40.8165 119.495 43.5685C119.496 46.32 121.739 48.5591 124.496 48.5591Z" fill="#455A64"/>
<path d="M119.495 43.5685L118.495 43.5688V43.5685H119.495ZM124.496 47.5591C126.702 47.5591 128.495 45.7665 128.495 43.5685H130.495C130.495 46.8745 127.803 49.5591 124.496 49.5591V47.5591ZM128.495 43.5685C128.495 41.3705 126.702 39.5778 124.496 39.5778V37.5778C127.803 37.5778 130.495 40.2625 130.495 43.5685H128.495ZM124.496 39.5778C122.289 39.5778 120.495 41.3706 120.495 43.5685H118.495C118.495 40.2623 121.188 37.5778 124.496 37.5778V39.5778ZM120.495 43.5681C120.496 45.7661 122.29 47.5591 124.496 47.5591V49.5591C121.188 49.5591 118.497 46.8738 118.495 43.5688L120.495 43.5681Z" fill="white" mask="url(#path-11-inside-1_1377_883)"/>
<circle cx="125" cy="44.0001" r="0.5" fill="white" stroke="white"/>
</g>
<g opacity="0.3">
<line x1="26" y1="71.5" x2="97" y2="71.5" stroke="white"/>
<line x1="26" y1="70.5" x2="97" y2="70.5" stroke="black"/>
</g>
</g>
<defs>
<filter id="filter0_d_1377_883" x="22" y="5" width="137.506" height="115" filterUnits="userSpaceOnUse" color-interpolation-filters="sRGB">
<feFlood flood-opacity="0" result="BackgroundImageFix"/>
<feColorMatrix in="SourceAlpha" type="matrix" values="0 0 0 0 0 0 0 0 0 0 0 0 0 0 0 0 0 0 127 0" result="hardAlpha"/>
<feOffset dy="4"/>
<feGaussianBlur stdDeviation="2"/>
<feComposite in2="hardAlpha" operator="out"/>
<feColorMatrix type="matrix" values="0 0 0 0 0 0 0 0 0 0 0 0 0 0 0 0 0 0 0.25 0"/>
<feBlend mode="normal" in2="BackgroundImageFix" result="effect1_dropShadow_1377_883"/>
<feBlend mode="normal" in="SourceGraphic" in2="effect1_dropShadow_1377_883" result="shape"/>
</filter>
<filter id="filter1_d_1377_883" x="22" y="5" width="137.506" height="115" filterUnits="userSpaceOnUse" color-interpolation-filters="sRGB">
<feFlood flood-opacity="0" result="BackgroundImageFix"/>
<feColorMatrix in="SourceAlpha" type="matrix" values="0 0 0 0 0 0 0 0 0 0 0 0 0 0 0 0 0 0 127 0" result="hardAlpha"/>
<feOffset dy="4"/>
<feGaussianBlur stdDeviation="2"/>
<feComposite in2="hardAlpha" operator="out"/>
<feColorMatrix type="matrix" values="0 0 0 0 0 0 0 0 0 0 0 0 0 0 0 0 0 0 0.25 0"/>
<feBlend mode="normal" in2="BackgroundImageFix" result="effect1_dropShadow_1377_883"/>
<feBlend mode="normal" in="SourceGraphic" in2="effect1_dropShadow_1377_883" result="shape"/>
</filter>
<linearGradient id="paint0_linear_1377_883" x1="155.5" y1="62.9999" x2="127.5" y2="86.9999" gradientUnits="userSpaceOnUse">
<stop stop-color="#5A7683"/>
<stop offset="0.848958" stop-color="#3C5A68"/>
</linearGradient>
<linearGradient id="paint1_linear_1377_883" x1="53.5001" y1="16" x2="122.5" y2="79.9999" gradientUnits="userSpaceOnUse">
<stop stop-color="#5A7683"/>
<stop offset="1" stop-color="#789EB0"/>
</linearGradient>
<linearGradient id="paint2_linear_1377_883" x1="56.9065" y1="7" x2="56.9065" y2="92.2621" gradientUnits="userSpaceOnUse">
<stop stop-color="#5A7683"/>
<stop offset="1" stop-color="#314D5B"/>
</linearGradient>
</defs>
</svg>
