<svg width="31" height="37" viewBox="0 0 31 37" fill="none" xmlns="http://www.w3.org/2000/svg">
<path d="M13.119 36.2833C10.3488 36.2833 7.8319 35.8441 5.56842 34.9657C3.33872 34.0536 1.49753 32.736 0.0448456 31.0131L6.48056 23.4118C7.4265 24.5942 8.35554 25.4726 9.26769 26.0469C10.1798 26.6212 11.1258 26.9084 12.1055 26.9084C13.3555 26.9084 14.3014 26.5368 14.9433 25.7935C15.6189 25.0503 15.9568 23.9524 15.9568 22.4997V9.02014H3.89614V0H27.764V21.7902C27.764 26.6212 26.5141 30.2529 24.0141 32.6853C21.5479 35.084 17.9162 36.2833 13.119 36.2833Z" fill="#00A5B9"/>
<path d="M12.3848 13.2249H30.9244V21.4647H12.3848V13.2249Z" fill="#00A5B9"/>
</svg>
