<svg width="156" height="156" viewBox="0 0 156 156" fill="none" xmlns="http://www.w3.org/2000/svg">
<path d="M78 156C121.078 156 156 121.078 156 78C156 34.9218 121.078 0 78 0C34.9218 0 0 34.9218 0 78C0 121.078 34.9218 156 78 156Z" fill="url(#paint0_linear_832_434)"/>
<path d="M81.0421 112.125H78.0856V72.3227C78.0491 66.3734 76.7352 61.957 74.1437 59.0735C71.5888 56.1536 67.5009 54.6937 61.8801 54.6937C55.3832 54.6937 50.0726 57.5588 45.9482 63.2892C43.5028 66.7201 41.8786 70.516 41.0756 74.6769V112.125H38.0645V52.887H41.0756V66.9026C43.0831 62.0847 45.9482 58.3618 49.6711 55.7339C53.394 53.106 57.5184 51.792 62.0443 51.792C67.0082 51.792 71.0596 52.887 74.1985 55.0769C77.3739 57.2668 79.4543 60.8438 80.4398 65.8076C82.1918 61.5372 85.0387 58.1428 88.9806 55.6244C92.9225 53.0695 97.3389 51.792 102.23 51.792C108.617 51.792 113.362 53.5987 116.464 57.2121C119.603 60.8255 121.191 66.2456 121.227 73.4724V112.125H118.271V73.6914C118.271 67.1946 116.957 62.395 114.329 59.2925C111.738 56.1536 107.65 54.6207 102.065 54.6937C94.8752 54.8032 89.1813 57.6683 84.9839 63.2892C82.575 66.5376 81.261 69.6765 81.0421 72.7059V112.125Z" fill="white"/>
<defs>
<linearGradient id="paint0_linear_832_434" x1="78" y1="0" x2="78" y2="156" gradientUnits="userSpaceOnUse">
<stop stop-color="#CC7B51"/>
<stop offset="1" stop-color="#8178E8"/>
</linearGradient>
</defs>
</svg>
