<svg width="84" height="72" viewBox="0 0 84 72" fill="none" xmlns="http://www.w3.org/2000/svg">
<path d="M42.0001 11.3749C50.4001 11.3749 58.1 14.8749 63.7001 20.2999L71.7502 12.2499C64.2251 4.725 53.7251 0 42.0001 0C30.4501 0 19.9501 4.725 12.2501 12.2501L20.3002 20.3001C25.9001 14.7 33.6001 11.3749 42.0001 11.3749Z" fill="#1DE3B0"/>
<path d="M20.2999 20.3L12.2501 12.2499C4.725 19.95 0 30.45 0 42C0 53.55 4.725 64.0501 12.2501 71.75L20.3001 63.6999C14.7002 58.1 11.3751 50.3999 11.3751 41.9999C11.3749 33.6001 14.7 25.8999 20.2999 20.3Z" fill="#088797"/>
<path d="M71.75 12.2499L63.7001 20.3C69.3 25.8999 72.6251 33.6 72.6251 42C72.6251 50.4001 69.1251 58.1 63.7001 63.7001L71.7501 71.7502C79.275 64.2249 84 53.7249 84 42C84 30.45 79.275 19.95 71.75 12.2499Z" fill="#FF7258"/>
<path d="M63.7 20.2999L56.0001 27.9999C52.3251 24.4999 47.425 22.2249 42.0002 22.2249C36.5753 22.2249 31.5001 24.4999 28.0002 27.9999L20.2999 20.2999C25.9 14.7 33.6 11.3749 42 11.3749C50.4 11.3749 58.0999 14.7 63.7 20.2999Z" fill="#00AF82"/>
<path d="M28.0001 56L20.3001 63.6999C14.7002 58.1 11.3751 50.3999 11.3751 41.9999C11.3751 33.5999 14.8751 25.8999 20.3001 20.2998L28.0001 27.9998C24.5001 31.4997 22.2251 36.5748 22.2251 41.9997C22.05 47.4249 24.3251 52.5 28.0001 56Z" fill="#00A5B9"/>
<path d="M72.625 42C72.625 50.4 69.1251 58.1 63.7 63.7001L55.9999 56C59.4999 52.325 61.7749 47.4249 61.7749 42C61.7749 36.5751 59.4999 31.5 55.9999 28.0001L63.6999 20.3001C69.3 25.8999 72.625 33.6 72.625 42Z" fill="#F95D48"/>
<path d="M68.9501 25.3749L46.2 42.6999C45.8501 44.7999 44.1 46.1998 42 46.1998C39.5501 46.1998 37.6249 44.2749 37.6249 41.8248C37.6249 39.3747 39.5499 37.4497 42 37.4497C42.525 37.4497 42.8749 37.4497 43.3999 37.6248L68.9501 25.3749Z" fill="#40596B"/>
<path d="M42 43.7505C42.9665 43.7505 43.75 42.967 43.75 42.0005C43.75 41.034 42.9665 40.2504 42 40.2504C41.0335 40.2504 40.2499 41.034 40.2499 42.0005C40.2499 42.967 41.0335 43.7505 42 43.7505Z" fill="white"/>
</svg>
