<svg width="208" height="208" viewBox="0 0 208 208" fill="none" xmlns="http://www.w3.org/2000/svg">
<path d="M166.677 10.6311L123.276 75.1111C120.275 79.5022 126.047 84.8178 130.202 81.12L172.91 43.9111C174.064 42.9867 175.68 43.68 175.68 45.2978V161.547C175.68 163.164 173.603 163.858 172.679 162.702L43.4007 7.85778C39.2453 2.77333 33.2431 0 26.5483 0H21.9312C9.92675 0 0 9.93778 0 22.1867V185.813C0 198.062 9.92675 208 22.162 208C29.7802 208 36.9367 204.071 41.0921 197.369L84.4928 132.889C87.4939 128.498 81.7225 123.182 77.5671 126.88L34.859 163.858C33.7048 164.782 32.0888 164.089 32.0888 162.471V46.4533C32.0888 44.8356 34.1665 44.1422 35.0899 45.2978L164.368 200.142C168.524 205.227 174.757 208 181.221 208H185.838C198.073 208 208 198.062 208 185.813V22.1867C208 9.93778 198.073 0 185.838 0C177.989 0 170.832 3.92889 166.677 10.6311Z" fill="#404246"/>
</svg>
