<svg width="43" height="41" viewBox="0 0 43 41" fill="none" xmlns="http://www.w3.org/2000/svg">
<path d="M41.0514 0H1.94864C0.871562 0 0 0.854776 0 1.91111V34.4C0 35.4563 0.871562 36.3111 1.94864 36.3111H37.1541C38.2292 36.3111 39.1027 37.1678 39.1027 38.2222C39.1027 39.2786 39.9743 40.1333 41.0514 40.1333C42.1284 40.1333 43 39.2786 43 38.2222V1.91111C43 0.854776 42.1284 0 41.0514 0ZM21.435 28.6667C20.3589 28.6667 19.4864 27.811 19.4864 26.7556C19.4864 25.6999 20.3589 24.8444 21.435 24.8444C22.5112 24.8444 23.3837 25.6999 23.3837 26.7556C23.3837 27.811 22.5112 28.6667 21.435 28.6667ZM24.36 18.3422C23.7586 18.6838 23.3837 19.3202 23.3837 19.9995C23.3837 21.0559 22.5121 21.9106 21.435 21.9106C20.358 21.9106 19.4864 21.0559 19.4864 19.9995C19.4864 17.9596 20.6053 16.0578 22.4074 15.0351C23.0107 14.6935 23.3837 14.059 23.3837 13.3778C23.3837 12.3234 22.5102 11.4667 21.435 11.4667C20.3599 11.4667 19.4864 12.3234 19.4864 13.3778C19.4864 14.4341 18.6148 15.2889 17.5378 15.2889C16.4607 15.2889 15.5891 14.4341 15.5891 13.3778C15.5891 10.2163 18.2115 7.64444 21.435 7.64444C24.6586 7.64444 27.281 10.2163 27.281 13.3778C27.281 15.4177 26.1621 17.3213 24.36 18.3422Z" fill="#FF6B48"/>
</svg>
