<svg width="84" height="72" viewBox="0 0 84 72" fill="none" xmlns="http://www.w3.org/2000/svg">
<path d="M42 11.3749C50.4 11.3749 58.1 14.8749 63.7001 20.2999L71.7501 12.2499C64.2251 4.725 53.7251 0 42 0C30.45 0 19.95 4.725 12.2501 12.2501L20.3001 20.3001C25.9001 14.7 33.6 11.3749 42 11.3749Z" fill="#1DE3B0"/>
<path d="M20.2999 20.3L12.2501 12.2499C4.725 19.95 0 30.45 0 42C0 53.55 4.725 64.0501 12.2501 71.75L20.3001 63.6999C14.7002 58.1 11.3751 50.3999 11.3751 41.9999C11.3749 33.6001 14.7 25.8999 20.2999 20.3Z" fill="#088797"/>
<path d="M71.75 12.2499L63.7001 20.3C69.3 25.8999 72.6251 33.6 72.6251 42C72.6251 50.4001 69.1251 58.1 63.7001 63.7001L71.7501 71.7502C79.275 64.2249 84 53.7249 84 42C84 30.45 79.275 19.95 71.75 12.2499Z" fill="#FF7258"/>
<path d="M42 43.7505C42.9665 43.7505 43.75 42.967 43.75 42.0005C43.75 41.034 42.9665 40.2504 42 40.2504C41.0335 40.2504 40.2499 41.034 40.2499 42.0005C40.2499 42.967 41.0335 43.7505 42 43.7505Z" fill="white"/>
<path d="M43 20L47.9393 35.2016H63.9232L50.992 44.5967L55.9313 59.7984L43 50.4033L30.0687 59.7984L35.008 44.5967L22.0768 35.2016H38.0607L43 20Z" fill="#40596B"/>
</svg>
