<svg width="47" height="47" viewBox="0 0 47 47" fill="none" xmlns="http://www.w3.org/2000/svg">
<g filter="url(#filter0_d_2110_368)">
<circle cx="23.901" cy="23.678" r="9.89273" transform="rotate(151.751 23.901 23.678)" fill="white"/>
<path d="M12.0484 19.3004C10.788 22.6773 11.1858 26.8107 13.0373 29.8665C14.6612 32.5341 16.705 34.2483 19.4662 35.2156C25.9041 37.4919 32.8852 34.2172 35.2765 27.8102C36.5766 24.3005 36.1811 20.4382 34.19 17.1613C32.9334 15.1028 32.1723 14.3397 30.0504 13.0266C26.9959 11.1588 24.0916 10.7322 20.5668 11.6517C16.5333 12.7059 13.4579 15.4764 12.0484 19.3004ZM19.985 19.2236C20.2541 20.2664 20.6142 21.8149 20.7898 22.6651C20.9553 23.5315 21.1298 24.2462 21.1759 24.2747C21.222 24.3033 22.4138 22.4118 23.8208 20.0694L26.3889 15.8164L27.7881 16.6823L29.172 17.5387L28.0961 19.2772C27.5082 20.2616 26.3318 22.1625 25.4819 23.5016C24.6373 24.8664 23.9897 26.016 24.0512 26.0541C24.1228 26.0759 25.7054 25.752 27.5571 25.3026L30.9299 24.4912L29.8499 26.3395L28.7699 28.1877L24.1764 29.3223C21.6381 29.9535 19.5368 30.4283 19.4806 30.416C19.4345 30.3874 18.8911 28.276 18.298 25.7294L17.1923 21.0905L18.3486 19.222L19.5049 17.3536L19.985 19.2236Z" fill="#F40058"/>
</g>
<defs>
<filter id="filter0_d_2110_368" x="7.31824" y="11.1844" width="32.7117" height="32.7537" filterUnits="userSpaceOnUse" color-interpolation-filters="sRGB">
<feFlood flood-opacity="0" result="BackgroundImageFix"/>
<feColorMatrix in="SourceAlpha" type="matrix" values="0 0 0 0 0 0 0 0 0 0 0 0 0 0 0 0 0 0 127 0" result="hardAlpha"/>
<feOffset dy="4"/>
<feGaussianBlur stdDeviation="2"/>
<feComposite in2="hardAlpha" operator="out"/>
<feColorMatrix type="matrix" values="0 0 0 0 0 0 0 0 0 0 0 0 0 0 0 0 0 0 0.25 0"/>
<feBlend mode="normal" in2="BackgroundImageFix" result="effect1_dropShadow_2110_368"/>
<feBlend mode="normal" in="SourceGraphic" in2="effect1_dropShadow_2110_368" result="shape"/>
</filter>
</defs>
</svg>
