<svg width="198" height="198" viewBox="0 0 198 198" fill="none" xmlns="http://www.w3.org/2000/svg">
<path d="M133.971 64.0248C131.171 61.2247 127.44 59.6834 123.465 59.6865C115.41 59.6912 108.616 66.1485 108.618 74.5277C108.62 78.5032 110.162 82.235 112.961 85.0336C118.754 90.8269 128.17 90.8351 133.952 85.0534C139.755 79.2504 139.763 69.8173 133.971 64.0248Z" fill="white"/>
<path d="M198 0.0341797L192.197 0.0395943C150.682 0.0790439 110.008 17.5525 80.5911 47.9867L22.9321 105.645L92.3509 175.063L150.006 117.408C164.513 103.426 176.536 86.1843 184.777 67.5455C200.398 32.2165 197.66 3.66122 198 0.0341797ZM104.771 93.2245C94.4502 82.9026 94.4529 66.1516 104.752 55.8538C115.076 45.5288 131.828 45.5025 142.161 55.8348C152.469 66.1427 152.461 82.9254 142.142 93.2442C131.845 103.541 115.081 103.532 104.771 93.2245Z" fill="white"/>
<path d="M0.245605 189.522L30.3877 159.38L38.5769 167.569L8.43485 197.711L0.245605 189.522Z" fill="white"/>
<path d="M36.2552 186.718L47.053 175.92L55.242 184.109L44.4442 194.907L36.2552 186.718Z" fill="white"/>
<path d="M3.05084 153.517L13.7839 142.784L21.9723 150.972L11.2393 161.705L3.05084 153.517Z" fill="white"/>
<path d="M150.695 139.027L147.732 136.063L100.541 183.255L115.251 197.966L141.398 171.819L150.695 139.027Z" fill="white"/>
<path d="M26.1489 56.5639L0 82.7131L14.7414 97.4557L61.9335 50.2632L58.9701 47.2998L26.1489 56.5639Z" fill="white"/>
<path d="M13.4816 129.192L68.803 184.514L80.1409 179.234L18.7605 117.855L13.4816 129.192Z" fill="white"/>
</svg>
