<svg width="211" height="396" viewBox="0 0 211 396" fill="none" xmlns="http://www.w3.org/2000/svg">
<path d="M88.8968 276.375C88.8968 276.375 122.285 264.653 100.536 198.683C78.7874 132.713 106.614 134.161 119.018 100.793C131.423 67.426 113.106 44.8297 113.106 44.8297" stroke="#263238" stroke-width="3" stroke-linecap="round" stroke-linejoin="round"/>
<path d="M105.394 260.063H8.22809C8.22809 260.063 21.3352 358.801 25.1185 387.372C25.8007 392.561 29.9354 395.124 34.9385 395.124H169.648C174.651 395.124 178.786 392.561 179.468 387.372C183.251 358.801 196.359 260.063 196.359 260.063H105.394Z" fill="#455A64"/>
<path d="M4.63091 251.794H199.956C201.178 251.794 202.351 252.28 203.216 253.144C204.08 254.009 204.566 255.181 204.566 256.404V263.702C204.566 264.925 204.08 266.097 203.216 266.962C202.351 267.826 201.178 268.312 199.956 268.312H4.63091C3.40272 268.312 2.22483 267.824 1.35636 266.956C0.4879 266.087 0 264.909 0 263.681V256.383C0 255.775 0.119797 255.173 0.352521 254.611C0.585246 254.049 0.926344 253.539 1.35636 253.109C1.78638 252.679 2.29689 252.338 2.85873 252.105C3.42058 251.872 4.02278 251.752 4.63091 251.752V251.794Z" fill="#455A64"/>
<path d="M86.8087 300.708H97.1456" stroke="white" stroke-linecap="round" stroke-linejoin="round"/>
<path d="M137.79 323.449C137.794 330.47 135.716 337.335 131.818 343.175C127.92 349.015 122.377 353.568 115.892 356.258C109.406 358.948 102.268 359.654 95.381 358.287C88.4939 356.919 82.1671 353.54 77.2007 348.577C72.2343 343.613 68.8515 337.288 67.4802 330.402C66.1089 323.516 66.8106 316.378 69.4967 309.89C72.1827 303.403 76.7324 297.858 82.5703 293.957C88.4081 290.055 95.2719 287.973 102.293 287.973C111.704 287.973 120.73 291.71 127.386 298.362C134.042 305.015 137.785 314.038 137.79 323.449Z" fill="#F4F4F4" stroke="#455A64" stroke-linecap="round" stroke-linejoin="round"/>
<path d="M131.753 323.449C131.766 329.278 130.048 334.98 126.819 339.833C123.589 344.685 118.992 348.471 113.61 350.71C108.228 352.95 102.303 353.542 96.5841 352.412C90.8654 351.282 85.6103 348.482 81.484 344.364C77.3578 340.246 74.5458 334.997 73.4041 329.281C72.2623 323.564 72.8421 317.638 75.07 312.251C77.2979 306.864 81.0738 302.26 85.9198 299.02C90.7659 295.78 96.4641 294.051 102.293 294.051C110.094 294.056 117.575 297.153 123.097 302.663C128.619 308.174 131.731 315.648 131.753 323.449Z" fill="white" stroke="#455A64" stroke-linecap="round" stroke-linejoin="round"/>
<path d="M97.8692 190.104C97.8692 190.104 104.96 153.366 134.648 150.493C164.335 147.619 167.726 124.361 167.726 124.361" stroke="#263238" stroke-width="3" stroke-linecap="round" stroke-linejoin="round"/>
<path d="M100.888 126.408C100.888 126.408 93.6724 122.935 66.9207 106.644C40.169 90.3531 41.2026 64.3869 41.2026 64.3869" stroke="#263238" stroke-width="3" stroke-linecap="round" stroke-linejoin="round"/>
<path d="M106.614 223.078C106.614 223.078 54.2477 221.011 46.4744 178.051" stroke="#263238" stroke-width="3" stroke-linecap="round" stroke-linejoin="round"/>
<path d="M139.713 30.4714C139.147 35.1066 137.219 39.4698 134.173 43.0092C131.127 46.5487 127.1 49.1054 122.601 50.3561C118.102 51.6068 113.333 51.4952 108.897 50.0356C104.462 48.5759 100.559 45.8336 97.6816 42.1556C94.8045 38.4776 93.0828 34.0291 92.7341 29.3725C92.3853 24.7159 93.4253 20.0605 95.7225 15.995C98.0196 11.9295 101.471 8.6365 105.64 6.53245C109.808 4.42841 114.507 3.60785 119.142 4.17449C125.357 4.93425 131.016 8.13154 134.873 13.0631C138.731 17.9946 140.472 24.2565 139.713 30.4714V30.4714Z" stroke="#263238" stroke-linecap="round" stroke-linejoin="round"/>
<path d="M134.981 30.3811C134.521 34.1256 132.961 37.6496 130.498 40.5069C128.035 43.3643 124.779 45.4264 121.143 46.4323C117.507 47.4381 113.655 47.3424 110.073 46.1572C106.491 44.9721 103.342 42.7508 101.024 39.7747C98.7056 36.7986 97.3225 33.2014 97.0499 29.4388C96.7772 25.6761 97.6272 21.9171 99.4923 18.6378C101.357 15.3585 104.153 12.7065 107.527 11.0174C110.9 9.32826 114.699 8.6781 118.442 9.14924C123.449 9.77405 128.004 12.3613 131.105 16.3424C134.206 20.3235 135.6 25.3728 134.981 30.3811Z" fill="#F4F4F4" stroke="#263238" stroke-linecap="round" stroke-linejoin="round"/>
<path d="M65.4116 45.2225C66.0392 49.8489 65.2811 54.5574 63.233 58.753C61.185 62.9485 57.939 66.4427 53.9055 68.7937C49.8719 71.1448 45.2318 72.2471 40.5718 71.9614C35.9118 71.6757 31.4412 70.0148 27.725 67.1886C24.0088 64.3625 21.214 60.498 19.6938 56.0837C18.1736 51.6694 17.9963 46.9035 19.1844 42.3884C20.3725 37.8734 22.8725 33.812 26.3685 30.7176C29.8644 27.6232 34.1993 25.6347 38.8252 25.0036C41.8987 24.5843 45.0246 24.7748 48.0244 25.5642C51.0242 26.3535 53.839 27.7263 56.3081 29.604C58.7771 31.4817 60.8519 33.8275 62.4139 36.5074C63.976 39.1873 64.9946 42.1488 65.4116 45.2225Z" fill="white"/>
<path d="M65.4116 51.2225C66.0392 55.8489 65.2811 60.5574 63.233 64.753C61.185 68.9485 57.939 72.4427 53.9055 74.7937C49.8719 77.1448 45.2318 78.2471 40.5718 77.9614C35.9118 77.6757 31.4412 76.0148 27.725 73.1886C24.0088 70.3625 21.214 66.498 19.6938 62.0837C18.1736 57.6694 17.9963 52.9035 19.1844 48.3884C20.3725 43.8734 22.8725 39.812 26.3685 36.7176C29.8644 33.6232 34.1993 31.6347 38.8252 31.0036C41.8987 30.5843 45.0246 30.7748 48.0244 31.5642C51.0242 32.3535 53.839 33.7263 56.3081 35.604C58.7771 37.4817 60.8519 39.8275 62.4139 42.5074C63.976 45.1873 64.9946 48.1488 65.4116 51.2225V51.2225Z" stroke="#263238" stroke-linecap="round" stroke-linejoin="round"/>
<path d="M60.946 51.822C61.4375 55.5548 60.8125 59.3495 59.1499 62.7276C57.4873 66.1056 54.8616 68.9157 51.6038 70.8032C48.3461 72.6907 44.6024 73.5712 40.8449 73.3335C37.0874 73.0959 33.4844 71.7508 30.4904 69.4679C27.4964 67.185 25.2456 64.0666 24.0218 60.506C22.7981 56.9454 22.6562 53.1021 23.6141 49.4609C24.5719 45.8198 26.5867 42.5439 29.4042 40.0464C32.2216 37.549 35.7156 35.9419 39.4454 35.4278C41.9347 35.0847 44.4672 35.2372 46.8974 35.8765C49.3276 36.5158 51.6073 37.6293 53.6056 39.1529C55.6038 40.6766 57.281 42.5803 58.5408 44.7545C59.8005 46.9288 60.6179 49.3307 60.946 51.822Z" fill="#F4F4F4" stroke="#455A64" stroke-linecap="round" stroke-linejoin="round"/>
<path d="M64.047 158.142C64.4167 162.797 63.3978 167.456 61.1192 171.532C58.8406 175.608 55.4047 178.916 51.2459 181.039C47.087 183.162 42.3921 184.004 37.7547 183.459C33.1174 182.914 28.7458 181.005 25.1928 177.976C21.6399 174.946 19.0651 170.931 17.794 166.438C16.523 161.945 16.6127 157.176 18.052 152.734C19.4912 148.292 22.2153 144.376 25.8798 141.483C29.5442 138.589 33.9845 136.846 38.6391 136.476C41.7306 136.227 44.8408 136.591 47.7917 137.545C50.7427 138.5 53.4763 140.027 55.8363 142.04C58.1963 144.052 60.1363 146.51 61.5452 149.273C62.954 152.036 63.8042 155.05 64.047 158.142Z" fill="white"/>
<path d="M65.047 166.142C65.4167 170.797 64.3978 175.456 62.1192 179.532C59.8406 183.608 56.4047 186.916 52.2459 189.039C48.087 191.162 43.3921 192.004 38.7547 191.459C34.1174 190.914 29.7458 189.005 26.1928 185.976C22.6399 182.946 20.0651 178.931 18.794 174.438C17.523 169.945 17.6127 165.176 19.052 160.734C20.4912 156.292 23.2153 152.376 26.8798 149.483C30.5442 146.589 34.9845 144.846 39.6391 144.476C42.7306 144.227 45.8408 144.591 48.7917 145.545C51.7427 146.5 54.4763 148.027 56.8363 150.04C59.1963 152.052 61.1363 154.51 62.5452 157.273C63.9541 160.036 64.8042 163.05 65.047 166.142V166.142Z" stroke="#263238" stroke-linecap="round" stroke-linejoin="round"/>
<path d="M60.5195 166.494C60.8305 170.252 60.0194 174.019 58.1888 177.316C56.3583 180.614 53.5906 183.294 50.2361 185.018C46.8816 186.742 43.091 187.432 39.3441 187.001C35.5973 186.57 32.0626 185.037 29.1873 182.596C26.3121 180.155 24.2256 176.916 23.192 173.289C22.1584 169.662 22.224 165.809 23.3806 162.22C24.5373 158.63 26.7329 155.464 29.6896 153.122C32.6463 150.781 36.2312 149.369 39.9906 149.066C45.0216 148.665 50.0063 150.274 53.8538 153.541C57.7012 156.807 60.098 161.464 60.5195 166.494Z" fill="#F4F4F4" stroke="#252B42" stroke-linecap="round" stroke-linejoin="round"/>
<path d="M199.672 121.58C197.709 125.818 194.534 129.378 190.548 131.811C186.562 134.244 181.944 135.44 177.278 135.248C172.612 135.057 168.108 133.485 164.335 130.733C160.563 127.982 157.69 124.173 156.083 119.788C154.475 115.404 154.203 110.641 155.302 106.103C156.401 101.564 158.821 97.4532 162.257 94.2901C165.692 91.1271 169.989 89.0539 174.602 88.3328C179.216 87.6117 183.94 88.2751 188.177 90.239C193.857 92.8717 198.258 97.6523 200.414 103.53C202.569 109.407 202.302 115.9 199.672 121.58V121.58Z" stroke="#252B42" stroke-linecap="round" stroke-linejoin="round"/>
<path d="M195.558 119.678C193.97 123.097 191.405 125.968 188.187 127.929C184.968 129.89 181.241 130.853 177.475 130.696C173.709 130.539 170.075 129.269 167.03 127.047C163.986 124.825 161.669 121.75 160.372 118.211C159.075 114.672 158.856 110.829 159.743 107.165C160.63 103.502 162.583 100.184 165.356 97.631C168.128 95.0777 171.595 93.4034 175.318 92.82C179.042 92.2365 182.855 92.77 186.275 94.3531C188.55 95.4031 190.596 96.8919 192.295 98.7342C193.993 100.576 195.312 102.736 196.174 105.089C197.036 107.441 197.426 109.941 197.32 112.445C197.214 114.949 196.615 117.407 195.558 119.678Z" fill="#F4F4F4" stroke="#263238" stroke-linecap="round" stroke-linejoin="round"/>
<path d="M166.713 128.331C166.713 129.798 188.73 113.859 210.127 124.01C210.127 124.01 187.758 144.332 166.113 131.7C144.468 119.069 147.507 88.0789 147.507 88.0789C147.507 88.0789 168.449 102.695 166.713 128.331Z" fill="#00A5B9" stroke="#263238" stroke-linecap="round" stroke-linejoin="round"/>
<path d="M116.31 47.7653C117.013 49.0471 126.936 23.6392 150.504 20.5381C150.504 20.5381 142.731 49.75 117.695 50.8664C92.6594 51.9828 78.4152 24.3007 78.4152 24.3007C78.4152 24.3007 103.844 25.2931 116.31 47.7653Z" fill="#00A5B9" stroke="#263238" stroke-linecap="round" stroke-linejoin="round"/>
<path d="M44.6758 74.4136C45.5854 75.5713 51.374 48.9023 74.1358 42.1213C74.1358 42.1213 71.0761 72.2015 46.5571 77.2666C22.0381 82.3316 3.5972 57.2338 3.5972 57.2338C3.5972 57.2338 28.8191 54.2361 44.6758 74.4136Z" fill="#00A5B9" stroke="#263238" stroke-linecap="round" stroke-linejoin="round"/>
<path d="M49.4514 186.961C50.5471 187.933 51.6841 160.664 72.9574 150.1C72.9574 150.1 75.0247 180.263 51.7875 189.38C28.5503 198.497 6.03668 176.976 6.03668 176.976C6.03668 176.976 30.3903 169.719 49.4514 186.961Z" fill="#00A5B9" stroke="#263238" stroke-linecap="round" stroke-linejoin="round"/>
</svg>
