<svg width="256" height="256" viewBox="0 0 256 256" fill="none" xmlns="http://www.w3.org/2000/svg">
<path d="M128 256C198.692 256 256 198.692 256 128C256 57.3076 198.692 0 128 0C57.3076 0 0 57.3076 0 128C0 198.692 57.3076 256 128 256Z" fill="#1DE3B0"/>
<path d="M76.9747 162.981C77.8893 161.966 79.1468 161.374 80.4806 161.374H201.433C203.644 161.374 204.749 164.334 203.186 166.068L179.293 192.58C178.378 193.595 177.121 194.187 175.787 194.187H54.8343C52.6241 194.187 51.519 191.227 53.0814 189.494L76.9747 162.981Z" fill="white"/>
<path d="M76.9724 63.9933C77.9251 62.9785 79.1827 62.3865 80.4783 62.3865H201.431C203.642 62.3865 204.747 65.3464 203.184 67.0801L179.291 93.5924C178.376 94.6073 177.119 95.1992 175.785 95.1992H54.832C52.6218 95.1992 51.5167 92.2393 53.0791 90.5057L76.9724 63.9933Z" fill="white"/>
<path d="M179.293 113.17C178.378 112.155 177.121 111.563 175.787 111.563H54.8343C52.6241 111.563 51.519 114.523 53.0814 116.257L76.9747 142.769C77.8893 143.784 79.1468 144.376 80.4806 144.376H201.433C203.644 144.376 204.749 141.416 203.186 139.682L179.293 113.17Z" fill="white"/>
</svg>
