<!--
  - This file is part of the Web3 Library developed by mFactory GmbH.
  -
  - Copyright © 2021, mFactory GmbH
  -
  - Solana Reference Stake Pool is free software: you can redistribute it
  - and/or modify it under the terms of the GNU Affero General Public License
  - as published by the Free Software Foundation, either version 3
  - of the License, or (at your option) any later version.
  -
  - Solana Reference Stake Pool is distributed in the hope that it
  - will be useful, but WITHOUT ANY WARRANTY; without even the implied
  - warranty of MERCHANTABILITY or FITNESS FOR A PARTICULAR PURPOSE.
  - See the GNU Affero General Public License for more details.
  -
  - You should have received a copy of the GNU Affero General Public License
  - along with this program.
  - If not, see <https://www.gnu.org/licenses/agpl-3.0.html>.
  -
  - You can be released from the requirements of the Affero GNU General Public License
  - by purchasing a commercial license. The purchase of such a license is
  - mandatory as soon as you develop commercial activities using the
  - Solana Reference Stake Pool code without disclosing the source code of
  - your own applications.
  -
  - The developer of this program can be contacted at <info@mfactory.ch>.
  -->

<svg width="52" height="49" viewBox="0 0 52 49" fill="none" xmlns="http://www.w3.org/2000/svg">
<rect x="2" y="2" width="45" height="45" rx="10" fill="#F3F4F5" stroke="#455A64" stroke-width="4"/>
<g clip-path="url(#clip0_793_86)">
<path d="M17.4791 28.8443C17.6084 28.7147 17.7861 28.6392 17.9746 28.6392H35.0682C35.3806 28.6392 35.5367 29.0171 35.3159 29.2384L31.9392 32.6236C31.81 32.7532 31.6322 32.8288 31.4438 32.8288H14.3502C14.0378 32.8288 13.8816 32.4508 14.1024 32.2295L17.4791 28.8443Z" fill="#455A64"/>
<path d="M17.4777 16.2052C17.6123 16.0756 17.79 16 17.9731 16H35.0667C35.3791 16 35.5353 16.3779 35.3145 16.5993L31.9378 19.9844C31.8085 20.114 31.6308 20.1896 31.4423 20.1896H14.3487C14.0363 20.1896 13.8802 19.8117 14.101 19.5903L17.4777 16.2052Z" fill="#455A64"/>
<path d="M31.9392 22.484C31.81 22.3544 31.6322 22.2788 31.4438 22.2788H14.3502C14.0378 22.2788 13.8816 22.6567 14.1024 22.8781L17.4791 26.2632C17.6084 26.3928 17.7861 26.4684 17.9746 26.4684H35.0682C35.3806 26.4684 35.5367 26.0905 35.3159 25.8691L31.9392 22.484Z" fill="#455A64"/>
</g>
<rect x="42" y="16" width="10" height="15" rx="5" fill="#455A64"/>
<defs>
<clipPath id="clip0_793_86">
<rect width="21.4181" height="16.8285" fill="white" transform="translate(14 16)"/>
</clipPath>
</defs>
</svg>
