<!--
  - This file is part of the Web3 Library developed by mFactory GmbH.
  -
  - Copyright © 2021, mFactory GmbH
  -
  - Solana Reference Stake Pool is free software: you can redistribute it
  - and/or modify it under the terms of the GNU Affero General Public License
  - as published by the Free Software Foundation, either version 3
  - of the License, or (at your option) any later version.
  -
  - Solana Reference Stake Pool is distributed in the hope that it
  - will be useful, but WITHOUT ANY WARRANTY; without even the implied
  - warranty of MERCHANTABILITY or FITNESS FOR A PARTICULAR PURPOSE.
  - See the GNU Affero General Public License for more details.
  -
  - You should have received a copy of the GNU Affero General Public License
  - along with this program.
  - If not, see <https://www.gnu.org/licenses/agpl-3.0.html>.
  -
  - You can be released from the requirements of the Affero GNU General Public License
  - by purchasing a commercial license. The purchase of such a license is
  - mandatory as soon as you develop commercial activities using the
  - Solana Reference Stake Pool code without disclosing the source code of
  - your own applications.
  -
  - The developer of this program can be contacted at <info@mfactory.ch>.
  -->

<svg width="42" height="33" viewBox="0 0 42 33" fill="none" xmlns="http://www.w3.org/2000/svg">
  <g clip-path="url(#clip0)">
    <path
      d="M6.8224 25.187C7.07586 24.9329 7.42437 24.7847 7.79399 24.7847H41.3137C41.9263 24.7847 42.2325 25.5258 41.7995 25.9598L35.178 32.598C34.9245 32.852 34.576 33.0003 34.2064 33.0003H0.686623C0.0741008 33.0003 -0.23216 32.2592 0.20083 31.8251L6.8224 25.187Z"
      fill="url(#paint0_linear)"/>
    <path
      d="M6.8207 0.40231C7.08471 0.148219 7.43322 0 7.79228 0H41.312C41.9245 0 42.2308 0.741097 41.7978 1.17517L35.1762 7.81328C34.9228 8.06737 34.5743 8.21559 34.2047 8.21559H0.684914C0.0723918 8.21559 -0.233869 7.47449 0.199121 7.04042L6.8207 0.40231Z"
      fill="url(#paint1_linear)"/>
    <path
      d="M35.178 12.7148C34.9245 12.4607 34.576 12.3125 34.2064 12.3125H0.686623C0.0741008 12.3125 -0.23216 13.0536 0.20083 13.4877L6.8224 20.1258C7.07586 20.3799 7.42437 20.5281 7.79399 20.5281H41.3137C41.9263 20.5281 42.2325 19.787 41.7995 19.3529L35.178 12.7148Z"
      fill="url(#paint2_linear)"/>
  </g>
  <defs>
    <linearGradient id="paint0_linear" x1="38.1116" y1="-3.9652" x2="14.8222" y2="40.5323"
                    gradientUnits="userSpaceOnUse">
      <stop stop-color="#00FFA3"/>
      <stop offset="1" stop-color="#DC1FFF"/>
    </linearGradient>
    <linearGradient id="paint1_linear" x1="27.9663" y1="-9.27445" x2="4.67693" y2="35.223"
                    gradientUnits="userSpaceOnUse">
      <stop stop-color="#00FFA3"/>
      <stop offset="1" stop-color="#DC1FFF"/>
    </linearGradient>
    <linearGradient id="paint2_linear" x1="33.0076" y1="-6.63715" x2="9.71812" y2="37.8603"
                    gradientUnits="userSpaceOnUse">
      <stop stop-color="#00FFA3"/>
      <stop offset="1" stop-color="#DC1FFF"/>
    </linearGradient>
    <clipPath id="clip0">
      <rect width="42" height="33" fill="white"/>
    </clipPath>
  </defs>
</svg>
