<!--
  - This file is part of the Web3 Library developed by mFactory GmbH.
  -
  - Copyright © 2021, mFactory GmbH
  -
  - Solana Reference Stake Pool is free software: you can redistribute it
  - and/or modify it under the terms of the GNU Affero General Public License
  - as published by the Free Software Foundation, either version 3
  - of the License, or (at your option) any later version.
  -
  - Solana Reference Stake Pool is distributed in the hope that it
  - will be useful, but WITHOUT ANY WARRANTY; without even the implied
  - warranty of MERCHANTABILITY or FITNESS FOR A PARTICULAR PURPOSE.
  - See the GNU Affero General Public License for more details.
  -
  - You should have received a copy of the GNU Affero General Public License
  - along with this program.
  - If not, see <https://www.gnu.org/licenses/agpl-3.0.html>.
  -
  - You can be released from the requirements of the Affero GNU General Public License
  - by purchasing a commercial license. The purchase of such a license is
  - mandatory as soon as you develop commercial activities using the
  - Solana Reference Stake Pool code without disclosing the source code of
  - your own applications.
  -
  - The developer of this program can be contacted at <info@mfactory.ch>.
  -->

<svg width="171" height="29" viewBox="0 0 171 29" fill="none" xmlns="http://www.w3.org/2000/svg">
<path fill-rule="evenodd" clip-rule="evenodd" d="M5.44616 22.1526C5.54743 22.041 5.67083 21.9519 5.80851 21.8907C5.94618 21.8296 6.0951 21.7978 6.24576 21.7974H31.063C31.1687 21.7988 31.2717 21.8307 31.3597 21.889C31.4478 21.9474 31.5172 22.0299 31.5596 22.1267C31.6022 22.2234 31.6158 22.3303 31.5992 22.4346C31.5826 22.5389 31.5362 22.6363 31.4657 22.715L26.1766 28.5469C26.0753 28.6584 25.9519 28.7476 25.8142 28.8088C25.6765 28.8699 25.5276 28.9017 25.3769 28.9021H0.559713C0.454042 28.9006 0.35103 28.8688 0.262966 28.8104C0.174901 28.752 0.1055 28.6696 0.0630428 28.5728C0.0205856 28.4761 0.00686422 28.3692 0.0235151 28.2649C0.0401661 28.1605 0.0864867 28.0632 0.156951 27.9844L5.44616 22.1526ZM31.4657 17.3094C31.5421 17.3875 31.5935 17.4865 31.6135 17.5937C31.6334 17.701 31.621 17.8118 31.5778 17.9121C31.5347 18.0123 31.4626 18.0975 31.371 18.1567C31.2794 18.216 31.1722 18.2467 31.063 18.2449H6.24576C6.0951 18.2445 5.94618 18.2127 5.80851 18.1516C5.67083 18.0903 5.54743 18.0012 5.44616 17.8897L0.156951 12.0756C0.0806353 11.9975 0.029237 11.8986 0.00928126 11.7913C-0.0106744 11.684 0.00171264 11.5733 0.0448699 11.473C0.0880273 11.3727 0.160008 11.2876 0.251674 11.2283C0.34334 11.169 0.450557 11.1383 0.559713 11.1401H25.3769C25.5276 11.1405 25.6765 11.1723 25.8142 11.2335C25.9519 11.2947 26.0753 11.3839 26.1766 11.4954L31.4657 17.3094ZM5.44616 0.838151C5.54743 0.726639 5.67083 0.637456 5.80851 0.57629C5.94618 0.515125 6.0951 0.483321 6.24576 0.48291H31.063C31.1687 0.484398 31.2717 0.51624 31.3597 0.574639C31.4478 0.633037 31.5172 0.715527 31.5596 0.812267C31.6022 0.909006 31.6158 1.01591 31.5992 1.12023C31.5826 1.22455 31.5362 1.32189 31.4657 1.40061L26.1766 7.23248C26.0753 7.34399 25.9519 7.43317 25.8142 7.49434C25.6765 7.55551 25.5276 7.5873 25.3769 7.58772H0.559713C0.454042 7.58623 0.35103 7.55439 0.262966 7.49599C0.174901 7.43759 0.1055 7.3551 0.0630428 7.25836C0.0205856 7.16163 0.00686422 7.05472 0.0235151 6.95039C0.0401661 6.84608 0.0864867 6.74875 0.156951 6.67001L5.44616 0.838151Z" fill="white"/>
<path d="M141.805 17.0742H139.583V28.9251H141.805V17.0742Z" fill="#E9E9E9"/>
<path d="M112.538 19.2962V28.9251H114.761V24.8513H122.541V28.9251H124.764V19.2962C124.764 18.7069 124.529 18.1417 124.113 17.725C123.696 17.3083 123.13 17.0742 122.541 17.0742H114.761C114.171 17.0742 113.606 17.3083 113.189 17.725C112.772 18.1417 112.538 18.7069 112.538 19.2962ZM122.541 22.6293H114.761V19.2962H122.541V22.6293Z" fill="#E9E9E9"/>
<path d="M137.73 17.0742H125.874V19.2962H130.69V28.9251H132.914V19.2962H137.73V17.0742Z" fill="#E9E9E9"/>
<path d="M53.3337 19.2963V17.0742H43.3307C42.8393 17.0742 42.3682 17.2694 42.0208 17.6166C41.6734 17.9639 41.4783 18.4348 41.4783 18.926V28.9251H43.7011V24.1107H53.3337V21.8886H43.7011V19.2963H53.3337Z" fill="#E9E9E9"/>
<path d="M94.7541 17.0742V26.7031H94.0135L88.8827 17.8149C88.753 17.5897 88.5655 17.4026 88.3404 17.2726C88.1153 17.1426 87.8592 17.0742 87.5998 17.0742H85.4926C85.0992 17.0742 84.7218 17.2302 84.444 17.508C84.1662 17.7859 84.0105 18.1626 84.0105 18.5556V28.9251H86.2332V19.2962H86.9738L92.1046 28.1844C92.2343 28.4096 92.4217 28.5965 92.6469 28.7266C92.872 28.8566 93.1281 28.9251 93.3883 28.9251H95.4955C95.888 28.9251 96.2654 28.769 96.5433 28.4912C96.8211 28.2134 96.9768 27.8366 96.9768 27.4437V17.0742H94.7541Z" fill="#E9E9E9"/>
<path d="M168.777 17.0742V26.7031H168.036L162.905 17.8149C162.775 17.5897 162.588 17.4026 162.363 17.2726C162.138 17.1426 161.883 17.0742 161.622 17.0742H159.515C159.122 17.0742 158.745 17.2302 158.466 17.508C158.189 17.7859 158.033 18.1626 158.033 18.5556V28.9251H160.256V19.2962H160.996L166.127 28.1844C166.258 28.4096 166.444 28.5965 166.669 28.7266C166.894 28.8566 167.151 28.9251 167.411 28.9251H169.518C169.91 28.9251 170.288 28.769 170.566 28.4912C170.844 28.2134 171 27.8366 171 27.4437V17.0742H168.777Z" fill="#E9E9E9"/>
<path d="M106.609 17.0742H99.1995V28.9251H106.609C107.591 28.9251 108.534 28.5349 109.229 27.8404C109.924 27.1458 110.314 26.2039 110.314 25.2216V20.7776C110.314 19.7954 109.924 18.8534 109.229 18.1589C108.534 17.4644 107.591 17.0742 106.609 17.0742ZM108.091 25.2216C108.091 25.6146 107.935 25.9913 107.657 26.2691C107.379 26.547 107.002 26.7031 106.609 26.7031H101.422V19.2962H106.609C107.002 19.2962 107.379 19.4523 107.657 19.7301C107.935 20.0079 108.091 20.3847 108.091 20.7776V25.2216Z" fill="#E9E9E9"/>
<path d="M79.2673 17.0742V26.7031H71.8576V17.0742H69.6348V26.7031C69.6348 27.2924 69.8689 27.8576 70.2858 28.2742C70.7027 28.691 71.2681 28.9251 71.8576 28.9251H79.2673C79.8569 28.9251 80.4223 28.691 80.8391 28.2742C81.256 27.8576 81.4902 27.2924 81.4902 26.7031V17.0742H79.2673Z" fill="#E9E9E9"/>
<path d="M55.5571 19.2962V26.7031C55.5571 27.2924 55.7914 27.8576 56.2082 28.2742C56.625 28.691 57.1905 28.9251 57.78 28.9251H65.1897C65.7793 28.9251 66.3446 28.691 66.7616 28.2742C67.1784 27.8576 67.4126 27.2924 67.4126 26.7031V19.2962C67.4126 18.7069 67.1784 18.1417 66.7616 17.725C66.3446 17.3083 65.7793 17.0742 65.1897 17.0742H57.78C57.1905 17.0742 56.625 17.3083 56.2082 17.725C55.7914 18.1417 55.5571 18.7069 55.5571 19.2962ZM65.1897 26.7031H57.78V19.2962H65.1897V26.7031Z" fill="#E9E9E9"/>
<path d="M144.324 19.2962V26.7031C144.324 27.2924 144.559 27.8576 144.976 28.2742C145.392 28.691 145.958 28.9251 146.547 28.9251H153.957C154.547 28.9251 155.112 28.691 155.529 28.2742C155.946 27.8576 156.18 27.2924 156.18 26.7031V19.2962C156.18 18.7069 155.946 18.1417 155.529 17.725C155.112 17.3083 154.547 17.0742 153.957 17.0742H146.547C145.958 17.0742 145.392 17.3083 144.976 17.725C144.559 18.1417 144.324 18.7069 144.324 19.2962ZM153.957 26.7031H146.547V19.2962H153.957V26.7031Z" fill="#E9E9E9"/>
<path d="M52.6617 2.91083V0.554688H43.7218C43.1012 0.554688 42.506 0.801116 42.0672 1.23976C41.6284 1.67841 41.3818 2.27334 41.3818 2.89368V5.28413C41.3818 5.90447 41.6284 6.4994 42.0672 6.93805C42.506 7.37669 43.1012 7.62312 43.7218 7.62312H50.8085V9.97767H41.5503V12.3338H50.8257C51.4462 12.3338 52.0414 12.0874 52.4802 11.6488C52.9191 11.2101 53.1655 10.6152 53.1655 9.9949V7.60597C53.1655 6.98563 52.9191 6.39069 52.4802 5.95205C52.0414 5.5134 51.4462 5.26698 50.8257 5.26698H43.7389V2.91083H52.6617Z" fill="#E9E9E9"/>
<path d="M55.0969 2.89368V9.99489C55.0969 10.6152 55.3435 11.2101 55.7822 11.6488C56.2211 12.0874 56.8163 12.3338 57.4368 12.3338H64.5408C65.1613 12.3338 65.7565 12.0874 66.1953 11.6488C66.6341 11.2101 66.8806 10.6152 66.8806 9.99489V2.89368C66.8806 2.27334 66.6341 1.67841 66.1953 1.23976C65.7565 0.801116 65.1613 0.554688 64.5408 0.554688H57.4368C56.8163 0.554688 56.2211 0.801116 55.7822 1.23976C55.3435 1.67841 55.0969 2.27334 55.0969 2.89368ZM64.5236 9.97774H57.4493V2.91083H64.5189L64.5236 9.97774Z" fill="#E9E9E9"/>
<path d="M80.165 2.89368V12.3338H82.522V8.4636H89.4265V12.3338H91.7815V2.89368C91.7815 2.27334 91.5354 1.67841 91.0961 1.23976C90.6576 0.801116 90.0626 0.554688 89.4416 0.554688H82.5049C81.8844 0.554688 81.2892 0.801116 80.8503 1.23976C80.4116 1.67841 80.165 2.27334 80.165 2.89368ZM89.4265 6.10745H82.5236V2.91083H89.4282L89.4265 6.10745Z" fill="#E9E9E9"/>
<path d="M107.763 2.89368V12.3338H110.115V8.4636H117.019V12.3338H119.375V2.89368C119.375 2.27334 119.129 1.67841 118.69 1.23976C118.251 0.801116 117.656 0.554688 117.035 0.554688H110.104C109.483 0.554688 108.888 0.801116 108.448 1.23976C108.01 1.67841 107.763 2.27334 107.763 2.89368ZM117.022 6.10745H110.115V2.91083H117.019L117.022 6.10745Z" fill="#E9E9E9"/>
<path d="M103.312 0.554688V9.97774H102.375L98.9878 1.5355C98.8714 1.24615 98.6723 0.998069 98.4137 0.823248C98.1559 0.648426 97.8513 0.554885 97.54 0.554688H95.442C95.0277 0.554688 94.6311 0.718973 94.339 1.0114C94.0461 1.30383 93.8821 1.70046 93.8821 2.11402V12.3338H96.2328V2.91083H97.176L100.555 11.3546C100.672 11.6439 100.872 11.8918 101.129 12.0664C101.388 12.2409 101.692 12.3341 102.005 12.3338H104.103C104.516 12.3338 104.913 12.1695 105.206 11.8772C105.498 11.5847 105.663 11.1881 105.663 10.7745V0.554688H103.312Z" fill="#E9E9E9"/>
<path d="M71.3327 9.97774V0.554688H68.9788V9.99489C68.9788 10.6152 69.2253 11.2101 69.6641 11.6488C70.1029 12.0874 70.6981 12.3338 71.3186 12.3338H78.4054V9.97774H71.3327Z" fill="#E9E9E9"/>
</svg>
