<!--
  - This file is part of the Web3 Library developed by mFactory GmbH.
  -
  - Copyright © 2021, mFactory GmbH
  -
  - Solana Reference Stake Pool is free software: you can redistribute it
  - and/or modify it under the terms of the GNU Affero General Public License
  - as published by the Free Software Foundation, either version 3
  - of the License, or (at your option) any later version.
  -
  - Solana Reference Stake Pool is distributed in the hope that it
  - will be useful, but WITHOUT ANY WARRANTY; without even the implied
  - warranty of MERCHANTABILITY or FITNESS FOR A PARTICULAR PURPOSE.
  - See the GNU Affero General Public License for more details.
  -
  - You should have received a copy of the GNU Affero General Public License
  - along with this program.
  - If not, see <https://www.gnu.org/licenses/agpl-3.0.html>.
  -
  - You can be released from the requirements of the Affero GNU General Public License
  - by purchasing a commercial license. The purchase of such a license is
  - mandatory as soon as you develop commercial activities using the
  - Solana Reference Stake Pool code without disclosing the source code of
  - your own applications.
  -
  - The developer of this program can be contacted at <info@mfactory.ch>.
  -->

<svg width="222" height="37" viewBox="0 0 222 37" fill="none" xmlns="http://www.w3.org/2000/svg">
  <path fill-rule="evenodd" clip-rule="evenodd" d="M7.07045 28.1325C7.20192 27.9877 7.36213 27.872 7.54087 27.7926C7.7196 27.7132 7.91293 27.6719 8.10853 27.6714H40.3274C40.4646 27.6732 40.5983 27.7146 40.7126 27.7904C40.827 27.8662 40.9171 27.9733 40.9722 28.099C41.0274 28.2245 41.0451 28.3633 41.0235 28.4987C41.0019 28.6341 40.9417 28.7606 40.8503 28.8628L33.9836 36.434C33.8521 36.5788 33.6919 36.6945 33.5132 36.7739C33.3344 36.8533 33.1411 36.8946 32.9455 36.8951H0.726644C0.589458 36.8932 0.455723 36.8519 0.341394 36.7761C0.227064 36.7003 0.136965 36.5932 0.081845 36.4675C0.0267252 36.342 0.00891145 36.2032 0.0305284 36.0678C0.0521454 35.9323 0.112281 35.8059 0.203761 35.7037L7.07045 28.1325ZM40.8503 21.845C40.9493 21.9463 41.0161 22.0748 41.042 22.214C41.0679 22.3533 41.0518 22.4971 40.9957 22.6273C40.9398 22.7574 40.8462 22.868 40.7273 22.9449C40.6083 23.0219 40.4691 23.0618 40.3274 23.0595H8.10853C7.91293 23.0589 7.7196 23.0177 7.54087 22.9383C7.36213 22.8588 7.20192 22.743 7.07045 22.5982L0.203761 15.0501C0.104684 14.9488 0.0379567 14.8203 0.0120493 14.6811C-0.0138579 14.5418 0.00222342 14.398 0.0582521 14.2679C0.114281 14.1377 0.20773 14.0271 0.326734 13.9502C0.445739 13.8732 0.584934 13.8334 0.726644 13.8356H32.9455C33.1411 13.8362 33.3344 13.8775 33.5132 13.9569C33.6919 14.0363 33.8521 14.1521 33.9836 14.2969L40.8503 21.845ZM7.07045 0.461189C7.20192 0.31642 7.36213 0.200638 7.54087 0.12123C7.7196 0.0418222 7.91293 0.00053388 8.10853 0H40.3274C40.4646 0.00193164 40.5983 0.0432708 40.7126 0.119086C40.827 0.194901 40.9171 0.301993 40.9722 0.427586C41.0274 0.553177 41.0451 0.691969 41.0235 0.827402C41.0019 0.962835 40.9417 1.0892 40.8503 1.1914L33.9836 8.7626C33.8521 8.90736 33.6919 9.02314 33.5132 9.10256C33.3344 9.18196 33.1411 9.22325 32.9455 9.22379H0.726644C0.589458 9.22186 0.455723 9.18051 0.341394 9.10469C0.227064 9.02888 0.136965 8.92179 0.081845 8.7962C0.0267252 8.67061 0.00891145 8.53182 0.0305284 8.39638C0.0521454 8.26095 0.112281 8.13459 0.203761 8.03237L7.07045 0.461189Z" fill="url(#paint0_linear)"/>
  <path d="M184.098 21.5396H181.213V36.9248H184.098V21.5396Z" fill="black"/>
  <path d="M146.102 24.4243V36.9248H148.988V31.6361H159.088V36.9248H161.974V24.4243C161.974 23.6591 161.67 22.9254 161.129 22.3844C160.588 21.8434 159.853 21.5396 159.088 21.5396H148.988C148.222 21.5396 147.488 21.8434 146.947 22.3844C146.405 22.9254 146.102 23.6591 146.102 24.4243ZM159.088 28.7514H148.988V24.4243H159.088V28.7514Z" fill="black"/>
  <path d="M178.807 21.5396H163.416V24.4243H169.668V36.9248H172.555V24.4243H178.807V21.5396Z" fill="black"/>
  <path d="M69.2404 24.4246V21.5398H56.254C55.6161 21.5398 55.0044 21.7932 54.5535 22.244C54.1025 22.6948 53.8491 23.3062 53.8491 23.9438V36.9252H56.7349V30.6749H69.2404V27.7901H56.7349V24.4246H69.2404Z" fill="black"/>
  <path d="M123.014 21.5396V34.0401H122.052L115.391 22.5011C115.223 22.2088 114.98 21.9659 114.687 21.7972C114.395 21.6284 114.063 21.5396 113.726 21.5396H110.99C110.48 21.5396 109.99 21.7421 109.629 22.1028C109.268 22.4634 109.066 22.9526 109.066 23.4627V36.9248H111.952V24.4243H112.913L119.574 35.9633C119.743 36.2556 119.986 36.4984 120.278 36.6672C120.571 36.836 120.903 36.9248 121.241 36.9248H123.977C124.486 36.9248 124.976 36.7223 125.337 36.3616C125.697 36.001 125.9 35.5117 125.9 35.0017V21.5396H123.014Z" fill="black"/>
  <path d="M219.113 21.5396V34.0401H218.152L211.491 22.5011C211.322 22.2088 211.079 21.9659 210.787 21.7972C210.495 21.6284 210.163 21.5396 209.825 21.5396H207.09C206.579 21.5396 206.09 21.7421 205.728 22.1028C205.368 22.4634 205.166 22.9526 205.166 23.4627V36.9248H208.051V24.4243H209.013L215.674 35.9633C215.843 36.2556 216.085 36.4984 216.378 36.6672C216.67 36.836 217.002 36.9248 217.34 36.9248H220.076C220.585 36.9248 221.075 36.7223 221.436 36.3616C221.797 36.001 222 35.5117 222 35.0017V21.5396H219.113Z" fill="black"/>
  <path d="M138.405 21.5396H128.785V36.9248H138.405C139.68 36.9248 140.903 36.4183 141.806 35.5167C142.708 34.615 143.214 33.3921 143.214 32.1169V26.3474C143.214 25.0723 142.708 23.8494 141.806 22.9477C140.903 22.0461 139.68 21.5396 138.405 21.5396ZM140.329 32.1169C140.329 32.627 140.127 33.1161 139.765 33.4768C139.404 33.8375 138.915 34.0401 138.405 34.0401H131.671V24.4243H138.405C138.915 24.4243 139.404 24.6269 139.765 24.9876C140.127 25.3482 140.329 25.8374 140.329 26.3474V32.1169Z" fill="black"/>
  <path d="M102.908 21.5396V34.0401H93.2889V21.5396H90.4031V34.0401C90.4031 34.8052 90.7071 35.539 91.2483 36.0799C91.7895 36.621 92.5235 36.9248 93.2889 36.9248H102.908C103.674 36.9248 104.408 36.621 104.949 36.0799C105.49 35.539 105.794 34.8052 105.794 34.0401V21.5396H102.908Z" fill="black"/>
  <path d="M72.1267 24.4243V34.0401C72.1267 34.8052 72.4308 35.539 72.972 36.0799C73.5131 36.621 74.2472 36.9248 75.0125 36.9248H84.6321C85.3975 36.9248 86.1315 36.621 86.6728 36.0799C87.214 35.539 87.5181 34.8052 87.5181 34.0401V24.4243C87.5181 23.6591 87.214 22.9254 86.6728 22.3844C86.1315 21.8434 85.3975 21.5396 84.6321 21.5396H75.0125C74.2472 21.5396 73.5131 21.8434 72.972 22.3844C72.4308 22.9254 72.1267 23.6591 72.1267 24.4243ZM84.6321 34.0401H75.0125V24.4243H84.6321V34.0401Z" fill="black"/>
  <path d="M187.369 24.4243V34.0401C187.369 34.8052 187.673 35.539 188.214 36.0799C188.755 36.621 189.489 36.9248 190.254 36.9248H199.874C200.64 36.9248 201.373 36.621 201.915 36.0799C202.456 35.539 202.76 34.8052 202.76 34.0401V24.4243C202.76 23.6591 202.456 22.9254 201.915 22.3844C201.373 21.8434 200.64 21.5396 199.874 21.5396H190.254C189.489 21.5396 188.755 21.8434 188.214 22.3844C187.673 22.9254 187.369 23.6591 187.369 24.4243ZM199.874 34.0401H190.254V24.4243H199.874V34.0401Z" fill="black"/>
  <path d="M68.368 3.1526V0.09375H56.7617C55.956 0.09375 55.1833 0.413675 54.6137 0.983146C54.0439 1.55262 53.7239 2.32499 53.7239 3.13033V6.23372C53.7239 7.03908 54.0439 7.81145 54.6137 8.38092C55.1833 8.95038 55.956 9.2703 56.7617 9.2703H65.962V12.3271H53.9426V15.386H65.9843C66.7899 15.386 67.5626 15.066 68.1323 14.4966C68.7021 13.9271 69.022 13.1547 69.022 12.3495V9.24804C69.022 8.44269 68.7021 7.67032 68.1323 7.10085C67.5626 6.53138 66.7899 6.21146 65.9843 6.21146H56.784V3.1526H68.368Z" fill="black"/>
  <path d="M71.5293 3.12985V12.349C71.5293 13.1542 71.8494 13.9266 72.419 14.4961C72.9887 15.0655 73.7614 15.3855 74.567 15.3855H83.7897C84.5953 15.3855 85.368 15.0655 85.9377 14.4961C86.5074 13.9266 86.8274 13.1542 86.8274 12.349V3.12985C86.8274 2.3245 86.5074 1.55213 85.9377 0.982656C85.368 0.413187 84.5953 0.0932617 83.7897 0.0932617H74.567C73.7614 0.0932617 72.9887 0.413187 72.419 0.982656C71.8494 1.55213 71.5293 2.3245 71.5293 3.12985ZM83.7675 12.3267H74.5833V3.15211H83.7614L83.7675 12.3267Z" fill="black"/>
  <path d="M104.074 3.12985V15.3855H107.134V10.361H116.098V15.3855H119.155V3.12985C119.155 2.3245 118.836 1.55213 118.265 0.982656C117.696 0.413187 116.923 0.0932617 116.117 0.0932617H107.112C106.306 0.0932617 105.533 0.413187 104.964 0.982656C104.394 1.55213 104.074 2.3245 104.074 3.12985ZM116.098 7.30211H107.136V3.15211H116.1L116.098 7.30211Z" fill="black"/>
  <path d="M139.903 3.12985V15.3855H142.957V10.361H151.919V15.3855H154.978V3.12985C154.978 2.3245 154.659 1.55213 154.089 0.982656C153.519 0.413187 152.747 0.0932617 151.941 0.0932617H142.942C142.135 0.0932617 141.363 0.413187 140.793 0.982656C140.223 1.55213 139.903 2.3245 139.903 3.12985ZM151.923 7.30211H142.957V3.15211H151.919L151.923 7.30211Z" fill="black"/>
  <path d="M134.124 0.0932617V12.3267H132.908L128.51 1.3666C128.359 0.990954 128.101 0.66888 127.765 0.441919C127.43 0.214957 127.035 0.0935177 126.631 0.0932617H123.907C123.369 0.0932617 122.854 0.306545 122.475 0.686192C122.095 1.06584 121.882 1.58075 121.882 2.11765V15.3855H124.934V3.15211H126.158L130.545 14.1142C130.696 14.4897 130.956 14.8116 131.29 15.0383C131.626 15.2648 132.022 15.3858 132.427 15.3855H135.151C135.687 15.3855 136.202 15.1722 136.583 14.7926C136.962 14.4129 137.176 13.8981 137.176 13.3611V0.0932617H134.124Z" fill="black"/>
  <path d="M92.6072 12.3267V0.0932617H89.5513V12.349C89.5513 13.1542 89.8713 13.9266 90.441 14.4961C91.0107 15.0655 91.7834 15.3855 92.589 15.3855H101.789V12.3267H92.6072Z" fill="black"/>
  <defs>
    <linearGradient id="paint0_linear" x1="5.2788" y1="40.2157" x2="35.7594" y2="-3.33164" gradientUnits="userSpaceOnUse">
      <stop offset="0.01" stop-color="#E02D6E"/>
      <stop offset="0.48" stop-color="#F5974C"/>
      <stop offset="0.74" stop-color="#FFCD3A"/>
      <stop offset="1" stop-color="#FFCD3A"/>
    </linearGradient>
  </defs>
</svg>
