<svg width="250" height="48" viewBox="0 0 250 48" fill="none" xmlns="http://www.w3.org/2000/svg">
<path d="M52.0659 40.6726C51.2217 40.4299 50.6064 40.1326 50.2202 39.7805C49.8374 39.425 49.646 38.9875 49.646 38.468C49.646 37.8801 49.8801 37.3948 50.3484 37.012C50.8201 36.6257 51.4319 36.4326 52.1838 36.4326C52.6965 36.4326 53.1528 36.5317 53.5527 36.73C53.9561 36.9282 54.2671 37.2017 54.4858 37.5503C54.708 37.8989 54.8191 38.28 54.8191 38.6936H53.8296C53.8296 38.2424 53.686 37.8887 53.3989 37.6323C53.1118 37.3726 52.7068 37.2427 52.1838 37.2427C51.6985 37.2427 51.3191 37.3503 51.0457 37.5657C50.7756 37.7776 50.6406 38.0732 50.6406 38.4526C50.6406 38.7568 50.7688 39.0149 51.0251 39.2268C51.2849 39.4353 51.7241 39.6267 52.3428 39.801C52.9648 39.9753 53.4502 40.1685 53.7988 40.3804C54.1509 40.5889 54.4106 40.8333 54.5781 41.1135C54.749 41.3938 54.8345 41.7236 54.8345 42.103C54.8345 42.708 54.5986 43.1934 54.127 43.5591C53.6553 43.9214 53.0247 44.1025 52.2351 44.1025C51.7224 44.1025 51.2439 44.0051 50.7996 43.8103C50.3552 43.6121 50.0117 43.342 49.769 43.0002C49.5298 42.6584 49.4102 42.2705 49.4102 41.8364H50.3997C50.3997 42.2876 50.5654 42.6448 50.897 42.908C51.2319 43.1677 51.678 43.2976 52.2351 43.2976C52.7546 43.2976 53.1528 43.1917 53.4297 42.9797C53.7065 42.7678 53.845 42.479 53.845 42.1133C53.845 41.7476 53.7168 41.4656 53.4604 41.2673C53.2041 41.0657 52.7393 40.8674 52.0659 40.6726ZM61.2585 37.3452H58.8591V44H57.8799V37.3452H55.4856V36.5352H61.2585V37.3452ZM66.0779 42.0518H62.9504L62.248 44H61.2329L64.0835 36.5352H64.9448L67.8005 44H66.7905L66.0779 42.0518ZM63.2478 41.2417H65.7856L64.5142 37.7502L63.2478 41.2417ZM70.7024 40.5291L69.7898 41.4775V44H68.8054V36.5352H69.7898V40.2266L73.1069 36.5352H74.2964L71.3586 39.8318L74.5271 44H73.3479L70.7024 40.5291ZM79.6079 40.5496H76.3728V43.1951H80.1309V44H75.3884V36.5352H80.0796V37.3452H76.3728V39.7446H79.6079V40.5496ZM86.2371 40.283L88.1853 36.5352H89.303L86.7292 41.2161V44H85.7449V41.2161L83.1711 36.5352H84.2991L86.2371 40.283ZM95.8552 40.5085C95.8552 41.24 95.7322 41.8792 95.4861 42.426C95.24 42.9695 94.8914 43.3848 94.4402 43.6719C93.989 43.959 93.4626 44.1025 92.8611 44.1025C92.2732 44.1025 91.752 43.959 91.2974 43.6719C90.8428 43.3813 90.489 42.9695 90.2361 42.4363C89.9866 41.8997 89.8584 41.2793 89.8516 40.5752V40.0369C89.8516 39.3191 89.9763 38.6851 90.2258 38.1348C90.4753 37.5845 90.8274 37.1641 91.282 36.8735C91.74 36.5796 92.2629 36.4326 92.8508 36.4326C93.449 36.4326 93.9753 36.5779 94.4299 36.8684C94.8879 37.1555 95.24 37.5742 95.4861 38.1245C95.7322 38.6714 95.8552 39.3088 95.8552 40.0369V40.5085ZM94.876 40.0266C94.876 39.1414 94.6982 38.4629 94.3428 37.9912C93.9873 37.5161 93.49 37.2786 92.8508 37.2786C92.2288 37.2786 91.7383 37.5161 91.3794 37.9912C91.0239 38.4629 90.8411 39.1191 90.8308 39.96V40.5085C90.8308 41.3665 91.0103 42.0415 91.3691 42.5337C91.7314 43.0225 92.2288 43.2668 92.8611 43.2668C93.4968 43.2668 93.989 43.0361 94.3376 42.5747C94.6863 42.1099 94.8657 41.4451 94.876 40.5803V40.0266ZM102.587 36.5352V41.6108C102.583 42.3149 102.361 42.8909 101.92 43.3386C101.483 43.7864 100.888 44.0376 100.136 44.0923L99.8748 44.1025C99.0579 44.1025 98.4067 43.8821 97.9214 43.4412C97.436 43.0002 97.1899 42.3936 97.1831 41.6211V36.5352H98.1572V41.5903C98.1572 42.1304 98.3059 42.5508 98.6033 42.8516C98.9006 43.1489 99.3245 43.2976 99.8748 43.2976C100.432 43.2976 100.857 43.1489 101.151 42.8516C101.449 42.5542 101.597 42.1355 101.597 41.5955V36.5352H102.587ZM106.878 40.9802H105.125V44H104.135V36.5352H106.606C107.447 36.5352 108.093 36.7266 108.544 37.1094C108.999 37.4922 109.226 38.0493 109.226 38.7808C109.226 39.2456 109.1 39.6506 108.847 39.9958C108.597 40.3411 108.249 40.5991 107.801 40.77L109.554 43.9385V44H108.498L106.878 40.9802ZM105.125 40.1753H106.637C107.126 40.1753 107.514 40.0488 107.801 39.7959C108.092 39.543 108.237 39.2046 108.237 38.7808C108.237 38.3193 108.098 37.9656 107.822 37.7195C107.548 37.4734 107.152 37.3486 106.632 37.3452H105.125V40.1753ZM115.415 40.6726C114.57 40.4299 113.955 40.1326 113.569 39.7805C113.186 39.425 112.995 38.9875 112.995 38.468C112.995 37.8801 113.229 37.3948 113.697 37.012C114.169 36.6257 114.781 36.4326 115.532 36.4326C116.045 36.4326 116.501 36.5317 116.901 36.73C117.305 36.9282 117.616 37.2017 117.834 37.5503C118.057 37.8989 118.168 38.28 118.168 38.6936H117.178C117.178 38.2424 117.035 37.8887 116.748 37.6323C116.46 37.3726 116.055 37.2427 115.532 37.2427C115.047 37.2427 114.668 37.3503 114.394 37.5657C114.124 37.7776 113.989 38.0732 113.989 38.4526C113.989 38.7568 114.117 39.0149 114.374 39.2268C114.634 39.4353 115.073 39.6267 115.691 39.801C116.313 39.9753 116.799 40.1685 117.147 40.3804C117.5 40.5889 117.759 40.8333 117.927 41.1135C118.098 41.3938 118.183 41.7236 118.183 42.103C118.183 42.708 117.947 43.1934 117.476 43.5591C117.004 43.9214 116.373 44.1025 115.584 44.1025C115.071 44.1025 114.593 44.0051 114.148 43.8103C113.704 43.6121 113.36 43.342 113.118 43.0002C112.878 42.6584 112.759 42.2705 112.759 41.8364H113.748C113.748 42.2876 113.914 42.6448 114.246 42.908C114.581 43.1677 115.027 43.2976 115.584 43.2976C116.103 43.2976 116.501 43.1917 116.778 42.9797C117.055 42.7678 117.194 42.479 117.194 42.1133C117.194 41.7476 117.065 41.4656 116.809 41.2673C116.553 41.0657 116.088 40.8674 115.415 40.6726ZM125.192 40.5085C125.192 41.24 125.069 41.8792 124.823 42.426C124.576 42.9695 124.228 43.3848 123.777 43.6719C123.325 43.959 122.799 44.1025 122.198 44.1025C121.61 44.1025 121.088 43.959 120.634 43.6719C120.179 43.3813 119.825 42.9695 119.573 42.4363C119.323 41.8997 119.195 41.2793 119.188 40.5752V40.0369C119.188 39.3191 119.313 38.6851 119.562 38.1348C119.812 37.5845 120.164 37.1641 120.618 36.8735C121.076 36.5796 121.599 36.4326 122.187 36.4326C122.785 36.4326 123.312 36.5779 123.766 36.8684C124.224 37.1555 124.576 37.5742 124.823 38.1245C125.069 38.6714 125.192 39.3088 125.192 40.0369V40.5085ZM124.212 40.0266C124.212 39.1414 124.035 38.4629 123.679 37.9912C123.324 37.5161 122.826 37.2786 122.187 37.2786C121.565 37.2786 121.075 37.5161 120.716 37.9912C120.36 38.4629 120.177 39.1191 120.167 39.96V40.5085C120.167 41.3665 120.347 42.0415 120.706 42.5337C121.068 43.0225 121.565 43.2668 122.198 43.2668C122.833 43.2668 123.325 43.0361 123.674 42.5747C124.023 42.1099 124.202 41.4451 124.212 40.5803V40.0266ZM127.658 43.1951H131.195V44H126.668V36.5352H127.658V43.1951ZM136.543 42.0518H133.415L132.713 44H131.698L134.548 36.5352H135.41L138.265 44H137.255L136.543 42.0518ZM133.713 41.2417H136.25L134.979 37.7502L133.713 41.2417ZM145.007 44H144.018L140.26 38.2476V44H139.27V36.5352H140.26L144.028 42.3132V36.5352H145.007V44ZM150.97 42.0518H147.843L147.14 44H146.125L148.976 36.5352H149.837L152.693 44H151.683L150.97 42.0518ZM148.14 41.2417H150.678L149.406 37.7502L148.14 41.2417ZM158.558 41.9954C158.558 41.6365 158.657 41.3066 158.855 41.0059C159.057 40.7051 159.44 40.3547 160.004 39.9548C159.672 39.5515 159.45 39.2268 159.337 38.9807C159.224 38.7346 159.168 38.4902 159.168 38.2476C159.168 37.6802 159.335 37.2358 159.67 36.9146C160.005 36.5933 160.46 36.4326 161.034 36.4326C161.547 36.4326 161.971 36.583 162.306 36.8838C162.641 37.1812 162.808 37.5571 162.808 38.0117C162.808 38.3125 162.731 38.5911 162.577 38.8474C162.427 39.1003 162.162 39.3669 161.783 39.6472L161.234 40.0522L162.895 42.0364C163.128 41.592 163.244 41.0981 163.244 40.5547H164.1C164.1 41.4263 163.89 42.1492 163.469 42.7234L164.536 44H163.398L162.9 43.4104C162.647 43.636 162.35 43.8086 162.008 43.9282C161.67 44.0444 161.325 44.1025 160.973 44.1025C160.245 44.1025 159.66 43.9094 159.219 43.5232C158.778 43.137 158.558 42.6277 158.558 41.9954ZM160.973 43.3284C161.475 43.3284 161.935 43.137 162.352 42.7542L160.532 40.5752L160.363 40.6982C159.792 41.1187 159.506 41.551 159.506 41.9954C159.506 42.3987 159.636 42.7217 159.896 42.9644C160.159 43.207 160.518 43.3284 160.973 43.3284ZM160.116 38.2168C160.116 38.5449 160.318 38.9551 160.721 39.4473L161.326 39.0217C161.559 38.8577 161.718 38.7021 161.803 38.5552C161.889 38.4048 161.931 38.2236 161.931 38.0117C161.931 37.7827 161.846 37.593 161.675 37.4426C161.504 37.2888 161.289 37.2119 161.029 37.2119C160.749 37.2119 160.527 37.3076 160.363 37.499C160.198 37.687 160.116 37.9263 160.116 38.2168ZM174.867 40.5496H171.632V43.1951H175.39V44H170.647V36.5352H175.338V37.3452H171.632V39.7446H174.867V40.5496ZM180.737 42.0518H177.61L176.907 44H175.892L178.743 36.5352H179.604L182.46 44H181.45L180.737 42.0518ZM177.907 41.2417H180.445L179.173 37.7502L177.907 41.2417ZM186.202 40.9802H184.449V44H183.459V36.5352H185.931C186.771 36.5352 187.417 36.7266 187.869 37.1094C188.323 37.4922 188.551 38.0493 188.551 38.7808C188.551 39.2456 188.424 39.6506 188.171 39.9958C187.922 40.3411 187.573 40.5991 187.125 40.77L188.879 43.9385V44H187.823L186.202 40.9802ZM184.449 40.1753H185.961C186.45 40.1753 186.838 40.0488 187.125 39.7959C187.416 39.543 187.561 39.2046 187.561 38.7808C187.561 38.3193 187.423 37.9656 187.146 37.7195C186.872 37.4734 186.476 37.3486 185.956 37.3452H184.449V40.1753ZM195.672 44H194.682L190.924 38.2476V44H189.935V36.5352H190.924L194.693 42.3132V36.5352H195.672V44ZM202.762 40.9802H201.009V44H200.02V36.5352H202.491C203.332 36.5352 203.978 36.7266 204.429 37.1094C204.883 37.4922 205.111 38.0493 205.111 38.7808C205.111 39.2456 204.984 39.6506 204.731 39.9958C204.482 40.3411 204.133 40.5991 203.685 40.77L205.439 43.9385V44H204.383L202.762 40.9802ZM201.009 40.1753H202.521C203.01 40.1753 203.398 40.0488 203.685 39.7959C203.976 39.543 204.121 39.2046 204.121 38.7808C204.121 38.3193 203.983 37.9656 203.706 37.7195C203.432 37.4734 203.036 37.3486 202.516 37.3452H201.009V40.1753ZM210.714 40.5496H207.479V43.1951H211.237V44H206.495V36.5352H211.186V37.3452H207.479V39.7446H210.714V40.5496ZM214.073 41.6467L214.216 42.6311L214.426 41.7441L215.903 36.5352H216.733L218.174 41.7441L218.379 42.6465L218.538 41.6416L219.697 36.5352H220.686L218.876 44H217.979L216.441 38.5603L216.323 37.9912L216.205 38.5603L214.611 44H213.714L211.909 36.5352H212.893L214.073 41.6467ZM225.68 42.0518H222.552L221.85 44H220.835L223.686 36.5352H224.547L227.403 44H226.393L225.68 42.0518ZM222.85 41.2417H225.388L224.116 37.7502L222.85 41.2417ZM231.145 40.9802H229.392V44H228.402V36.5352H230.874C231.714 36.5352 232.36 36.7266 232.812 37.1094C233.266 37.4922 233.493 38.0493 233.493 38.7808C233.493 39.2456 233.367 39.6506 233.114 39.9958C232.865 40.3411 232.516 40.5991 232.068 40.77L233.822 43.9385V44H232.765L231.145 40.9802ZM229.392 40.1753H230.904C231.393 40.1753 231.781 40.0488 232.068 39.7959C232.359 39.543 232.504 39.2046 232.504 38.7808C232.504 38.3193 232.365 37.9656 232.089 37.7195C231.815 37.4734 231.419 37.3486 230.899 37.3452H229.392V40.1753ZM234.878 44V36.5352H236.985C237.634 36.5352 238.208 36.6787 238.708 36.9658C239.207 37.2529 239.591 37.6614 239.861 38.1912C240.135 38.7209 240.273 39.3293 240.276 40.0164V40.4932C240.276 41.1973 240.14 41.8142 239.866 42.344C239.596 42.8738 239.208 43.2805 238.702 43.5642C238.2 43.8479 237.614 43.9932 236.944 44H234.878ZM235.862 37.3452V43.1951H236.898C237.656 43.1951 238.246 42.9592 238.667 42.4875C239.09 42.0159 239.302 41.3442 239.302 40.4727V40.0369C239.302 39.1892 239.102 38.5312 238.702 38.063C238.306 37.5913 237.742 37.3521 237.01 37.3452H235.862ZM243.968 40.6726C243.124 40.4299 242.508 40.1326 242.122 39.7805C241.739 39.425 241.548 38.9875 241.548 38.468C241.548 37.8801 241.782 37.3948 242.25 37.012C242.722 36.6257 243.334 36.4326 244.086 36.4326C244.598 36.4326 245.055 36.5317 245.455 36.73C245.858 36.9282 246.169 37.2017 246.388 37.5503C246.61 37.8989 246.721 38.28 246.721 38.6936H245.731C245.731 38.2424 245.588 37.8887 245.301 37.6323C245.014 37.3726 244.609 37.2427 244.086 37.2427C243.6 37.2427 243.221 37.3503 242.948 37.5657C242.677 37.7776 242.542 38.0732 242.542 38.4526C242.542 38.7568 242.671 39.0149 242.927 39.2268C243.187 39.4353 243.626 39.6267 244.245 39.801C244.867 39.9753 245.352 40.1685 245.701 40.3804C246.053 40.5889 246.312 40.8333 246.48 41.1135C246.651 41.3938 246.736 41.7236 246.736 42.103C246.736 42.708 246.5 43.1934 246.029 43.5591C245.557 43.9214 244.927 44.1025 244.137 44.1025C243.624 44.1025 243.146 44.0051 242.701 43.8103C242.257 43.6121 241.914 43.342 241.671 43.0002C241.432 42.6584 241.312 42.2705 241.312 41.8364H242.302C242.302 42.2876 242.467 42.6448 242.799 42.908C243.134 43.1677 243.58 43.2976 244.137 43.2976C244.656 43.2976 245.055 43.1917 245.332 42.9797C245.608 42.7678 245.747 42.479 245.747 42.1133C245.747 41.7476 245.619 41.4656 245.362 41.2673C245.106 41.0657 244.641 40.8674 243.968 40.6726Z" fill="#F4F4F4"/>
<path d="M16.9356 46.9997C13.3472 46.9997 10.087 46.4308 7.15498 45.293C4.26673 44.1114 1.88174 42.4047 0 40.1729L8.33654 30.3266C9.56185 31.8583 10.7653 32.9961 11.9468 33.74C13.1284 34.4839 14.3537 34.8559 15.6228 34.8559C17.242 34.8559 18.4673 34.3745 19.2988 33.4118C20.174 32.449 20.6116 31.0268 20.6116 29.1451V11.6843H4.98879V0H35.9062V28.2261C35.9062 34.4839 34.287 39.1883 31.0487 42.3391C27.8541 45.4462 23.1498 46.9997 16.9356 46.9997Z" fill="#FFCD29"/>
<path d="M15.9846 17.131H40V27.8045H15.9846V17.131Z" fill="#FFCD29"/>
<path d="M56.632 31.384C55.24 31.384 53.88 31.232 52.552 30.928C51.24 30.608 50.16 30.184 49.312 29.656L51.136 25.528C51.936 25.992 52.832 26.368 53.824 26.656C54.816 26.928 55.768 27.064 56.68 27.064C57.464 27.064 58.024 26.992 58.36 26.848C58.696 26.688 58.864 26.456 58.864 26.152C58.864 25.8 58.64 25.536 58.192 25.36C57.76 25.184 57.04 24.992 56.032 24.784C54.736 24.512 53.656 24.224 52.792 23.92C51.928 23.6 51.176 23.088 50.536 22.384C49.896 21.664 49.576 20.696 49.576 19.48C49.576 18.424 49.872 17.464 50.464 16.6C51.056 15.736 51.936 15.056 53.104 14.56C54.288 14.064 55.72 13.816 57.4 13.816C58.552 13.816 59.68 13.944 60.784 14.2C61.904 14.44 62.888 14.8 63.736 15.28L62.032 19.384C60.384 18.552 58.824 18.136 57.352 18.136C55.896 18.136 55.168 18.488 55.168 19.192C55.168 19.528 55.384 19.784 55.816 19.96C56.248 20.12 56.96 20.296 57.952 20.488C59.232 20.728 60.312 21.008 61.192 21.328C62.072 21.632 62.832 22.136 63.472 22.84C64.128 23.544 64.456 24.504 64.456 25.72C64.456 26.776 64.16 27.736 63.568 28.6C62.976 29.448 62.088 30.128 60.904 30.64C59.736 31.136 58.312 31.384 56.632 31.384ZM69.5551 18.592H64.6351V14.2H80.1391V18.592H75.2191V31H69.5551V18.592ZM92.2144 28.072H85.8304L84.7024 31H78.9424L86.2864 14.2H91.8544L99.1984 31H93.3424L92.2144 28.072ZM90.6544 23.992L89.0224 19.768L87.3904 23.992H90.6544ZM106.942 25.432L105.67 26.848V31H100.102V14.2H105.67V20.296L111.19 14.2H117.358L110.638 21.592L117.694 31H111.142L106.942 25.432ZM118.454 14.2H124.118V31H118.454V14.2ZM143.405 14.2V31H138.749L132.365 23.368V31H126.845V14.2H131.501L137.885 21.832V14.2H143.405ZM157.246 22.144H162.166V29.248C161.174 29.936 160.022 30.464 158.71 30.832C157.398 31.2 156.11 31.384 154.846 31.384C153.054 31.384 151.446 31.016 150.022 30.28C148.598 29.528 147.478 28.488 146.662 27.16C145.862 25.816 145.462 24.296 145.462 22.6C145.462 20.904 145.862 19.392 146.662 18.064C147.478 16.72 148.606 15.68 150.046 14.944C151.502 14.192 153.142 13.816 154.966 13.816C156.614 13.816 158.086 14.096 159.382 14.656C160.694 15.2 161.782 16 162.646 17.056L159.022 20.248C157.966 19.016 156.71 18.4 155.254 18.4C154.006 18.4 153.014 18.776 152.278 19.528C151.542 20.28 151.174 21.304 151.174 22.6C151.174 23.864 151.534 24.88 152.254 25.648C152.99 26.416 153.966 26.8 155.182 26.8C155.902 26.8 156.59 26.664 157.246 26.392V22.144Z" fill="#F4F4F4"/>
</svg>
