<svg width="72" height="72" viewBox="0 0 72 72" fill="none" xmlns="http://www.w3.org/2000/svg">
<path d="M70.6821 34H51.658C51.0474 34 50.519 33.5791 50.3774 32.9842C49.0427 27.3814 44.6209 22.9666 39.0191 21.6498C38.4228 21.5096 38 20.9795 38 20.3661V1.31989C38 0.533339 38.6823 -0.0751819 39.4632 0.00753802C47.773 0.88955 55.4731 4.55628 61.4662 10.5571C67.4424 16.5439 71.101 24.2339 71.9923 32.5326C72.0761 33.3155 71.4681 34 70.6821 34Z" fill="#FF7258"/>
<path d="M38 20.7971V17C46.8553 18.0975 53.8787 25.1253 55 34H51.2057C50.6153 34 50.1044 33.5924 49.9675 33.0163C48.6771 27.5907 44.4017 23.3155 38.9855 22.0403C38.4088 21.9045 38 21.391 38 20.7971Z" fill="#F95D48"/>
<path d="M71.9925 39.4579C71.25 46.4597 68.4968 53.0296 64.0094 58.5065C63.5093 59.1166 62.5841 59.1702 62.021 58.6158L51.2289 47.9925L48.3893 45.1972C47.9498 44.7647 47.8754 44.0931 48.2019 43.5726C49.0712 42.1872 49.7209 40.655 50.1036 39.0229C50.2438 38.4252 50.781 38 51.4041 38H70.6649C71.46 37.9999 72.0752 38.6794 71.9925 39.4579Z" fill="#1DE3B0"/>
<path d="M55 38C54.5802 41.7405 53.1769 45.1687 51.0641 48L48.3694 45.2027C47.9524 44.7698 47.8818 44.0977 48.1916 43.5768C49.0166 42.1904 49.6331 40.6571 49.9962 39.0238C50.1292 38.4256 50.639 38.0001 51.2303 38.0001H55V38Z" fill="#00AF82"/>
<path d="M58.6225 62.0625C59.1663 62.6088 59.115 63.5056 58.5175 63.9918C52.1439 69.1787 44.2592 72 35.941 72C26.3421 72 17.3162 68.2438 10.5272 61.4267C3.77655 54.6466 0.0423534 45.6447 0.000347272 36.0646C-0.0417988 26.4436 3.75387 17.1773 10.5274 10.3742C16.399 4.47677 23.9452 0.873542 32.0889 0.00736689C32.853 -0.0737799 33.5198 0.52575 33.5198 1.29742V20.0135C33.5198 20.6174 33.1038 21.1377 32.5184 21.2758C25.9145 22.8341 20.9831 28.7987 20.9831 35.9014C20.9831 44.184 27.6929 50.9248 35.9408 50.9248C38.8407 50.9248 41.5497 50.0907 43.8445 48.6503C44.3563 48.3291 45.0195 48.4002 45.4462 48.8287L58.6225 62.0625Z" fill="#00A5B9"/>
<path d="M45.346 48.2591L48 50.9029C44.7413 53.4671 40.6224 54.9991 36.1453 55C25.5422 55.0023 17.0282 46.5463 17.0001 35.9837C16.9739 26.2044 24.3385 18.1325 33.8436 17V20.6951C33.8436 21.2727 33.4424 21.7705 32.878 21.9026C26.5088 23.3932 21.7528 29.0988 21.7528 35.893C21.7528 43.8159 28.224 50.2639 36.1787 50.2639C38.9755 50.2639 41.5882 49.4661 43.8014 48.0882C44.2948 47.7811 44.9344 47.8492 45.346 48.2591Z" fill="#088797"/>
</svg>
