<svg width="278" height="327" viewBox="0 0 278 327" fill="none" xmlns="http://www.w3.org/2000/svg">
<path d="M138.999 101.036C104.699 101.036 76.796 128.94 76.796 163.237C76.796 197.536 104.699 225.44 138.999 225.44C173.296 225.44 201.2 197.536 201.2 163.237C201.2 128.94 173.296 101.036 138.999 101.036ZM175.929 151.523L131.367 196.084C129.497 197.955 127.044 198.891 124.593 198.891C122.142 198.891 119.691 197.957 117.82 196.084L100.791 179.055C97.0504 175.317 97.0504 169.252 100.791 165.511C104.53 161.77 110.595 161.77 114.336 165.511L124.593 175.768L162.384 137.979C166.123 134.238 172.188 134.238 175.929 137.979C179.67 141.717 179.67 147.782 175.929 151.523Z" fill="white"/>
<path d="M277.676 88.5775L277.666 88.3235C277.524 85.1877 277.429 81.8701 277.372 78.1789C277.106 60.1785 262.797 45.2891 244.794 44.2829C207.259 42.1882 178.222 29.9489 153.412 5.7666L153.201 5.56486C145.108 -1.85495 132.901 -1.85495 124.807 5.56486L124.595 5.7666C99.785 29.9489 70.7483 42.1882 33.2134 44.2853C15.2131 45.2891 0.901519 60.1785 0.635014 78.1813C0.580218 81.8477 0.48308 85.1653 0.34111 88.3235L0.326166 88.9138C-0.40361 127.188 -1.31023 174.823 14.6253 218.059C23.3876 241.836 36.6581 262.503 54.0656 279.493C73.8916 298.84 99.8597 314.201 131.248 325.145C132.269 325.501 133.33 325.79 134.411 326.006C135.935 326.31 137.469 326.462 139.004 326.462C140.538 326.462 142.075 326.31 143.596 326.006C144.677 325.79 145.746 325.498 146.772 325.14C178.123 314.176 204.063 298.808 223.872 279.463C241.272 262.469 254.542 241.796 263.312 218.014C279.307 174.649 278.403 126.924 277.676 88.5775ZM138.999 244.595C94.1361 244.595 57.6398 208.099 57.6398 163.236C57.6398 118.374 94.1361 81.8775 138.999 81.8775C183.859 81.8775 220.357 118.374 220.357 163.236C220.357 208.099 183.859 244.595 138.999 244.595Z" fill="white"/>
</svg>
