<!--
  - This file is part of the Web3 Library developed by mFactory GmbH.
  -
  - Copyright © 2021, mFactory GmbH
  -
  - Solana Reference Stake Pool is free software: you can redistribute it
  - and/or modify it under the terms of the GNU Affero General Public License
  - as published by the Free Software Foundation, either version 3
  - of the License, or (at your option) any later version.
  -
  - Solana Reference Stake Pool is distributed in the hope that it
  - will be useful, but WITHOUT ANY WARRANTY; without even the implied
  - warranty of MERCHANTABILITY or FITNESS FOR A PARTICULAR PURPOSE.
  - See the GNU Affero General Public License for more details.
  -
  - You should have received a copy of the GNU Affero General Public License
  - along with this program.
  - If not, see <https://www.gnu.org/licenses/agpl-3.0.html>.
  -
  - You can be released from the requirements of the Affero GNU General Public License
  - by purchasing a commercial license. The purchase of such a license is
  - mandatory as soon as you develop commercial activities using the
  - Solana Reference Stake Pool code without disclosing the source code of
  - your own applications.
  -
  - The developer of this program can be contacted at <info@mfactory.ch>.
  -->

<svg width="164" height="70" viewBox="0 0 164 70" fill="none" xmlns="http://www.w3.org/2000/svg">
<rect width="164" height="70" rx="35" fill="white"/>
<path d="M140.03 17.2433L101.055 32.3131C98.3946 33.3843 98.41 34.8722 100.567 35.5356L110.573 38.6655L133.725 24.0189C134.82 23.351 135.82 23.7103 134.998 24.4421L116.24 41.4163H116.236L116.24 41.4185L115.55 51.7604C116.561 51.7604 117.007 51.2954 117.575 50.7465L122.435 46.0076L132.545 53.4951C134.409 54.5244 135.748 53.9954 136.212 51.7648L142.848 20.404C143.528 17.6731 141.808 16.4366 140.03 17.2433Z" fill="#609ECC"/>
<path d="M28.486 33.156C27.5413 33.156 26.6877 32.9523 25.925 32.545C25.171 32.1377 24.5773 31.5787 24.144 30.868C23.7193 30.1487 23.507 29.3427 23.507 28.45C23.507 27.5573 23.7193 26.7557 24.144 26.045C24.5773 25.3257 25.171 24.7623 25.925 24.355C26.6877 23.9477 27.5413 23.744 28.486 23.744C29.4307 23.744 30.28 23.9477 31.034 24.355C31.788 24.7623 32.3817 25.3257 32.815 26.045C33.2483 26.7557 33.465 27.5573 33.465 28.45C33.465 29.3427 33.2483 30.1487 32.815 30.868C32.3817 31.5787 31.788 32.1377 31.034 32.545C30.28 32.9523 29.4307 33.156 28.486 33.156ZM28.486 31.362C29.0233 31.362 29.5087 31.2407 29.942 30.998C30.3753 30.7467 30.7133 30.4 30.956 29.958C31.2073 29.516 31.333 29.0133 31.333 28.45C31.333 27.8867 31.2073 27.384 30.956 26.942C30.7133 26.5 30.3753 26.1577 29.942 25.915C29.5087 25.6637 29.0233 25.538 28.486 25.538C27.9487 25.538 27.4633 25.6637 27.03 25.915C26.5967 26.1577 26.2543 26.5 26.003 26.942C25.7603 27.384 25.639 27.8867 25.639 28.45C25.639 29.0133 25.7603 29.516 26.003 29.958C26.2543 30.4 26.5967 30.7467 27.03 30.998C27.4633 31.2407 27.9487 31.362 28.486 31.362ZM37.8037 25.59V27.995H42.0157V29.685H37.8037V33H35.6977V23.9H42.5748V25.59H37.8037ZM46.7565 25.59V27.995H50.9685V29.685H46.7565V33H44.6505V23.9H51.5275V25.59H46.7565ZM53.6032 23.9H55.7092V33H53.6032V23.9ZM62.8738 33.156C61.9465 33.156 61.1058 32.9567 60.3518 32.558C59.6065 32.1507 59.0172 31.5917 58.5838 30.881C58.1592 30.1617 57.9468 29.3513 57.9468 28.45C57.9468 27.5487 58.1592 26.7427 58.5838 26.032C59.0172 25.3127 59.6065 24.7537 60.3518 24.355C61.1058 23.9477 61.9508 23.744 62.8868 23.744C63.6755 23.744 64.3862 23.8827 65.0188 24.16C65.6602 24.4373 66.1975 24.836 66.6308 25.356L65.2788 26.604C64.6635 25.8933 63.9008 25.538 62.9908 25.538C62.4275 25.538 61.9248 25.6637 61.4828 25.915C61.0408 26.1577 60.6942 26.5 60.4428 26.942C60.2002 27.384 60.0788 27.8867 60.0788 28.45C60.0788 29.0133 60.2002 29.516 60.4428 29.958C60.6942 30.4 61.0408 30.7467 61.4828 30.998C61.9248 31.2407 62.4275 31.362 62.9908 31.362C63.9008 31.362 64.6635 31.0023 65.2788 30.283L66.6308 31.531C66.1975 32.0597 65.6602 32.4627 65.0188 32.74C64.3775 33.0173 63.6625 33.156 62.8738 33.156ZM68.703 23.9H70.809V33H68.703V23.9ZM79.6117 31.05H75.3867L74.5807 33H72.4226L76.4787 23.9H78.5587L82.6277 33H80.4177L79.6117 31.05ZM78.9487 29.451L77.5057 25.967L76.0627 29.451H78.9487ZM84.2218 23.9H86.3278V31.284H90.8908V33H84.2218V23.9ZM28.434 49.156C27.5067 49.156 26.666 48.9567 25.912 48.558C25.1667 48.1507 24.5773 47.5917 24.144 46.881C23.7193 46.1617 23.507 45.3513 23.507 44.45C23.507 43.5487 23.7193 42.7427 24.144 42.032C24.5773 41.3127 25.1667 40.7537 25.912 40.355C26.666 39.9477 27.511 39.744 28.447 39.744C29.2357 39.744 29.9463 39.8827 30.579 40.16C31.2203 40.4373 31.7577 40.836 32.191 41.356L30.839 42.604C30.2237 41.8933 29.461 41.538 28.551 41.538C27.9877 41.538 27.485 41.6637 27.043 41.915C26.601 42.1577 26.2543 42.5 26.003 42.942C25.7603 43.384 25.639 43.8867 25.639 44.45C25.639 45.0133 25.7603 45.516 26.003 45.958C26.2543 46.4 26.601 46.7467 27.043 46.998C27.485 47.2407 27.9877 47.362 28.551 47.362C29.461 47.362 30.2237 47.0023 30.839 46.283L32.191 47.531C31.7577 48.0597 31.2203 48.4627 30.579 48.74C29.9377 49.0173 29.2227 49.156 28.434 49.156ZM41.9592 39.9V49H39.8532V45.269H35.7192V49H33.6132V39.9H35.7192V43.488H39.8532V39.9H41.9592ZM50.1052 47.05H45.8802L45.0742 49H42.9162L46.9722 39.9H49.0522L53.1212 49H50.9112L50.1052 47.05ZM49.4422 45.451L47.9992 41.967L46.5562 45.451H49.4422ZM62.4113 39.9V49H60.6823L56.1453 43.475V49H54.0653V39.9H55.8073L60.3313 45.425V39.9H62.4113ZM72.9104 39.9V49H71.1814L66.6444 43.475V49H64.5644V39.9H66.3064L70.8304 45.425V39.9H72.9104ZM82.1094 47.31V49H75.0634V39.9H81.9404V41.59H77.1564V43.566H81.3814V45.204H77.1564V47.31H82.1094ZM83.7851 39.9H85.8911V47.284H90.4541V49H83.7851V39.9Z" fill="#609ECC"/>
</svg>
