<svg width="186" height="154" viewBox="0 0 186 154" fill="none" xmlns="http://www.w3.org/2000/svg">
<path d="M185.171 150.278V150.186C185.174 150.145 185.174 150.104 185.171 150.063L94.7295 1.25733L94.6066 1.07297C94.4385 0.813333 94.2208 0.58943 93.9659 0.414099C93.7111 0.238767 93.4242 0.115454 93.1216 0.0512282C92.819 -0.0129973 92.5068 -0.0168719 92.2027 0.0398265C91.8986 0.0965249 91.6087 0.212681 91.3496 0.381636C91.0734 0.553813 90.8333 0.778202 90.6429 1.04224L90.52 1.24196C84.4568 11.2586 78.3526 21.2497 72.2074 31.2151C71.6008 32.0877 71.2756 33.1251 71.2756 34.1878C71.2756 35.2506 71.6008 36.2879 72.2074 37.1606C80.3293 50.3727 88.4256 63.59 96.4962 76.8124C97.1552 77.7563 97.5085 78.8798 97.5085 80.0309C97.5085 81.1821 97.1552 82.3055 96.4962 83.2495C83.1919 105.126 69.1348 128.125 55.7076 150.094C55.4128 150.648 55.3491 151.297 55.5304 151.898C55.7117 152.5 56.1232 153.005 56.6754 153.305C57.0154 153.487 57.3956 153.582 57.7816 153.581H96.7881C97.2168 153.584 97.638 153.469 98.0062 153.25C98.3745 153.031 98.6758 152.715 98.8775 152.337L100.214 150.094L118.296 120.382C118.444 120.108 118.645 119.866 118.887 119.671C119.129 119.475 119.407 119.33 119.706 119.242C120.005 119.155 120.318 119.128 120.627 119.163C120.936 119.198 121.235 119.293 121.507 119.445C121.836 119.618 122.116 119.872 122.321 120.182L140.235 149.372L141.894 152.091C142.099 152.462 142.399 152.771 142.764 152.987C143.128 153.203 143.544 153.318 143.968 153.32H145.059C145.243 153.335 145.428 153.335 145.612 153.32H182.974C183.599 153.32 184.199 153.073 184.642 152.632C185.085 152.192 185.336 151.594 185.34 150.969C185.319 150.732 185.262 150.499 185.171 150.278Z" fill="black"/>
<path d="M81.1942 84.7234L82.5001 82.5726C83.0387 81.7995 83.3275 80.88 83.3275 79.9378C83.3275 78.9957 83.0387 78.0761 82.5001 77.3031L74.4806 64.306L65.2628 49.45C65.1009 49.1841 64.8877 48.9531 64.6358 48.7703C64.3838 48.5874 64.098 48.4565 63.795 48.385C63.492 48.3136 63.1778 48.303 62.8707 48.354C62.5635 48.4049 62.2696 48.5164 62.0059 48.6819C61.6513 48.8934 61.3596 49.1957 61.1609 49.5576L0.277501 150.108C-0.0165533 150.661 -0.0798058 151.307 0.101588 151.906C0.282982 152.505 0.694247 153.007 1.24537 153.304C1.58605 153.5 1.97355 153.601 2.36686 153.596H38.1318C38.556 153.595 38.9723 153.481 39.3371 153.265C39.702 153.049 40.002 152.738 40.2058 152.367L41.5732 150.093C41.6348 150.009 41.6913 149.922 41.7421 149.832L43.2784 147.374C56.0143 126.25 68.2125 106.078 80.9792 85.0614C81.0581 84.9535 81.13 84.8406 81.1942 84.7234Z" fill="black"/>
</svg>
