<!--
  - This file is part of the Web3 Library developed by mFactory GmbH.
  -
  - Copyright © 2021, mFactory GmbH
  -
  - Solana Reference Stake Pool is free software: you can redistribute it
  - and/or modify it under the terms of the GNU Affero General Public License
  - as published by the Free Software Foundation, either version 3
  - of the License, or (at your option) any later version.
  -
  - Solana Reference Stake Pool is distributed in the hope that it
  - will be useful, but WITHOUT ANY WARRANTY; without even the implied
  - warranty of MERCHANTABILITY or FITNESS FOR A PARTICULAR PURPOSE.
  - See the GNU Affero General Public License for more details.
  -
  - You should have received a copy of the GNU Affero General Public License
  - along with this program.
  - If not, see <https://www.gnu.org/licenses/agpl-3.0.html>.
  -
  - You can be released from the requirements of the Affero GNU General Public License
  - by purchasing a commercial license. The purchase of such a license is
  - mandatory as soon as you develop commercial activities using the
  - Solana Reference Stake Pool code without disclosing the source code of
  - your own applications.
  -
  - The developer of this program can be contacted at <info@mfactory.ch>.
  -->

<svg width="285" height="285" viewBox="0 0 285 285" fill="none" xmlns="http://www.w3.org/2000/svg">
  <path d="M284.094 142.097C284.094 220.582 220.496 284.204 142.043 284.204C63.5965 284.204 0 220.582 0 142.097C0 63.6215 63.5965 0 142.043 0C220.496 0 284.094 63.6215 284.094 142.097Z" fill="#EBECE8"/>
  <mask id="mask0" mask-type="alpha" maskUnits="userSpaceOnUse" x="0" y="0" width="285" height="285">
    <path d="M284.094 142.097C284.094 220.582 220.496 284.204 142.043 284.204C63.5965 284.204 0 220.582 0 142.097C0 63.6215 63.5965 0 142.043 0C220.496 0 284.094 63.6215 284.094 142.097Z" fill="#EBECE8"/>
  </mask>
  <g mask="url(#mask0)">
    <path d="M227.613 131.222C227.613 133.644 227.505 136.037 227.323 138.407C226.982 142.436 226.371 146.371 225.513 150.212C224.319 155.558 222.617 160.708 220.472 165.604C218.45 170.279 216.02 174.731 213.227 178.913C211.01 182.252 208.557 185.423 205.91 188.413C205.256 189.147 204.593 189.867 203.917 190.573C201.713 192.916 199.372 195.103 196.92 197.155C196.294 197.693 195.661 198.209 195.023 198.719C191.974 201.147 188.746 203.389 185.37 205.382C184.329 206.007 183.26 206.603 182.184 207.186C173.55 211.841 164.022 215.055 153.948 216.516C149.854 217.127 145.657 217.434 141.402 217.434C137.205 217.434 133.088 217.127 129.059 216.546C118.891 215.092 109.29 211.854 100.591 207.186C99.1645 206.408 97.7531 205.607 96.3938 204.763C92.2397 202.226 88.3351 199.345 84.6911 196.144C84.2908 195.809 83.8756 195.453 83.4976 195.09C80.7697 192.623 78.1946 189.975 75.8093 187.169C75.3662 186.652 74.923 186.128 74.4929 185.59C70.8936 181.168 67.7208 176.39 65.0451 171.305C64.7825 170.817 64.5349 170.324 64.2891 169.836C62.2074 165.684 60.4478 161.334 59.0364 156.832C58.7608 155.929 58.4983 155.027 58.2581 154.119C56.9714 149.464 56.0702 144.656 55.5898 139.709C55.5172 138.887 55.4371 138.059 55.3775 137.214C55.2546 135.236 55.182 133.236 55.182 131.222C55.182 130.013 55.2118 128.821 55.2546 127.628C55.2695 127.032 55.3049 126.449 55.3496 125.853C55.5749 121.947 56.0832 118.1 56.8336 114.346C57.0012 113.503 57.1818 112.667 57.3717 111.838C58.0625 108.848 58.8986 105.909 59.8948 103.059C60.2523 102.018 60.6303 100.979 61.0306 99.9678C62.2372 96.8247 63.6486 93.7766 65.2127 90.8384C66.4565 88.496 67.8008 86.2132 69.2569 84.0085C70.1879 82.5692 71.1692 81.1727 72.1952 79.7985C73.3143 78.2773 74.4929 76.8082 75.7218 75.3893C77.8613 72.8588 80.1441 70.4736 82.5517 68.2466C83.3747 67.4683 84.2033 66.7198 85.0617 65.9862C88.2904 63.1783 91.7239 60.6254 95.353 58.3408C96.5763 57.5624 97.8183 56.8065 99.0844 56.1082C100.924 55.0599 102.808 54.0786 104.736 53.1774C105.937 52.6169 107.143 52.0788 108.372 51.5686C111.981 50.0716 115.705 48.8129 119.552 47.8018C121.479 47.2991 123.436 46.8708 125.43 46.5003C128.433 45.9398 131.482 45.5246 134.587 45.2788C136.15 45.154 137.729 45.074 139.322 45.0442C140.013 45.0311 140.697 45.0162 141.402 45.0162C143.059 45.0162 144.696 45.0665 146.318 45.154C147.359 45.2192 148.4 45.2918 149.424 45.3868C153.759 45.7871 157.985 46.5077 162.095 47.5318C163.048 47.759 163.979 48.0048 164.91 48.2673C169.55 49.5837 174.023 51.2707 178.315 53.3078C179.536 53.8887 180.737 54.4864 181.929 55.1269C184.163 56.3037 186.323 57.5922 188.438 58.9738C188.803 59.2215 189.189 59.4617 189.552 59.7093C192.498 61.7017 195.328 63.8765 197.996 66.2189C199.771 67.7309 201.452 69.3378 203.081 71.0266C205.619 73.6148 207.997 76.3575 210.172 79.253C210.617 79.819 211.045 80.3869 211.438 80.9679C213.583 83.9359 215.525 87.0269 217.272 90.2649C217.599 90.8458 217.905 91.4417 218.195 92.0245C221.053 97.618 223.323 103.539 224.915 109.743C225.731 112.899 226.356 116.113 226.8 119.394C227.338 123.256 227.613 127.213 227.613 131.222Z" fill="#454545"/>
    <path d="M88.6107 189.497C88.6107 189.577 88.6108 189.649 88.5959 189.729C88.5232 192.5 86.9739 194.886 84.6911 196.144C84.3988 196.312 84.1084 196.464 83.7881 196.572C82.9298 196.93 81.9783 197.11 81.0026 197.11C76.8056 197.11 73.4019 193.694 73.4019 189.497C73.4019 188.776 73.5117 188.07 73.6923 187.402C73.8748 186.754 74.1521 186.143 74.4929 185.59C75.8093 183.386 78.2245 181.901 81.0026 181.901C81.6859 181.901 82.3488 181.996 82.9744 182.164C83.9557 182.404 84.8439 182.847 85.6073 183.453C86.2683 183.953 86.8363 184.549 87.3092 185.24C88.1378 186.448 88.6107 187.918 88.6107 189.497Z" fill="#454545"/>
    <path d="M67.7656 107.516C67.7656 108.985 67.3355 110.369 66.6019 111.532C65.2705 113.692 62.8853 115.109 60.1575 115.109C58.9639 115.109 57.8447 114.834 56.8336 114.346C56.2806 114.086 55.778 113.75 55.3125 113.379C53.633 111.99 52.5567 109.873 52.5567 107.516C52.5567 104.12 54.7818 101.254 57.83 100.273C58.5636 100.025 59.3419 99.9004 60.1575 99.9004C60.4479 99.9004 60.7382 99.9231 61.0306 99.9678C64.4269 100.338 67.14 102.956 67.6632 106.309C67.7358 106.702 67.7656 107.103 67.7656 107.516Z" fill="#454545"/>
    <path d="M110.374 56.718C110.374 58.3696 109.836 59.9188 108.948 61.1551C107.907 62.6094 106.344 63.6782 104.555 64.1083C103.987 64.2461 103.391 64.3261 102.781 64.3261C99.1348 64.3261 96.0885 61.7669 95.353 58.3408C95.2301 57.8175 95.165 57.2635 95.165 56.7105C95.165 56.0421 95.2581 55.3941 95.4256 54.7833C96.2691 51.5248 99.2521 49.1173 102.781 49.1173C103.587 49.1173 104.358 49.2401 105.093 49.4729C106.357 49.8807 107.478 50.6013 108.367 51.5677C109.61 52.9139 110.374 54.7256 110.374 56.718Z" fill="#454545"/>
    <path d="M189.567 59.9767C189.567 64.1737 186.163 67.5774 181.966 67.5774C177.762 67.5774 174.358 64.1737 174.358 59.9767C174.358 55.7797 177.762 52.376 181.966 52.376C186.163 52.376 189.567 55.7797 189.567 59.9767Z" fill="#454545"/>
    <path d="M66.2014 132.712C66.2014 133.671 66.019 134.61 65.6857 135.446C64.5796 138.298 61.822 140.319 58.5933 140.319C57.517 140.319 56.5059 140.109 55.5898 139.709C54.9642 139.433 54.3814 139.069 53.8433 138.654C52.1135 137.257 51 135.112 51 132.712C51 130.122 52.2866 127.838 54.2585 126.463C54.5937 126.231 54.9642 126.021 55.3496 125.853C56.3234 125.373 57.4295 125.11 58.5933 125.11C61.809 125.11 64.5647 127.104 65.6708 129.925C66.019 130.776 66.2014 131.729 66.2014 132.712Z" fill="#454545"/>
    <path d="M207.211 192.668C207.211 196.865 203.808 200.268 199.605 200.268C195.408 200.268 192.004 196.865 192.004 192.668C192.004 188.471 195.408 185.067 199.605 185.067C203.808 185.067 207.211 188.471 207.211 192.668Z" fill="#454545"/>
    <path d="M215.032 183.823C215.032 188.02 211.628 191.423 207.431 191.423C203.227 191.423 199.823 188.02 199.823 183.823C199.823 179.626 203.227 176.222 207.431 176.222C211.628 176.222 215.032 179.626 215.032 183.823Z" fill="#454545"/>
    <path d="M197.16 199.032C197.16 203.229 193.757 206.633 189.56 206.633C185.363 206.633 181.959 203.229 181.959 199.032C181.959 194.828 185.363 191.424 189.56 191.424C193.757 191.424 197.16 194.828 197.16 199.032Z" fill="#454545"/>
    <path d="M149.599 46.9862C149.599 49.8239 148.05 52.2892 145.752 53.5907C144.631 54.2387 143.344 54.6018 141.983 54.6018C141.788 54.6018 141.598 54.6018 141.402 54.5738C139.918 54.464 138.55 53.9259 137.438 53.0675C135.584 51.6933 134.39 49.4738 134.39 46.9862C134.39 46.3903 134.448 45.8225 134.587 45.2788C134.986 43.495 136.027 41.968 137.438 40.929C138.55 40.0707 139.918 39.5325 141.402 39.4227C141.598 39.3929 141.788 39.3929 141.983 39.3929C144.588 39.3929 146.886 40.6963 148.247 42.6886C148.798 43.4819 149.213 44.4054 149.424 45.3792C149.534 45.9025 149.599 46.4406 149.599 46.9862Z" fill="#454545"/>
    <path d="M222.632 85.0997C222.632 89.3041 219.229 92.7079 215.032 92.7079C210.835 92.7079 207.431 89.3041 207.431 85.0997C207.431 80.9027 210.835 77.499 215.032 77.499C219.229 77.499 222.632 80.9027 222.632 85.0997Z" fill="#454545"/>
    <path d="M84.6911 176.223C84.6911 177.459 84.4937 178.638 84.1083 179.757C83.8327 180.615 83.4474 181.408 82.9744 182.164C81.3955 184.689 78.8277 186.544 75.8093 187.169C75.1334 187.322 74.4129 187.402 73.6923 187.402C73.6346 187.415 73.5544 187.415 73.4967 187.415C67.3074 187.415 62.2818 182.405 62.2818 176.215C62.2818 174.396 62.725 172.666 63.4958 171.152C63.7211 170.687 63.9837 170.244 64.2891 169.829C66.3112 166.92 69.6852 165.006 73.4967 165.006C73.8169 165.006 74.1372 165.021 74.4575 165.058C76.7701 165.254 78.8872 166.155 80.5891 167.551C83.0972 169.603 84.6911 172.731 84.6911 176.223Z" fill="#454545"/>
    <path d="M105.812 193.721C105.812 198.654 102.628 202.836 98.1981 204.326C97.6153 204.523 97.0195 204.676 96.3938 204.771C95.811 204.871 95.2152 204.923 94.597 204.923C89.3889 204.923 85.0245 201.38 83.7881 196.572C83.6504 196.101 83.5423 195.591 83.4976 195.09C83.4324 194.645 83.4026 194.187 83.4026 193.729C83.4026 190.631 84.6613 187.845 86.6686 185.823C86.879 185.612 87.0988 185.408 87.3092 185.24C89.2736 183.525 91.8114 182.514 94.597 182.514C100.786 182.514 105.812 187.54 105.812 193.721Z" fill="#454545"/>
    <path d="M78.9655 95.093C78.9655 101.284 73.9549 106.31 67.7655 106.31L67.6632 106.309C64.6449 106.272 61.902 105.051 59.8948 103.059C59.0662 102.266 58.3681 101.312 57.83 100.273C57.0144 98.7236 56.5563 96.9625 56.5563 95.093C56.5563 90.4529 59.394 86.4738 63.4159 84.7868C64.7472 84.2058 66.2238 83.9005 67.7655 83.9005C68.2739 83.9005 68.7617 83.9284 69.2496 84.0085C74.2174 84.649 78.1369 88.5406 78.8277 93.4861C78.9152 94.0093 78.9655 94.5418 78.9655 95.093Z" fill="#454545"/>
    <path d="M181.959 54.5944C181.959 60.7856 176.948 65.8037 170.757 65.8037C164.568 65.8037 159.557 60.7856 159.557 54.5944C159.557 48.4125 164.568 43.3944 170.757 43.3944C176.948 43.3944 181.959 48.4125 181.959 54.5944Z" fill="#454545"/>
    <path d="M127.095 52.3689C127.095 53.8026 126.827 55.1842 126.317 56.456C124.695 60.6176 120.636 63.5782 115.887 63.5782C113.268 63.5782 110.847 62.6745 108.948 61.1551C106.547 59.2708 104.955 56.421 104.736 53.1774C104.708 52.9149 104.693 52.6389 104.693 52.3689C104.693 51.3727 104.831 50.3909 105.093 49.4729C106.344 44.695 110.694 41.167 115.887 41.167C117.617 41.167 119.254 41.5674 120.708 42.2731C122.673 43.1892 124.309 44.6587 125.43 46.5003C126.484 48.2021 127.095 50.209 127.095 52.3689Z" fill="#454545"/>
    <path d="M73.4018 146.095C73.4018 148.757 72.4708 151.208 70.9067 153.12C68.8567 155.667 65.7136 157.289 62.1944 157.289C61.1033 157.289 60.0325 157.137 59.0364 156.832C58.2581 156.612 57.4947 156.293 56.789 155.893C53.3424 153.993 51 150.321 51 146.095C51 143.229 52.0688 140.626 53.8433 138.647C54.2883 138.116 54.8115 137.621 55.3775 137.214C57.2619 135.739 59.6341 134.88 62.1944 134.88C63.4159 134.88 64.5796 135.083 65.6857 135.446C70.1582 136.907 73.4018 141.134 73.4018 146.095Z" fill="#454545"/>
    <path d="M212.173 77.0057C212.173 83.195 207.153 88.2056 200.972 88.2056C194.782 88.2056 189.762 83.195 189.762 77.0057C189.762 70.8145 194.782 65.8038 200.972 65.8038C207.153 65.8038 212.173 70.8145 212.173 77.0057Z" fill="#454545"/>
    <path d="M228.624 101.436C228.624 107.626 223.606 112.644 217.424 112.644C211.235 112.644 206.215 107.626 206.215 101.436C206.215 95.2452 211.235 90.2345 217.424 90.2345C223.606 90.2345 228.624 95.2452 228.624 101.436Z" fill="#454545"/>
    <path d="M104.693 65.7963C104.693 71.9856 99.6672 77.0056 93.4835 77.0056C92.5748 77.0056 91.7016 76.9032 90.8655 76.6854C86.7263 75.7022 83.4827 72.4158 82.5442 68.2467C82.3636 67.4684 82.2686 66.6398 82.2686 65.7963C82.2686 65.6008 82.2686 65.396 82.304 65.2005C82.5889 59.2867 87.4916 54.6019 93.4835 54.6019C94.1389 54.6019 94.7999 54.6615 95.4256 54.7844C96.742 54.9948 97.9858 55.4603 99.0844 56.1009C101.98 57.7729 104.045 60.6833 104.555 64.1094C104.648 64.6624 104.693 65.2154 104.693 65.7963Z" fill="#454545"/>
    <path d="M75.1763 161.319C75.1763 162.636 74.923 163.907 74.4575 165.058C72.9735 168.715 69.3724 171.305 65.1829 171.305L65.0451 171.305C64.507 171.29 64.0042 171.24 63.4958 171.152C58.7757 170.352 55.182 166.25 55.182 161.319C55.182 159.312 55.7649 157.457 56.789 155.893C57.2042 155.252 57.692 154.657 58.2581 154.119C60.0474 152.372 62.4848 151.318 65.1829 151.318C67.3074 151.318 69.2849 151.993 70.9067 153.12C73.4968 154.932 75.1763 157.915 75.1763 161.319Z" fill="#454545"/>
    <path d="M83.4027 85.0921C83.4027 88.6206 81.5779 91.7116 78.8277 93.4861C77.2636 94.5121 75.3942 95.0929 73.4019 95.0929C70.0205 95.0929 67.0301 93.4059 65.2053 90.8382C64.0769 89.209 63.401 87.2241 63.401 85.0921C63.401 84.9841 63.401 84.8966 63.4159 84.7868C63.5388 80.2267 66.7545 76.4374 71.0315 75.3966C71.7801 75.2011 72.5733 75.1061 73.4019 75.1061C74.2025 75.1061 74.9809 75.2011 75.7145 75.3817C80.0362 76.4076 83.2649 80.2266 83.3878 84.8016C83.4027 84.8965 83.4027 85.0045 83.4027 85.0921Z" fill="#454545"/>
    <path d="M165.063 49.9842C165.063 55.505 160.588 59.9776 155.069 59.9776C149.549 59.9776 145.074 55.505 145.074 49.9842C145.074 44.4633 149.549 39.9833 155.069 39.9833C160.588 39.9833 165.063 44.4633 165.063 49.9842Z" fill="#454545"/>
    <path d="M72.2827 120.523C72.2827 122.187 71.8898 123.751 71.1692 125.126C70.0204 127.353 68.0559 129.082 65.6707 129.92C64.615 130.306 63.4661 130.524 62.2874 130.524C59.5466 130.524 57.0664 129.417 55.2546 127.628C54.8915 127.257 54.5489 126.872 54.2585 126.464C53.0221 124.805 52.3015 122.755 52.3015 120.523C52.3015 117.722 53.4504 115.19 55.3124 113.388C55.9305 112.769 56.6158 112.252 57.3643 111.838C58.8185 111.008 60.4925 110.535 62.2819 110.535C63.831 110.535 65.3003 110.884 66.6019 111.532C68.0133 112.186 69.2346 113.168 70.1879 114.391C71.5044 116.078 72.2827 118.208 72.2827 120.523Z" fill="#454545"/>
    <path d="M234 128.981C234 134.5 229.52 138.974 224.007 138.974C218.486 138.974 214.013 134.5 214.013 128.981C214.013 123.467 218.486 118.986 224.007 118.986C229.52 118.986 234 123.467 234 128.981Z" fill="#454545"/>
    <path d="M227.418 156.081C227.418 161.602 222.938 166.074 217.424 166.074C211.904 166.074 207.431 161.602 207.431 156.081C207.431 150.56 211.904 146.087 217.424 146.087C222.938 146.087 227.418 150.56 227.418 156.081Z" fill="#454545"/>
    <path d="M91.0034 75.1067C91.0034 75.6448 90.953 76.1826 90.8655 76.6854C90.2473 80.6701 87.2664 83.8557 83.3878 84.8016C82.6244 85.0045 81.8256 85.0926 81.0026 85.0926C77.1836 85.0926 73.8598 82.9472 72.1952 79.7985C71.4746 78.4821 71.0595 76.9905 71.0315 75.3966C71.0167 75.3016 71.0166 75.2017 71.0166 75.1067C71.0166 69.5784 75.4817 65.1059 81.0026 65.1059C81.4458 65.1059 81.8757 65.1409 82.304 65.2005C83.2648 65.3234 84.2034 65.5863 85.0618 65.9791C88.5679 67.5134 91.0034 71.0196 91.0034 75.1067Z" fill="#454545"/>
    <path d="M203.75 67.4178C203.75 72.9386 199.277 77.4112 193.756 77.4112C188.236 77.4112 183.756 72.9386 183.756 67.4178C183.756 61.8969 188.236 57.4169 193.756 57.4169C199.277 57.4169 203.75 61.8969 203.75 67.4178Z" fill="#454545"/>
    <path d="M139.503 46.9859C139.503 49.2706 138.74 51.3879 137.438 53.0675C135.612 55.4602 132.746 56.9887 129.517 56.9887C128.396 56.9887 127.313 56.806 126.317 56.456C122.6 55.2122 119.872 51.8461 119.552 47.8018C119.531 47.5262 119.516 47.2634 119.516 46.9859C119.516 45.2915 119.945 43.6846 120.715 42.2732C122.382 39.132 125.706 37 129.517 37C132.746 37 135.612 38.5343 137.438 40.9214C138.354 42.1056 139.015 43.5099 139.322 45.0442C139.445 45.6698 139.503 46.3175 139.503 46.9859Z" fill="#454545"/>
    <path d="M135.881 117.379C135.881 122.9 131.409 127.372 125.888 127.372C120.367 127.372 115.887 122.9 115.887 117.379C115.887 111.858 120.367 107.378 125.888 107.378C131.409 107.378 135.881 111.858 135.881 117.379Z" fill="#454545"/>
    <path d="M112.766 115.117C112.766 120.638 108.292 125.11 102.773 125.11C97.2522 125.11 92.7778 120.638 92.7778 115.117C92.7778 109.596 97.2522 105.116 102.773 105.116C108.292 105.116 112.766 109.596 112.766 115.117Z" fill="#454545"/>
    <path d="M89.0407 118.986C89.0407 124.507 84.5663 128.989 79.0454 128.989C73.5264 128.989 69.052 124.507 69.052 118.986C69.052 113.467 73.5264 108.993 79.0454 108.993C84.5663 108.993 89.0407 113.467 89.0407 118.986Z" fill="#454545"/>
    <path d="M165.063 116.296C165.063 121.817 160.588 126.289 155.069 126.289C149.549 126.289 145.074 121.817 145.074 116.296C145.074 110.775 149.549 106.302 155.069 106.302C160.588 106.302 165.063 110.775 165.063 116.296Z" fill="#454545"/>
    <path d="M195.283 116.296C195.283 121.817 190.811 126.289 185.29 126.289C179.769 126.289 175.297 121.817 175.297 116.296C175.297 110.775 179.769 106.302 185.29 106.302C190.811 106.302 195.283 110.775 195.283 116.296Z" fill="#454545"/>
    <path d="M216.02 125.766C216.02 131.287 211.548 135.759 206.027 135.759C200.506 135.759 196.034 131.287 196.034 125.766C196.034 120.245 200.506 115.772 206.027 115.772C211.548 115.772 216.02 120.245 216.02 125.766Z" fill="#454545"/>
    <path d="M149.003 118.128C149.003 122.325 145.599 125.73 141.395 125.73C137.198 125.73 133.794 122.325 133.794 118.128C133.794 113.932 137.198 110.527 141.395 110.527C145.599 110.527 149.003 113.932 149.003 118.128Z" fill="#454545"/>
    <path d="M97.485 117.379C97.485 121.576 94.0812 124.98 89.8768 124.98C85.6798 124.98 82.2761 121.576 82.2761 117.379C82.2761 113.175 85.6798 109.771 89.8768 109.771C94.0812 109.771 97.485 113.175 97.485 117.379Z" fill="#454545"/>
    <path d="M123.495 117.379C123.495 121.576 120.09 124.98 115.887 124.98C111.69 124.98 108.286 121.576 108.286 117.379C108.286 113.175 111.69 109.771 115.887 109.771C120.09 109.771 123.495 113.175 123.495 117.379Z" fill="#454545"/>
    <path d="M178.358 119.764C178.358 123.969 174.954 127.373 170.757 127.373C166.56 127.373 163.156 123.969 163.156 119.764C163.156 115.569 166.56 112.164 170.757 112.164C174.954 112.164 178.358 115.569 178.358 119.764Z" fill="#454545"/>
    <path d="M202.891 119.764C202.891 123.969 199.488 127.373 195.283 127.373C191.086 127.373 187.682 123.969 187.682 119.764C187.682 115.569 191.086 112.164 195.283 112.164C199.488 112.164 202.891 115.569 202.891 119.764Z" fill="#454545"/>
    <path d="M77.5115 162.883C82.0864 162.883 85.7955 159.179 85.7955 154.597V114.819H77.5115V162.883Z" fill="#454545"/>
    <path d="M197 114.819H205.277V162.89C200.702 162.89 197 159.179 197 154.604V114.819Z" fill="#454545"/>
    <path d="M222.633 295.281V295.294H60.1575V295.281C60.1575 272.747 69.3148 283.381 84.1383 268.675C84.6913 268.129 85.2443 267.591 85.8104 267.053C88.0727 264.943 90.4505 262.951 92.9307 261.096C93.696 260.528 94.4799 259.96 95.2582 259.43C96.867 258.324 98.5241 257.27 100.206 256.288C101.004 255.816 101.812 255.35 102.628 254.907C102.641 254.877 102.671 254.877 102.671 254.877C103.332 254.527 103.972 254.142 104.62 253.743C105.108 253.466 105.579 253.175 106.045 252.855C107.449 251.954 108.832 250.971 110.134 249.932V249.917C117.53 244.018 123.255 236.134 126.506 227.049C127.713 223.696 128.571 220.167 129.059 216.538C129.35 214.306 129.502 212.021 129.502 209.708L141.41 209.774L153.52 209.831C153.52 212.101 153.673 214.321 153.949 216.509C154.422 220.125 155.265 223.644 156.444 226.982C159.672 236.082 165.376 244.003 172.759 249.945C173.304 250.375 173.855 250.803 174.423 251.218C174.423 251.218 174.438 251.218 174.453 251.233C174.881 251.568 175.325 251.874 175.777 252.164C175.9 252.272 176.03 252.367 176.17 252.44C176.293 252.535 176.403 252.607 176.526 252.687C176.568 252.717 176.613 252.745 176.663 252.782C177.166 253.117 177.689 253.436 178.205 253.756C178.838 254.142 179.479 254.527 180.127 254.877C180.227 254.907 180.322 254.957 180.402 255.015C181.123 255.415 181.842 255.83 182.54 256.259C183.478 256.789 184.396 257.357 185.297 257.938C186.904 258.979 188.454 260.055 189.988 261.219H190.018C193.109 263.532 196.034 266.057 198.76 268.784C213.518 283.491 222.633 272.798 222.633 295.281Z" fill="#D9B190"/>
    <path d="M182.554 256.244L182.54 256.259L189.5 260.266L202.5 272C178 287.5 160.946 290.985 146 291L136 284C120.879 283.972 103.959 288.958 93.5 278.266L74 276.5L93.5 260.766L100.19 256.274C100.984 255.801 101.797 255.335 102.613 254.892C102.641 254.862 102.671 254.877 102.671 254.877V254.862C103.324 254.492 103.972 254.129 104.613 253.743C105.093 253.451 105.566 253.161 106.039 252.855C106.192 252.745 106.344 252.645 106.504 252.535C107.085 252.15 107.661 251.749 108.214 251.321C108.279 251.291 108.322 251.248 108.38 251.219C108.795 250.891 109.223 250.571 109.623 250.252C109.776 250.127 109.929 250.005 110.081 249.887C110.096 249.902 110.096 249.902 110.111 249.917H110.126V249.932C111.107 250.943 112.133 251.887 113.224 252.798C113.224 252.812 113.224 252.812 113.239 252.812C115.952 255.095 118.933 257.067 122.149 258.631C127.938 261.482 134.448 263.089 141.343 263.104H141.467C153.716 263.104 164.793 258.048 172.751 249.945L172.779 249.917C173.317 250.36 173.855 250.79 174.423 251.219C174.423 251.219 174.438 251.219 174.453 251.233C174.473 251.248 174.503 251.261 174.533 251.276C174.933 251.582 175.347 251.874 175.777 252.164C175.892 252.259 176.03 252.353 176.17 252.44C176.293 252.535 176.402 252.608 176.525 252.688C176.568 252.717 176.613 252.745 176.663 252.783C177.166 253.118 177.689 253.436 178.205 253.764C178.838 254.142 179.478 254.514 180.119 254.862C180.227 254.892 180.307 254.957 180.395 255C181.115 255.401 181.849 255.816 182.554 256.244Z" fill="#674F46"/>
    <path d="M203.75 115.925V152.437C203.75 155.863 203.502 159.252 203.044 162.57C201.925 170.847 199.458 178.703 196.061 185.946C195.065 188.071 193.996 190.158 192.848 192.18C192.585 192.638 192.323 193.096 192.062 193.539C189.734 197.461 187.152 201.17 184.374 204.581C183.675 205.477 182.94 206.348 182.184 207.186C174.328 216.211 165.2 223.086 156.443 226.99C151.193 229.318 146.042 230.591 141.402 230.591C136.79 230.591 131.707 229.348 126.499 227.05C117.697 223.158 108.504 216.256 100.591 207.186C99.7751 206.255 98.9763 205.302 98.198 204.32C94.6341 199.883 91.3681 194.981 88.5956 189.73C87.9197 188.441 87.2792 187.14 86.6684 185.823C86.2979 185.037 85.9478 184.244 85.6145 183.445C85.0764 182.237 84.5811 180.993 84.1082 179.757C82.6391 175.837 81.4455 171.748 80.589 167.551C80.2538 165.909 79.9633 164.257 79.7436 162.57C79.2856 159.247 79.0398 155.864 79.0398 152.43V115.925H203.75Z" fill="#D9B190"/>
    <path d="M193.872 134.813C193.872 134.575 193.691 134.355 193.444 134.327C191.327 134.007 181.849 132.705 171.667 132.705C160.088 132.705 145.154 136.334 142.551 136.334H140.239C139.03 136.334 135.139 135.533 130.165 134.712C124.447 133.744 117.312 132.705 111.137 132.705C103.682 132.705 96.5894 133.411 92.5172 133.897C91.0183 134.079 89.9272 134.232 89.3593 134.327C89.0986 134.355 88.9161 134.575 88.9161 134.813L88.7932 141.032C88.7932 141.265 88.931 141.447 89.134 141.542L89.8322 141.782C90.8805 142.181 90.7856 160.911 96.379 165.596C99.7027 168.359 102.656 169.93 115.094 169.93C122.302 169.93 126.84 167.988 131.139 162.184C134.252 158.015 136.995 148.154 136.995 148.154C137.831 144.095 140.849 143.775 141.343 143.745H141.402C141.495 143.745 144.909 143.805 145.802 148.154C145.802 148.154 148.558 158.015 151.651 162.184C155.956 167.988 160.488 169.93 167.703 169.93C180.132 169.93 183.093 168.359 186.411 165.596C192.004 160.911 191.909 142.181 192.956 141.782L193.661 141.542C193.859 141.447 193.997 141.265 193.997 141.032L193.872 134.813Z" fill="#232323"/>
  </g>
</svg>
