<!--
  - This file is part of the Web3 Library developed by mFactory GmbH.
  -
  - Copyright © 2021, mFactory GmbH
  -
  - Solana Reference Stake Pool is free software: you can redistribute it
  - and/or modify it under the terms of the GNU Affero General Public License
  - as published by the Free Software Foundation, either version 3
  - of the License, or (at your option) any later version.
  -
  - Solana Reference Stake Pool is distributed in the hope that it
  - will be useful, but WITHOUT ANY WARRANTY; without even the implied
  - warranty of MERCHANTABILITY or FITNESS FOR A PARTICULAR PURPOSE.
  - See the GNU Affero General Public License for more details.
  -
  - You should have received a copy of the GNU Affero General Public License
  - along with this program.
  - If not, see <https://www.gnu.org/licenses/agpl-3.0.html>.
  -
  - You can be released from the requirements of the Affero GNU General Public License
  - by purchasing a commercial license. The purchase of such a license is
  - mandatory as soon as you develop commercial activities using the
  - Solana Reference Stake Pool code without disclosing the source code of
  - your own applications.
  -
  - The developer of this program can be contacted at <info@mfactory.ch>.
  -->

<svg width="285" height="285" viewBox="0 0 285 285" fill="none" xmlns="http://www.w3.org/2000/svg">
  <path d="M284.094 142.097C284.094 220.582 220.496 284.204 142.043 284.204C63.5965 284.204 0 220.582 0 142.097C0 63.6215 63.5965 0 142.043 0C220.496 0 284.094 63.6215 284.094 142.097Z" fill="#EBECE8"/>
  <mask id="mask0" mask-type="alpha" maskUnits="userSpaceOnUse" x="0" y="0" width="285" height="285">
    <path d="M284.094 142.097C284.094 220.582 220.496 284.204 142.043 284.204C63.5965 284.204 0 220.582 0 142.097C0 63.6215 63.5965 0 142.043 0C220.496 0 284.094 63.6215 284.094 142.097Z" fill="#EBECE8"/>
  </mask>
  <g mask="url(#mask0)">
    <path d="M199.728 85.063V128.432C199.728 129.063 199.716 129.693 199.702 130.315C199.688 130.83 199.674 131.331 199.646 131.846C199.634 132.301 199.599 132.753 199.56 133.214C199.546 133.54 199.518 133.872 199.485 134.196C199.471 134.401 199.457 134.583 199.429 134.779C199.403 135.137 199.369 135.51 199.315 135.862C199.261 136.547 199.173 137.218 199.071 137.901C199.058 138.078 199.031 138.247 199.003 138.416C198.956 138.762 198.902 139.101 198.849 139.446V139.486C198.76 139.987 198.672 140.469 198.59 140.971C198.462 141.654 198.334 142.339 198.191 143.01C198.178 143.036 198.178 143.071 198.164 143.097C198.15 143.199 198.129 143.294 198.103 143.395C198.089 143.429 198.089 143.455 198.075 143.483C198.001 143.856 197.919 144.208 197.832 144.567C197.805 144.723 197.777 144.879 197.716 145.033C197.676 145.292 197.602 145.548 197.548 145.807C197.506 145.949 197.479 146.105 197.418 146.247C197.392 146.376 197.35 146.504 197.317 146.62C197.019 147.79 196.681 148.93 196.32 150.074C196.145 150.615 195.975 151.144 195.793 151.685C195.779 151.741 195.752 151.794 195.74 151.855C195.563 152.342 195.393 152.824 195.225 153.312C195.164 153.454 195.108 153.596 195.055 153.752C194.878 154.206 194.71 154.666 194.526 155.12C194.309 155.675 194.085 156.218 193.856 156.759C193.652 157.246 193.442 157.728 193.225 158.215C193.199 158.304 193.158 158.371 193.132 158.46C192.887 158.968 192.656 159.483 192.414 159.984C192.176 160.511 191.918 161.04 191.647 161.569C191.132 162.611 190.577 163.648 190.023 164.664L189.249 166.032C187.056 169.812 184.616 173.36 181.961 176.639C181.602 177.112 181.236 177.567 180.851 178.007C180.323 178.65 179.78 179.28 179.239 179.89C178.752 180.433 178.269 180.974 177.768 181.503C176.4 182.972 174.999 184.367 173.576 185.682C173.291 185.966 172.993 186.223 172.689 186.495C172.207 186.936 171.72 187.369 171.219 187.782C170.839 188.12 170.44 188.453 170.04 188.777C169.01 189.616 167.982 190.43 166.945 191.189C166.518 191.52 166.071 191.832 165.63 192.131C164.919 192.646 164.188 193.126 163.463 193.599C163.064 193.872 162.651 194.128 162.237 194.373C160.78 195.266 159.312 196.1 157.855 196.811C157.503 196.993 157.144 197.17 156.785 197.34C156.433 197.508 156.06 197.678 155.674 197.853C155.207 198.064 154.732 198.267 154.266 198.449C154.075 198.538 153.893 198.605 153.702 198.666C153.147 198.89 152.579 199.106 152.024 199.29C151.325 199.547 150.614 199.764 149.91 199.96C149.43 200.102 148.927 200.232 148.446 200.346C148.413 200.36 148.386 200.374 148.346 200.374C147.857 200.488 147.377 200.603 146.889 200.691C146.759 200.719 146.631 200.745 146.503 200.759C146.104 200.834 145.703 200.901 145.304 200.95C144.734 201.029 144.165 201.104 143.596 201.132C143.394 201.16 143.211 201.173 143.007 201.173C142.554 201.199 142.1 201.22 141.653 201.22H141.613C141.172 201.22 140.732 201.199 140.284 201.173C140.115 201.173 139.946 201.16 139.769 201.132C139.371 201.118 138.956 201.078 138.53 201.017C138.45 201.017 138.348 201.003 138.259 200.99C137.73 200.915 137.203 200.834 136.66 200.733C136.208 200.658 135.754 200.563 135.278 200.449C132.84 199.892 130.335 199.046 127.794 197.92C125.627 196.967 123.425 195.815 121.245 194.473C120.148 193.804 119.05 193.091 117.966 192.333C117.423 191.947 116.882 191.562 116.341 191.161C114.64 189.921 112.96 188.567 111.308 187.111C110.848 186.698 110.394 186.285 109.939 185.857C109.478 185.444 109.026 185.018 108.578 184.605C107.467 183.535 106.383 182.424 105.327 181.265C104.914 180.825 104.5 180.371 104.087 179.897C102.95 178.611 101.838 177.289 100.782 175.9C100.369 175.406 99.9828 174.891 99.5961 174.376C98.1534 172.467 96.7853 170.468 95.5056 168.403C95.1606 167.848 94.8138 167.272 94.4895 166.715C94.0889 166.046 93.704 165.361 93.3173 164.678C91.8954 162.11 90.5811 159.441 89.4436 156.691C89.2667 156.292 89.0985 155.892 88.9563 155.493C88.7326 154.978 88.528 154.449 88.3459 153.934C88.0546 153.183 87.7911 152.424 87.5327 151.673C87.2761 150.913 87.0316 150.142 86.7888 149.375C86.5582 148.631 86.3484 147.893 86.1438 147.133C85.9218 146.334 85.7051 145.522 85.5213 144.695C85.5074 144.607 85.4744 144.527 85.4606 144.439C85.1901 143.299 84.9525 142.143 84.7357 140.971C84.4514 139.433 84.2208 137.862 84.0508 136.284C83.9763 135.783 83.9364 135.281 83.8965 134.785C83.8341 134.258 83.7942 133.743 83.7664 133.214C83.6919 132.259 83.652 131.291 83.6243 130.315C83.6104 129.693 83.5913 129.063 83.5913 128.439V85.063C83.5913 53.0169 109.567 27.0277 141.613 27H141.673C146.09 27 150.397 27.5011 154.536 28.4288C158.316 29.2837 161.953 30.5096 165.4 32.0667C170.108 34.1736 174.484 36.8821 178.426 40.1212C181.731 42.8297 184.739 45.885 187.366 49.2507C195.015 58.9906 199.613 71.2309 199.716 84.548C199.728 84.7231 199.728 84.8931 199.728 85.063Z" fill="#F0CCAC"/>
    <path d="M217.319 290.312V290.325H66.0068V290.312C66.0068 281.77 67.4166 273.54 70.0436 265.879C70.5118 264.497 71.0268 263.129 71.5816 261.775V261.761C72.1296 260.4 72.7261 259.079 73.3503 257.764C75.849 252.502 78.9581 247.584 82.5683 243.074C83.4752 241.949 84.4046 240.851 85.3583 239.795C85.8334 239.252 86.3276 238.725 86.8287 238.196C87.3298 237.681 87.831 237.173 88.339 236.658C90.8932 234.106 93.6295 231.768 96.5148 229.615C97.9575 228.545 99.4072 227.542 100.924 226.573C102.435 225.618 103.973 224.704 105.544 223.851C105.572 223.823 105.598 223.823 105.598 223.823C106.215 223.497 106.81 223.138 107.413 222.767C109.194 221.695 110.909 220.511 112.534 219.204C119.423 213.724 124.753 206.369 127.794 197.921C129.603 192.875 130.584 187.444 130.584 181.767L141.613 181.82L152.951 181.881C152.951 187.484 153.907 192.862 155.674 197.853C158.668 206.327 163.992 213.71 170.881 219.218C171.902 220.057 172.946 220.828 174.044 221.553C174.158 221.642 174.26 221.709 174.375 221.784C174.883 222.129 175.398 222.469 175.941 222.786C176.523 223.138 177.125 223.497 177.722 223.823C177.824 223.851 177.911 223.898 177.978 223.951C179.239 224.65 180.479 225.38 181.691 226.133C182.273 226.492 182.856 226.864 183.425 227.277C184.611 228.03 185.769 228.862 186.893 229.715C186.893 229.729 186.907 229.729 186.907 229.729H186.92C188.363 230.799 189.757 231.938 191.132 233.109C192.5 234.281 193.808 235.507 195.082 236.774C208.831 250.463 217.319 269.375 217.319 290.312Z" fill="#F0CCAC"/>
    <path d="M217.312 290.304H66C66 281.763 67.4167 273.533 70.0368 265.872C70.5119 264.49 71.0269 263.122 71.5817 261.768V261.754C72.1245 260.4 72.7193 259.071 73.3504 257.757C75.8422 252.494 78.9512 247.577 82.5614 243.067C83.4753 241.941 84.4047 240.844 85.3584 239.788C85.8266 239.247 86.3277 238.718 86.8288 238.189C87.323 237.681 87.8241 237.166 88.3391 236.651C90.8933 234.098 93.6296 231.761 96.508 229.607C97.9507 228.537 99.4072 227.542 100.918 226.566C101.703 226.072 102.489 225.584 103.281 225.116C104.027 224.669 104.784 224.242 105.537 223.83C105.565 223.802 105.598 223.816 105.598 223.816V223.802C106.208 223.457 106.81 223.119 107.406 222.76C109.187 221.676 110.902 220.476 112.501 219.162C112.513 219.182 112.513 219.182 112.527 219.196C119.917 226.755 130.2 231.444 141.606 231.476H141.72C153.134 231.476 163.456 226.769 170.874 219.21L170.888 219.196C171.902 220.036 172.96 220.823 174.044 221.548C174.151 221.634 174.254 221.702 174.368 221.776C174.883 222.116 175.412 222.448 175.941 222.774C176.523 223.132 177.118 223.471 177.722 223.802C177.817 223.83 177.892 223.89 177.978 223.93C178.649 224.303 179.334 224.683 179.991 225.083C180.56 225.428 181.129 225.766 181.684 226.125C182.266 226.484 182.856 226.85 183.425 227.263C184.611 228.022 185.762 228.848 186.893 229.71H186.921C188.363 230.793 189.771 231.917 191.125 233.103C192.494 234.266 193.808 235.492 195.076 236.767C208.824 250.455 217.312 269.368 217.312 290.304Z" fill="#F1835C"/>
    <path d="M199.728 128.432C199.728 129.063 199.716 129.693 199.702 130.315C199.688 130.83 199.674 131.331 199.646 131.846C199.634 132.301 199.599 132.753 199.56 133.214C199.546 133.54 199.518 133.872 199.485 134.196C199.471 134.401 199.457 134.583 199.429 134.779C199.403 135.138 199.369 135.51 199.315 135.862C199.24 136.547 199.173 137.23 199.071 137.902C199.058 138.078 199.031 138.247 199.003 138.416C198.956 138.762 198.902 139.101 198.849 139.446C198.774 139.961 198.672 140.47 198.59 140.971C198.476 141.572 198.36 142.155 198.231 142.738C198.217 142.866 198.191 142.982 198.157 143.097C198.143 143.199 198.117 143.294 198.103 143.395C198.089 143.429 198.089 143.456 198.075 143.483C198.075 143.551 198.061 143.612 198.049 143.665C197.975 143.97 197.919 144.269 197.832 144.567C197.805 144.723 197.777 144.879 197.716 145.033C197.663 145.32 197.588 145.59 197.506 145.868C197.493 145.996 197.46 146.124 197.418 146.247C197.392 146.376 197.35 146.504 197.317 146.62C197.019 147.791 196.681 148.93 196.32 150.074C196.145 150.615 195.975 151.144 195.793 151.685C195.779 151.741 195.752 151.794 195.74 151.855C195.563 152.342 195.393 152.824 195.225 153.312C195.164 153.454 195.108 153.596 195.055 153.752C194.878 154.206 194.71 154.666 194.526 155.12C194.309 155.675 194.085 156.218 193.856 156.759C193.652 157.246 193.442 157.728 193.225 158.215C193.199 158.304 193.158 158.371 193.132 158.46C192.887 158.968 192.656 159.483 192.414 159.984C192.176 160.511 191.918 161.04 191.647 161.569C191.132 162.611 190.577 163.648 190.023 164.664L189.249 166.032C187.056 169.812 184.616 173.36 181.961 176.639C181.602 177.112 181.236 177.567 180.851 178.007C180.323 178.651 179.78 179.28 179.239 179.89C178.752 180.433 178.269 180.974 177.768 181.503C176.4 182.972 174.999 184.368 173.576 185.682C173.291 185.966 172.993 186.223 172.689 186.495C172.207 186.936 171.72 187.369 171.219 187.782C170.839 188.12 170.44 188.453 170.04 188.777C169.01 189.616 167.982 190.43 166.945 191.189C166.518 191.52 166.071 191.832 165.63 192.131C164.919 192.646 164.188 193.126 163.463 193.599C163.064 193.872 162.651 194.128 162.237 194.373C160.78 195.266 159.312 196.1 157.855 196.811C157.503 196.993 157.144 197.17 156.785 197.34C156.433 197.508 156.06 197.678 155.674 197.853C155.207 198.064 154.732 198.267 154.266 198.449C154.075 198.538 153.893 198.605 153.702 198.666C153.147 198.89 152.579 199.107 152.024 199.29C151.325 199.547 150.614 199.764 149.91 199.96C149.43 200.102 148.927 200.232 148.446 200.346C148.413 200.36 148.386 200.374 148.346 200.374C147.857 200.489 147.377 200.603 146.889 200.691C146.759 200.719 146.631 200.745 146.503 200.759C146.104 200.834 145.703 200.901 145.304 200.95C144.734 201.03 144.165 201.104 143.596 201.132C143.394 201.16 143.211 201.173 143.007 201.173C142.554 201.199 142.1 201.22 141.653 201.22H141.613C141.172 201.22 140.732 201.199 140.284 201.173C140.115 201.173 139.946 201.16 139.769 201.132C139.371 201.118 138.956 201.078 138.53 201.017C138.45 201.017 138.348 201.004 138.259 200.99C137.73 200.915 137.203 200.834 136.66 200.733C136.208 200.658 135.754 200.563 135.278 200.449C132.84 199.892 130.335 199.046 127.794 197.92C125.627 196.967 123.425 195.815 121.245 194.473C120.148 193.816 119.064 193.105 117.966 192.333C117.423 191.947 116.882 191.562 116.341 191.161C114.64 189.922 112.96 188.567 111.308 187.111C110.848 186.698 110.394 186.285 109.939 185.857C109.478 185.444 109.026 185.018 108.578 184.605C107.467 183.535 106.383 182.424 105.327 181.265C104.914 180.825 104.5 180.371 104.087 179.897C102.95 178.611 101.838 177.289 100.782 175.9C100.369 175.406 99.9828 174.891 99.5961 174.376C98.1534 172.467 96.7853 170.468 95.5056 168.403C95.1606 167.848 94.8138 167.272 94.4895 166.715C94.0889 166.046 93.704 165.361 93.3173 164.678C91.8954 162.11 90.5811 159.441 89.4436 156.691C89.2667 156.292 89.0985 155.892 88.9563 155.493C88.7326 154.978 88.528 154.449 88.3459 153.934C88.0546 153.183 87.7911 152.424 87.5327 151.673C87.2761 150.913 87.0316 150.142 86.7888 149.375C86.5582 148.631 86.3484 147.893 86.1438 147.133C85.9218 146.334 85.7051 145.522 85.5213 144.695C85.5074 144.607 85.4744 144.527 85.4606 144.439C85.1901 143.299 84.9525 142.143 84.7357 140.971C84.4514 139.433 84.2208 137.862 84.0508 136.284C83.9763 135.783 83.9364 135.281 83.8965 134.786C83.8341 134.258 83.7942 133.743 83.7664 133.214C83.6919 132.259 83.652 131.291 83.6243 130.315C83.6104 129.693 83.5913 129.063 83.5913 128.439L92.863 146.667L108.795 153.61L127.631 155.302H127.645L141.613 156.577H141.694L154.76 157.761C154.76 157.761 154.76 157.742 154.774 157.761L183.912 160.383L199.728 128.432Z" fill="#674F46"/>
    <path d="M141.727 137.59L141.713 151.638V151.651L141.699 156.576V160.443L141.687 173.28V173.292L141.673 173.28H141.66L141.613 173.245L85.5143 144.695C85.5004 144.606 85.4744 144.526 85.4606 144.438C85.1901 143.294 84.9456 142.142 84.7357 140.97C84.4514 139.432 84.2208 137.861 84.0508 136.276C83.9763 135.782 83.9364 135.281 83.8965 134.778C83.8341 134.251 83.7942 133.743 83.7664 133.214C83.6919 132.258 83.652 131.284 83.6243 130.315C83.6052 129.692 83.5913 129.063 83.5913 128.431V111.39C83.5913 111.634 83.6052 111.877 83.6052 112.121C83.7196 116.24 84.3768 120.778 85.6426 125.411C86.6327 128.974 87.8587 132.272 89.2806 135.206V135.225C93.0191 142.995 98.0251 148.272 102.631 149.125C102.915 149.172 103.213 149.2 103.498 149.226C105.285 149.43 107.156 149.538 109.079 149.538C116.354 149.538 122.816 143.692 126.881 141.329C126.907 141.315 126.934 141.294 126.96 141.287C127.179 141.152 127.389 141.024 127.578 140.902C127.631 140.854 127.692 140.828 127.748 140.8C131.167 138.842 136.106 137.603 141.613 137.59H141.727Z" fill="#674F46"/>
    <path d="M199.742 111.383L199.728 128.425C199.728 132.706 199.329 136.899 198.59 140.964C198.285 142.588 197.947 144.201 197.548 145.8L184.38 164.813L141.681 173.266H141.667L141.653 173.285V173.266L141.606 137.577H141.72C147.228 137.596 152.178 138.836 155.599 140.787C155.66 140.814 155.702 140.842 155.755 140.889C155.958 141.017 156.168 141.146 156.385 141.269C156.399 141.288 156.426 141.302 156.452 141.316C160.531 143.679 166.98 149.531 174.254 149.531C176.177 149.531 178.046 149.417 179.829 149.221C180.134 149.193 180.418 149.165 180.715 149.119C185.308 148.265 190.326 142.989 194.053 135.212V135.2C195.474 132.259 196.7 128.968 197.69 125.404C198.97 120.697 199.641 116.105 199.728 111.926C199.742 111.742 199.742 111.567 199.742 111.383Z" fill="#674F46"/>
    <path d="M155.883 156.04C155.883 158.471 149.509 160.436 141.652 160.436C133.796 160.436 127.428 158.471 127.428 156.04C127.428 153.609 133.796 151.645 141.652 151.645C149.509 151.645 155.883 153.609 155.883 156.04Z" fill="#F0CCAC"/>
    <path d="M141.666 27H141.613C109.56 27.0347 83.5913 53.0169 83.5913 85.063V110.666C83.5913 110.666 86.0016 95.3924 92.4919 87.9744C99.5354 79.9148 97.7546 67.6606 113.557 67.6606C123.758 67.6606 124.326 71.4268 141.599 71.4268H141.68C158.953 71.4268 159.521 67.6606 169.723 67.6606C185.525 67.6606 183.744 79.9148 190.787 87.9744C197.276 95.3924 199.688 110.666 199.688 110.666V85.063C199.688 53.0169 173.711 27.0277 141.666 27Z" fill="#674F46"/>
    <path d="M179.985 225.083L178.419 226.68C168.632 236.651 155.566 242.137 141.632 242.137C127.557 242.111 114.519 236.611 104.779 226.654L103.281 225.116C104.027 224.669 104.779 224.242 105.537 223.83C105.565 223.802 105.591 223.816 105.591 223.816V223.802C106.208 223.457 106.804 223.119 107.406 222.76C109.187 221.676 110.902 220.476 112.494 219.162C112.508 219.175 112.508 219.175 112.527 219.189C119.91 226.75 130.2 231.444 141.606 231.477H141.72C153.134 231.477 163.456 226.769 170.874 219.21L170.888 219.189C171.902 220.036 172.953 220.823 174.037 221.548C174.151 221.634 174.254 221.702 174.368 221.776C174.876 222.116 175.412 222.448 175.934 222.774C176.523 223.132 177.118 223.471 177.722 223.802C177.817 223.83 177.892 223.883 177.971 223.93C178.649 224.303 179.327 224.683 179.985 225.083Z" fill="#D05C34"/>
  </g>
</svg>
