<!--
  - This file is part of the Web3 Library developed by mFactory GmbH.
  -
  - Copyright © 2021, mFactory GmbH
  -
  - Solana Reference Stake Pool is free software: you can redistribute it
  - and/or modify it under the terms of the GNU Affero General Public License
  - as published by the Free Software Foundation, either version 3
  - of the License, or (at your option) any later version.
  -
  - Solana Reference Stake Pool is distributed in the hope that it
  - will be useful, but WITHOUT ANY WARRANTY; without even the implied
  - warranty of MERCHANTABILITY or FITNESS FOR A PARTICULAR PURPOSE.
  - See the GNU Affero General Public License for more details.
  -
  - You should have received a copy of the GNU Affero General Public License
  - along with this program.
  - If not, see <https://www.gnu.org/licenses/agpl-3.0.html>.
  -
  - You can be released from the requirements of the Affero GNU General Public License
  - by purchasing a commercial license. The purchase of such a license is
  - mandatory as soon as you develop commercial activities using the
  - Solana Reference Stake Pool code without disclosing the source code of
  - your own applications.
  -
  - The developer of this program can be contacted at <info@mfactory.ch>.
  -->

<svg width="169" height="169" viewBox="0 0 169 169" fill="none" xmlns="http://www.w3.org/2000/svg">
<path d="M168.47 84.2648C168.47 130.807 130.756 168.535 84.2329 168.535C37.7133 168.535 0 130.807 0 84.2648C0 37.7281 37.7133 0 84.2329 0C130.756 0 168.47 37.7281 168.47 84.2648Z" fill="#EBECE8"/>
<mask id="mask0_1306_51" style="mask-type:alpha" maskUnits="userSpaceOnUse" x="3" y="5" width="164" height="164">
<path d="M166.139 86.5981C166.139 131.668 129.618 168.202 84.5672 168.202C39.5198 168.202 3 131.668 3 86.5981C3 41.5341 39.5198 5 84.5672 5C129.618 5 166.139 41.5341 166.139 86.5981Z" fill="#EBECE8"/>
</mask>
<g mask="url(#mask0_1306_51)">
<path d="M120.467 49.8019V76.3681C120.467 76.7547 120.458 77.1403 120.45 77.5216C120.434 78.3182 120.388 79.1148 120.317 79.8987C120.301 80.1685 120.276 80.4383 120.238 80.7124C120.127 81.8372 119.969 82.9493 119.77 84.0487C119.699 84.4172 119.629 84.7741 119.55 85.131C119.542 85.2096 119.525 85.2808 119.505 85.3509C119.434 85.7163 119.347 86.0774 119.259 86.4343C119.227 86.6255 119.172 86.8199 119.131 87.0111C119.085 87.1768 119.044 87.3425 118.99 87.5092C118.808 88.2262 118.596 88.9241 118.376 89.6251C118.273 89.9565 118.169 90.2805 118.056 90.6119C118.045 90.6459 118.028 90.6788 118.019 90.716C117.916 91.0102 117.812 91.3097 117.708 91.6082C117.671 91.6953 117.638 91.7781 117.601 91.878C117.497 92.1563 117.393 92.4378 117.277 92.716C117.149 93.0559 117.007 93.3884 116.866 93.7198C116.746 94.0183 116.614 94.3136 116.485 94.612C116.468 94.6662 116.439 94.7076 116.422 94.7618C116.274 95.073 116.137 95.3885 115.987 95.6955C115.838 96.0184 115.68 96.3423 115.515 96.6663C115.199 97.3004 114.859 97.9398 114.519 98.5623C114.362 98.8406 114.204 99.122 114.046 99.4003C112.703 101.716 111.209 103.889 109.584 105.898C109.364 106.188 109.14 106.466 108.903 106.74C108.58 107.13 108.248 107.515 107.917 107.889C107.617 108.225 107.323 108.553 107.016 108.877C106.179 109.777 105.324 110.636 104.449 111.441C104.275 111.615 104.092 111.773 103.905 111.939C103.611 112.208 103.313 112.47 103.006 112.723C102.773 112.935 102.528 113.134 102.284 113.333C101.653 113.851 101.024 114.349 100.389 114.81C100.128 115.013 99.8536 115.204 99.5839 115.387C99.1486 115.703 98.7048 116.001 98.2567 116.287C98.0125 116.454 97.7588 116.611 97.5061 116.761C96.6142 117.308 95.7149 117.819 94.823 118.254C94.6074 118.366 94.3877 118.47 94.1668 118.578C93.9513 118.681 93.723 118.785 93.4873 118.889C93.2006 119.022 92.9108 119.142 92.6241 119.258C92.5083 119.312 92.3958 119.353 92.2843 119.386C91.9445 119.528 91.592 119.66 91.2512 119.773C90.8244 119.93 90.3891 120.059 89.9622 120.183C89.6628 120.27 89.3602 120.35 89.0619 120.42C89.0449 120.428 89.0247 120.437 88.9992 120.437C88.7009 120.507 88.4068 120.577 88.1073 120.627C88.0288 120.648 87.9544 120.664 87.8759 120.673C87.6306 120.714 87.3864 120.76 87.1411 120.785C86.7886 120.838 86.4404 120.881 86.0921 120.901C85.9721 120.918 85.8553 120.926 85.7354 120.926C85.4529 120.942 85.1758 120.951 84.9061 120.951H84.8764C84.6078 120.951 84.3381 120.942 84.0684 120.926C83.9601 120.926 83.8571 120.918 83.7531 120.901C83.5078 120.892 83.2551 120.864 82.9939 120.831C82.9397 120.831 82.8782 120.822 82.8283 120.81C82.5044 120.768 82.1806 120.714 81.8493 120.657C81.5669 120.611 81.2898 120.548 80.9988 120.478C79.506 120.137 77.9718 119.623 76.4163 118.934C75.0891 118.35 73.7449 117.64 72.4092 116.818C71.7371 116.408 71.0618 115.971 70.3982 115.507C70.0659 115.27 69.7346 115.039 69.4023 114.793C68.366 114.03 67.3329 113.2 66.3211 112.312C66.0429 112.059 65.7615 111.807 65.4833 111.541C65.2051 111.287 64.9238 111.026 64.6541 110.773C63.9692 110.118 63.3056 109.437 62.6633 108.727C62.4095 108.458 62.1568 108.18 61.8999 107.889C61.2034 107.105 60.5228 106.292 59.8762 105.445C59.6224 105.138 59.3867 104.823 59.1499 104.507C58.2665 103.338 57.4288 102.114 56.6452 100.848C56.4329 100.508 56.2258 100.16 56.023 99.8188C55.7778 99.4088 55.5452 98.9893 55.3095 98.5708C54.4346 96.9977 53.6298 95.363 52.9333 93.6741C52.8292 93.4298 52.7209 93.1845 52.6339 92.9444C52.4927 92.6289 52.3727 92.305 52.2612 91.9895C52.0871 91.5253 51.9204 91.0644 51.7632 90.6002C51.6061 90.1392 51.4564 89.6665 51.3067 89.1928C51.1655 88.7414 51.037 88.2846 50.9128 87.8236C50.7758 87.334 50.6431 86.8369 50.5316 86.3302C50.5231 86.2761 50.5061 86.2272 50.4944 86.173C50.332 85.472 50.1833 84.7667 50.0506 84.0487C49.8765 83.1065 49.7353 82.1442 49.6312 81.1734C49.5898 80.8706 49.5611 80.5637 49.5357 80.2556C49.4985 79.9327 49.4741 79.6173 49.4571 79.2975C49.4114 78.708 49.387 78.1153 49.37 77.5216C49.3615 77.136 49.3499 76.7547 49.3499 76.3681V49.8019C49.3499 30.1718 65.255 14.2561 84.8764 14.2349H84.9146C87.6179 14.2349 90.2563 14.5418 92.7908 15.1101C95.1044 15.6338 97.3319 16.3847 99.4427 17.3385C102.325 18.6291 105.008 20.2882 107.419 22.2724C109.442 23.9357 111.288 25.803 112.893 27.8647C117.638 33.9107 120.467 41.5201 120.467 49.8019Z" fill="#F0CCAC"/>
<path d="M131.234 175.529V175.537H38.5825V175.529C38.5825 170.296 39.4489 165.255 41.0543 160.563C41.3442 159.716 41.6595 158.874 42.0003 158.044V158.036C42.3401 157.206 42.6968 156.392 43.0823 155.592C44.6091 152.368 46.5128 149.351 48.7234 146.593C49.283 145.903 49.8468 145.227 50.436 144.584C50.7216 144.249 51.0296 143.929 51.3364 143.605C51.639 143.289 51.9459 142.974 52.2612 142.663C53.8241 141.099 55.4996 139.663 57.2674 138.344C58.1465 137.689 59.0384 137.079 59.9632 136.485C60.888 135.9 61.833 135.34 62.7918 134.818C62.8119 134.796 62.8289 134.796 62.8289 134.796C63.2016 134.598 63.5711 134.381 63.9363 134.154C64.6615 133.714 65.3793 133.244 66.0599 132.739C66.4081 132.493 66.7394 132.241 67.0717 131.967C67.8595 131.34 68.6187 130.668 69.3449 129.958C69.5764 129.722 69.8132 129.485 70.05 129.241C70.5394 128.734 71.0034 128.203 71.4472 127.659C71.667 127.398 71.8868 127.128 72.0864 126.855C72.2935 126.586 72.4963 126.307 72.6959 126.025C74.2513 123.859 75.4989 121.473 76.4163 118.93C77.5279 115.838 78.1289 112.512 78.1289 109.034L84.8806 109.067L91.8235 109.105C91.8235 112.536 92.4085 115.831 93.4915 118.889C94.3909 121.44 95.6395 123.822 97.1663 125.992C98.7589 128.245 100.654 130.253 102.798 131.975C103.122 132.236 103.446 132.489 103.768 132.726C104.084 132.963 104.408 133.19 104.74 133.407C104.81 133.46 104.871 133.501 104.943 133.547C105.254 133.76 105.569 133.967 105.9 134.158C106.257 134.378 106.627 134.598 106.992 134.796C107.053 134.813 107.108 134.842 107.149 134.875C107.921 135.307 108.679 135.751 109.422 136.211C109.779 136.431 110.139 136.659 110.488 136.912C111.213 137.386 111.918 137.883 112.607 138.407C112.607 138.414 112.619 138.414 112.619 138.414H112.628C114.39 139.734 116.058 141.178 117.621 142.73C126.037 151.119 131.234 162.704 131.234 175.529Z" fill="#F0CCAC"/>
<path d="M131.234 175.529H38.5867C38.5867 170.296 39.4488 165.255 41.0585 160.563C41.3441 159.716 41.6594 158.878 42.0002 158.048C41.9917 158.04 42.0002 158.04 42.0002 158.04C42.3315 157.206 42.6968 156.397 43.0822 155.592C44.609 152.368 46.5127 149.356 48.7233 146.593C49.2829 145.904 49.8509 145.231 50.4359 144.584C50.7215 144.252 51.0295 143.929 51.3363 143.605C51.6432 143.29 51.9458 142.978 52.2611 142.663C53.824 141.099 55.4995 139.667 57.2673 138.348C58.1464 137.693 59.0383 137.079 59.9631 136.485C60.8922 135.891 61.8329 135.332 62.7959 134.809C62.8118 134.792 62.8288 134.801 62.8288 134.801V134.792C63.2057 134.581 63.571 134.374 63.9362 134.154C65.0309 133.49 66.0799 132.755 67.0546 131.95C67.0631 131.958 67.0631 131.958 67.0759 131.971C71.5968 136.597 77.892 139.472 84.8806 139.489H84.9517C91.936 139.489 98.2609 136.609 102.802 131.979L102.811 131.971C103.428 132.485 104.075 132.966 104.74 133.41C104.81 133.46 104.871 133.506 104.943 133.547C105.254 133.76 105.577 133.958 105.9 134.161C106.261 134.381 106.626 134.589 106.992 134.788C107.053 134.809 107.099 134.842 107.149 134.866C107.921 135.295 108.679 135.743 109.422 136.211C109.779 136.431 110.139 136.659 110.488 136.912C111.213 137.377 111.918 137.883 112.607 138.407H112.628C114.399 139.734 116.066 141.178 117.621 142.73C126.037 151.119 131.234 162.704 131.234 175.529Z" fill="#D1DCE8"/>
<path d="M120.467 76.3677C120.467 76.7543 120.458 77.1399 120.45 77.5212C120.434 78.3178 120.388 79.1145 120.317 79.8984C120.301 80.1681 120.276 80.4379 120.238 80.712C120.127 81.8368 119.969 82.9489 119.77 84.0483C119.699 84.4169 119.629 84.7738 119.55 85.1306C119.542 85.2092 119.525 85.2804 119.505 85.3505C119.434 85.7159 119.347 86.077 119.259 86.4339C119.218 86.6453 119.164 86.845 119.102 87.0479C119.077 87.2019 119.031 87.3591 118.99 87.5089C118.808 88.2258 118.596 88.9237 118.376 89.6247C118.273 89.9561 118.169 90.2801 118.053 90.6115C118.045 90.6455 118.028 90.6784 118.019 90.7156C117.916 91.0098 117.808 91.3093 117.704 91.6078C117.671 91.6949 117.638 91.7778 117.601 91.8776C117.497 92.1559 117.393 92.4374 117.277 92.7157C117.149 93.0556 117.007 93.388 116.866 93.7194C116.746 94.0179 116.614 94.3132 116.485 94.6117C116.464 94.6658 116.439 94.7073 116.422 94.7614C116.274 95.0726 116.133 95.3881 115.987 95.6951C115.838 96.018 115.68 96.3419 115.515 96.6659C115.199 97.3 114.859 97.9395 114.519 98.5619C114.362 98.8402 114.204 99.1217 114.046 99.4C112.703 101.716 111.209 103.889 109.584 105.897C109.364 106.187 109.14 106.466 108.903 106.74C108.58 107.129 108.248 107.515 107.917 107.889C107.617 108.225 107.323 108.553 107.016 108.877C106.179 109.776 105.32 110.636 104.449 111.441C104.275 111.615 104.088 111.772 103.905 111.939C103.611 112.208 103.313 112.47 103.006 112.723C102.773 112.934 102.528 113.134 102.28 113.333C101.653 113.851 101.024 114.349 100.389 114.81C100.123 115.013 99.8536 115.204 99.5839 115.387C99.1486 115.702 98.7005 116.001 98.2567 116.286C98.0125 116.453 97.7588 116.61 97.5061 116.76C96.6142 117.307 95.7149 117.818 94.823 118.254C94.6074 118.365 94.3877 118.469 94.1668 118.578C93.947 118.681 93.723 118.785 93.4873 118.889C93.1964 119.022 92.9108 119.142 92.6241 119.257C92.5083 119.312 92.3958 119.353 92.2801 119.386C91.9446 119.527 91.592 119.66 91.2512 119.773C90.8244 119.93 90.3891 120.058 89.9622 120.183C89.6628 120.27 89.356 120.349 89.0619 120.419C89.0406 120.428 89.0247 120.436 88.9992 120.436C88.7009 120.507 88.4068 120.577 88.1073 120.627C88.0288 120.648 87.9502 120.664 87.8716 120.672C87.6264 120.714 87.3822 120.759 87.1369 120.785C86.7886 120.838 86.4404 120.88 86.0921 120.901C85.9721 120.918 85.8554 120.926 85.7311 120.926C85.4529 120.942 85.1758 120.95 84.9019 120.95H84.8764C84.6078 120.95 84.3381 120.942 84.0642 120.926C83.9601 120.926 83.8571 120.918 83.7488 120.901C83.5078 120.892 83.2508 120.863 82.9897 120.83C82.9398 120.83 82.8782 120.822 82.824 120.809C82.5002 120.768 82.1806 120.714 81.8451 120.656C81.5669 120.611 81.2898 120.548 80.9989 120.478C79.506 120.137 77.9718 119.623 76.4163 118.933C75.0891 118.349 73.7449 117.64 72.4092 116.818C71.7339 116.415 71.0703 115.979 70.3982 115.507C70.0659 115.27 69.7346 115.038 69.4023 114.793C68.3618 114.029 67.3329 113.2 66.3211 112.312C66.0429 112.059 65.7615 111.806 65.4833 111.541C65.2009 111.287 64.9238 111.025 64.6541 110.773C63.9692 110.117 63.3057 109.436 62.659 108.727C62.4053 108.457 62.1526 108.18 61.8999 107.889C61.2034 107.105 60.5228 106.291 59.8762 105.445C59.6181 105.138 59.3867 104.822 59.1499 104.507C58.2665 103.337 57.4288 102.114 56.641 100.848C56.4329 100.508 56.2216 100.159 56.023 99.8184C55.7778 99.4084 55.542 98.9889 55.3053 98.5704C54.4346 96.9973 53.6298 95.3626 52.9333 93.6737C52.825 93.4294 52.7209 93.1841 52.6339 92.944C52.4927 92.6286 52.3727 92.3046 52.257 91.9891C52.0828 91.525 51.9204 91.064 51.759 90.5998C51.6061 90.1388 51.4564 89.6661 51.3067 89.1924C51.1655 88.741 51.037 88.2843 50.9128 87.8233C50.7716 87.3336 50.6431 86.8365 50.5316 86.3298C50.5189 86.2757 50.5019 86.2268 50.4944 86.1726C50.3277 85.4716 50.1833 84.7663 50.0506 84.0483C49.8765 83.1061 49.7353 82.1438 49.6312 81.173C49.5856 80.8703 49.5611 80.5633 49.5357 80.2552C49.4985 79.9323 49.4741 79.6169 49.4571 79.2972C49.4114 78.7077 49.387 78.115 49.37 77.5212C49.3573 77.1356 49.3499 76.7543 49.3499 76.3677L55.0271 87.5333L64.7826 91.7905L76.3165 92.8272L84.8764 93.6079H84.9305L92.9394 94.3334L110.778 95.9394L120.467 76.3677Z" fill="black"/>
<path d="M53.517 52.5446C53.1443 53.1999 52.8035 53.8755 52.4595 54.5648C52.331 54.8346 52.1983 55.1246 52.0698 55.4029C50.3487 59.2289 49.4823 62.9879 49.3613 66.3773C49.3613 66.4729 49.3528 66.577 49.3528 66.6715V52.9758C49.3528 52.4861 49.3698 52.005 49.3698 51.5312C50.7511 51.8924 52.1282 52.2408 53.517 52.5446Z" fill="black"/>
<path d="M116.319 52.5447C116.846 53.4741 117.318 54.428 117.771 55.403C119.546 59.349 120.412 63.1994 120.488 66.6759V52.9717C120.488 52.4905 120.471 52.0051 120.471 51.5356C119.089 51.8925 117.712 52.2377 116.319 52.5447Z" fill="black"/>
<path d="M116.248 56.0752C116.248 55.9254 116.137 55.7969 115.987 55.7799C114.731 55.5855 109.07 54.8091 102.98 54.8091C96.0747 54.8091 87.1581 56.9749 85.6026 56.9749H84.2255C83.5003 56.9749 81.1772 56.5022 78.2074 56.004C74.7938 55.4273 70.5309 54.8091 66.8434 54.8091C62.3935 54.8091 58.1624 55.2286 55.7278 55.5229C54.837 55.6312 54.1808 55.7268 53.841 55.7767C53.6913 55.7969 53.5798 55.9254 53.5798 56.0752L53.5098 59.7886C53.5098 59.9171 53.5883 60.0329 53.7083 60.0828L54.1277 60.2326C54.7488 60.4694 54.6958 71.6595 58.0339 74.4562C60.0162 76.1068 61.7798 77.049 69.2122 77.049C73.5165 77.049 76.2251 75.8912 78.7924 72.4221C80.642 69.9292 82.2846 64.0415 82.2846 64.0415C82.7825 61.6145 84.5907 61.4233 84.8763 61.402H84.9146C84.9719 61.402 87.0084 61.4403 87.5435 64.0415C87.5435 64.0415 89.186 69.9292 91.0356 72.4221C93.603 75.8912 96.3115 77.049 100.617 77.049C108.049 77.049 109.812 76.1068 111.794 74.4562C115.129 71.6595 115.075 60.4694 115.697 60.2326L116.115 60.0828C116.237 60.0329 116.315 59.9213 116.315 59.7886L116.248 56.0752ZM78.7924 69.3195C77.702 71.9038 74.8809 75.2443 70.9078 75.443C58.9842 76.0452 58.4363 72.7174 57.6655 70.0779C56.8894 67.4394 56.6908 65.1239 56.9934 62.4854C57.3088 59.8512 57.9724 58.3026 59.1711 57.5229C59.685 57.1831 60.2445 56.8803 61.6758 56.6605C62.9616 56.4693 64.9439 56.3535 68.2407 56.3535C70.1529 56.3535 71.9451 56.5022 73.542 56.7635C77.7891 57.4443 80.6505 58.8878 80.6505 60.3112C80.6505 61.282 80.4063 65.4935 78.7924 69.3195ZM112.159 70.0779C111.392 72.7174 110.845 76.0452 98.9203 75.443C94.9472 75.2443 92.1271 71.9038 91.0356 69.3195C89.4186 65.4935 89.1775 61.282 89.1775 60.3112C89.1775 58.3568 94.6074 56.3535 101.587 56.3535C108.563 56.3535 109.679 56.8803 110.658 57.5272C111.857 58.3026 112.52 59.8512 112.835 62.4897C113.138 65.1281 112.939 67.4437 112.159 70.0779Z" fill="#232323"/>
<path d="M84.9473 81.9787L84.9388 90.5919L84.9303 93.6085V95.9729L84.9218 103.836V103.844L84.9144 103.836H84.9059L84.8762 103.819L50.5313 86.3305C50.5228 86.2763 50.5059 86.2274 50.4984 86.1733C50.3317 85.4754 50.1831 84.7669 50.0504 84.0489C49.8762 83.1067 49.7393 82.1444 49.631 81.1778C49.5896 80.8709 49.5609 80.5639 49.5354 80.2559C49.5025 79.9372 49.4781 79.6217 49.4568 79.2978C49.4154 78.7125 49.3868 78.1198 49.3698 77.5218C49.3613 77.1405 49.3528 76.7549 49.3528 76.3683V65.9292C49.3528 66.079 49.3613 66.2277 49.3613 66.3774C49.4324 68.9001 49.8348 71.6798 50.6099 74.518C51.2109 76.7008 51.9615 78.721 52.8375 80.5182V80.5299C55.1266 85.2895 58.192 88.5217 61.012 89.0443C61.1861 89.073 61.3687 89.09 61.5429 89.1059C62.6333 89.2313 63.7779 89.2971 64.9607 89.2971C69.4105 89.2971 73.3677 85.7165 75.8554 84.2688C75.8767 84.2603 75.8937 84.2475 75.9096 84.239C76.0423 84.1604 76.1708 84.0818 76.2876 84.0032C76.3205 83.9777 76.3534 83.9618 76.3906 83.9448C78.4854 82.7456 81.5093 81.9862 84.8804 81.9787H84.9473Z" fill="black"/>
<path d="M120.475 65.9292L120.467 76.3683C120.467 78.9908 120.223 81.5592 119.77 84.0489C119.583 85.0442 119.376 86.032 119.131 87.0113L111.068 98.6581L84.9223 103.84H84.9148L84.9063 103.848V103.84L84.8809 81.9787H84.9477C88.3199 81.9862 91.3512 82.7456 93.4461 83.9406C93.4833 83.9618 93.5077 83.9777 93.5416 84.0032C93.6659 84.0818 93.7943 84.1604 93.9271 84.239C93.9356 84.2475 93.9515 84.256 93.9685 84.2645C96.4689 85.7165 100.413 89.3014 104.869 89.3014C106.05 89.3014 107.191 89.2313 108.281 89.1102C108.468 89.09 108.642 89.073 108.825 89.0486C111.637 88.5217 114.71 85.2895 116.992 80.5299V80.5214C117.862 78.721 118.613 76.705 119.218 74.518C120.002 71.6342 120.413 68.8258 120.467 66.2659C120.475 66.1491 120.475 66.046 120.475 65.9292Z" fill="black"/>
<path d="M93.6198 93.2844C93.6198 94.7736 89.7168 95.977 84.9059 95.977C80.0951 95.977 76.1963 94.7736 76.1963 93.2844C76.1963 91.7952 80.0951 90.5918 84.9059 90.5918C89.7168 90.5918 93.6198 91.7952 93.6198 93.2844Z" fill="#F0CCAC"/>
<path d="M59.4736 136.81V184.869H55.7617V139.518C56.2586 139.116 56.7566 138.721 57.2673 138.344C57.9882 137.805 58.723 137.299 59.4736 136.81Z" fill="#546676"/>
<path d="M110.347 136.817V184.869H114.055V139.527L110.347 136.817Z" fill="#546676"/>
<path d="M74.748 133.867L84.9059 146.049L95.067 133.867H74.748Z" fill="#1A1F2B"/>
<path d="M84.906 196.511H78.9006L83.239 140.602C83.4206 141.311 86.3945 141.311 86.5772 140.602L90.9155 196.511H84.906Z" fill="#1A1F2B"/>
<path d="M84.9061 133.801L84.8764 133.847L84.869 133.863L80.6506 140.95L76.7104 147.555L66.0471 132.726C66.3911 132.481 66.732 132.22 67.0547 131.95L67.0717 131.967C69.2122 130.265 71.116 128.266 72.6959 126.029L84.8764 133.784L84.9061 133.801Z" fill="#ECF0F5"/>
<path d="M103.768 132.726L93.105 147.555L84.939 133.863L84.9019 133.801L97.1663 125.992C98.7547 128.245 100.65 130.258 102.798 131.975C103.122 132.237 103.446 132.494 103.768 132.726Z" fill="#ECF0F5"/>
</g>
</svg>
