<!--
  - This file is part of the Web3 Library developed by mFactory GmbH.
  -
  - Copyright © 2021, mFactory GmbH
  -
  - Solana Reference Stake Pool is free software: you can redistribute it
  - and/or modify it under the terms of the GNU Affero General Public License
  - as published by the Free Software Foundation, either version 3
  - of the License, or (at your option) any later version.
  -
  - Solana Reference Stake Pool is distributed in the hope that it
  - will be useful, but WITHOUT ANY WARRANTY; without even the implied
  - warranty of MERCHANTABILITY or FITNESS FOR A PARTICULAR PURPOSE.
  - See the GNU Affero General Public License for more details.
  -
  - You should have received a copy of the GNU Affero General Public License
  - along with this program.
  - If not, see <https://www.gnu.org/licenses/agpl-3.0.html>.
  -
  - You can be released from the requirements of the Affero GNU General Public License
  - by purchasing a commercial license. The purchase of such a license is
  - mandatory as soon as you develop commercial activities using the
  - Solana Reference Stake Pool code without disclosing the source code of
  - your own applications.
  -
  - The developer of this program can be contacted at <info@mfactory.ch>.
  -->

<svg width="170" height="170" viewBox="0 0 170 170" fill="none" xmlns="http://www.w3.org/2000/svg">
<path d="M85 170C131.944 170 170 131.944 170 85C170 38.0558 131.944 0 85 0C38.0558 0 0 38.0558 0 85C0 131.944 38.0558 170 85 170Z" fill="#EBECE8"/>
<path d="M85.4018 121.41C85.2679 121.41 85.1341 121.544 85.0002 121.544C84.8663 121.544 84.7325 121.41 84.5986 121.41H85.4018Z" fill="#0B615C"/>
<path d="M150.992 138.543C135.465 157.684 111.638 169.999 85.0002 169.999C58.3624 169.999 34.5356 157.684 19.0081 138.543C30.1183 123.684 47.1183 116.322 61.0395 112.708C59.9687 121.543 64.5199 133.322 64.6537 133.054C69.3388 122.346 85.0002 121.409 85.0002 121.409C85.0002 121.409 100.662 122.346 105.213 133.054C105.347 133.322 110.032 121.543 108.827 112.708C122.882 116.322 140.016 123.684 150.992 138.543Z" fill="#0B615C"/>
<path d="M104.142 104.41C104.142 104.41 104.142 104.41 104.142 104.544C104.142 105.882 103.472 114.449 85.4015 121.276H84.5983C66.5274 114.449 65.8582 105.882 65.8582 104.544C65.8582 104.41 65.8582 104.41 65.8582 104.41C65.8582 102.67 66.2597 100.93 66.6613 99.1895C71.8818 105.749 78.1731 110.166 84.9999 110.166C91.8267 110.166 98.118 105.749 103.338 99.1895C103.74 100.93 104.142 102.67 104.142 104.41Z" fill="white"/>
<path d="M104.142 104.408C104.142 104.408 105.079 114.046 85 121.542C85 121.542 100.661 122.479 105.213 133.188C105.48 133.455 114.449 110.164 104.142 104.408Z" fill="#087E77"/>
<path d="M65.8583 104.409C55.5513 110.165 64.5198 133.456 64.7875 133.054C69.4725 122.346 85.0001 121.409 85.0001 121.409C64.9213 114.046 65.8583 104.409 65.8583 104.409Z" fill="#087E77"/>
<path d="M113.11 70.5439C111.905 78.8431 108.291 86.6069 102.268 92.4966C101.063 93.7014 99.9921 94.6384 98.6535 95.5754L96.5118 88.7486H73.4881L71.3464 95.5754C67.0629 92.3628 58.0944 83.3943 57.9606 74.9612C54.2125 26.9061 91.0236 37.0793 91.0236 37.0793C115.787 35.3392 114.984 57.1581 113.11 70.5439Z" fill="white"/>
<path d="M118.063 79.2449C116.189 82.3237 113.646 84.4654 111.236 85.2685C112.173 83.1268 112.976 80.8512 113.646 78.5756C113.646 78.5756 113.646 78.5756 113.646 78.4418C114.181 76.4339 114.716 74.426 115.252 72.4182H115.118C115.653 70.4103 116.189 68.4024 116.59 66.3945C117.126 66.3945 117.661 66.6622 118.197 66.93C121.142 68.804 121.008 74.2922 118.063 79.2449Z" fill="white"/>
<path d="M58.7637 85.2678C56.3542 84.4647 53.8109 82.323 51.9369 79.2442C48.8582 74.2915 48.8582 68.8033 51.803 67.0631C52.0708 66.9293 52.2046 66.7954 52.4723 66.7954C54.0786 73.0867 55.9526 77.7718 56.3542 78.7088C57.0235 80.8505 57.8267 83.1261 58.7637 85.2678Z" fill="white"/>
<path d="M99.5905 23.6929C100.661 11.378 81.118 12.1811 81.118 12.1811C51.5354 16.4646 48.3228 44.0394 48.3228 44.0394L52.3385 39.2205C46.0472 53.0079 55.5511 76.7008 56.3542 78.5748C61.307 95.0394 72.2834 110.165 84.9999 110.165C97.7164 110.165 108.693 95.0394 113.646 78.5748C113.646 78.5748 113.646 78.5748 113.646 78.4409C114.181 76.4331 114.716 74.4252 115.118 72.4173H114.984C117.661 61.7087 120.606 50.8661 120.606 50.8661C128.236 12.4488 99.5905 23.6929 99.5905 23.6929ZM113.11 70.5433C111.905 78.8425 108.291 86.6063 102.268 92.4961C101.063 93.7008 99.8582 94.6378 98.6535 95.5748L96.5117 88.8819H73.4881L71.3464 95.7087C67.0629 92.4961 63.4487 88.0787 60.5039 82.9921C59.1653 80.315 58.3621 77.5039 57.9605 75.0945C54.2125 27.0394 91.0235 37.2126 91.0235 37.2126C115.787 35.3386 114.984 57.1575 113.11 70.5433Z" fill="#324A5E"/>
<path d="M99.5905 23.6929C100.661 11.378 81.118 12.1811 81.118 12.1811C51.5354 16.4646 48.3228 44.0394 48.3228 44.0394L52.3385 39.2205C46.0472 53.0079 55.5511 76.7008 56.3542 78.5748C61.307 95.0394 72.2834 110.165 84.9999 110.165C97.7164 110.165 108.693 95.0394 113.646 78.5748C113.646 78.5748 113.646 78.5748 113.646 78.4409C114.181 76.4331 114.716 74.4252 115.118 72.4173H114.984C117.661 61.7087 120.606 50.8661 120.606 50.8661C128.236 12.4488 99.5905 23.6929 99.5905 23.6929ZM113.11 70.5433C111.905 78.8425 108.291 86.6063 102.268 92.4961C101.063 93.7008 99.8582 94.6378 98.6535 95.5748L96.5117 88.8819H73.4881L71.3464 95.7087C67.0629 92.4961 63.4487 88.0787 60.5039 82.9921C59.1653 80.315 58.3621 77.5039 57.9605 75.0945C54.2125 27.0394 91.0235 37.2126 91.0235 37.2126C115.787 35.3386 114.984 57.1575 113.11 70.5433Z" fill="#324A5E"/>
<path d="M99.5905 23.6929C100.661 11.378 81.118 12.1811 81.118 12.1811C51.5354 16.4646 48.3228 44.0394 48.3228 44.0394L52.3385 39.2205C46.0472 53.0079 55.5511 76.7008 56.3542 78.5748C61.307 95.0394 72.2834 110.165 84.9999 110.165C97.7164 110.165 108.693 95.0394 113.646 78.5748C113.646 78.5748 113.646 78.5748 113.646 78.4409C114.181 76.4331 114.716 74.4252 115.118 72.4173H114.984C117.661 61.7087 120.606 50.8661 120.606 50.8661C128.236 12.4488 99.5905 23.6929 99.5905 23.6929ZM113.11 70.5433C111.905 78.8425 108.291 86.6063 102.268 92.4961C101.063 93.7008 99.8582 94.6378 98.6535 95.5748L96.5117 88.8819H73.4881L71.3464 95.7087C67.0629 92.4961 58.0944 83.5275 57.9605 75.0945C54.2125 27.0394 91.0235 37.2126 91.0235 37.2126C115.787 35.3386 114.984 57.1575 113.11 70.5433Z" fill="#37434E"/>
<path d="M75.6299 93.4336C77.9055 95.9769 81.2519 97.7171 85 97.7171C88.748 97.7171 92.0944 96.1108 94.37 93.4336H75.6299Z" fill="white"/>
</svg>
