<!--
  - This file is part of the Web3 Library developed by mFactory GmbH.
  -
  - Copyright © 2021, mFactory GmbH
  -
  - Solana Reference Stake Pool is free software: you can redistribute it
  - and/or modify it under the terms of the GNU Affero General Public License
  - as published by the Free Software Foundation, either version 3
  - of the License, or (at your option) any later version.
  -
  - Solana Reference Stake Pool is distributed in the hope that it
  - will be useful, but WITHOUT ANY WARRANTY; without even the implied
  - warranty of MERCHANTABILITY or FITNESS FOR A PARTICULAR PURPOSE.
  - See the GNU Affero General Public License for more details.
  -
  - You should have received a copy of the GNU Affero General Public License
  - along with this program.
  - If not, see <https://www.gnu.org/licenses/agpl-3.0.html>.
  -
  - You can be released from the requirements of the Affero GNU General Public License
  - by purchasing a commercial license. The purchase of such a license is
  - mandatory as soon as you develop commercial activities using the
  - Solana Reference Stake Pool code without disclosing the source code of
  - your own applications.
  -
  - The developer of this program can be contacted at <info@mfactory.ch>.
  -->

<svg width="290" height="290" viewBox="0 0 290 290" fill="none" xmlns="http://www.w3.org/2000/svg">
<path d="M290 144.995C290 225.081 225.079 290 144.996 290C64.9186 290 0 225.081 0 144.995C0 64.919 64.9186 0 144.996 0C225.079 0 290 64.919 290 144.995Z" fill="#EBECE8"/>
<mask id="mask0" mask-type="alpha" maskUnits="userSpaceOnUse" x="0" y="0" width="290" height="290">
<path d="M290 144.995C290 225.081 225.079 290 144.996 290C64.9186 290 0 225.081 0 144.995C0 64.919 64.9186 0 144.996 0C225.079 0 290 64.919 290 144.995Z" fill="#EBECE8"/>
</mask>
<g mask="url(#mask0)">
<path d="M191.271 241.685H191.243C188.192 239.379 184.996 237.32 181.631 235.466C181.543 235.408 181.456 235.357 181.347 235.327C165.439 226.538 154.661 209.593 154.661 190.116L130.565 190C130.565 209.543 119.707 226.566 103.653 235.327C103.653 235.327 103.623 235.327 103.595 235.35C100.2 237.204 96.9536 239.291 93.8731 241.569C73.9086 256.432 61 280.195 61 307H224C224 280.253 211.142 256.541 191.271 241.685Z" fill="#F0CCAC"/>
<path d="M224 307H61C61 280.422 73.9155 256.876 93.8735 242.144C96.952 239.879 100.206 237.817 103.6 235.979C103.628 235.95 103.658 235.95 103.658 235.95C106.277 234.51 108.788 232.867 111.093 231C119.077 239.119 130.227 244.148 142.573 244.148C154.891 244.148 166.011 239.119 173.993 231.03C176.27 232.897 178.751 234.538 181.349 235.95C181.458 235.979 181.545 236.037 181.633 236.094C184.998 237.932 188.194 239.966 191.237 242.259H191.272C211.142 256.985 224 280.479 224 307Z" fill="#0EA2F9"/>
<path d="M80 70V133.38C80 176.25 117.985 211 142.505 211C167.016 211 205 176.25 205 133.38V70H80Z" fill="#F0CCAC"/>
<path d="M194.507 57.7624C180.912 40.8288 160.283 30 137.203 30C96.2059 30 63 64.06 63 106.065C63 128.355 72.3406 148.4 87.2434 162.3C83.4036 152.709 81.2584 141.958 81.2584 130.599C81.2584 112.355 86.83 95.6458 96.0886 82.7894C105.917 87.141 121.846 88.7107 139.311 86.3144C156.631 83.9551 171.383 78.2581 179.705 71.4806C194.878 84.8169 204.742 106.324 204.742 130.599C204.742 143.044 202.181 154.735 197.591 165C212.233 158.964 223 137.462 223 111.87C223 84.4759 210.656 61.8897 194.507 57.7624Z" fill="#5B5A58"/>
</g>
</svg>
