<?xml version="1.0" encoding="utf-8"?>
<svg width="15" height="12" viewBox="0 0 0 0" fill="none" xmlns="http://www.w3.org/2000/svg">
  <path d="M11.0056 2.96826C11.0234 2.87889 11.0827 2.80501 11.1632 2.77163C11.4723 2.64355 11.7324 2.42031 11.9152 2.12617C11.9593 2.05504 12.0325 2.00999 12.1129 2.00426C12.1931 1.99879 12.2716 2.033 12.3243 2.09717C12.4263 2.22117 14.8231 5.18226 14.9997 9.39906C15.0053 9.53158 14.9193 9.64889 14.7964 9.67653C14.7785 9.68058 14.7605 9.68255 14.7428 9.68255C14.6391 9.68255 14.543 9.616 14.5037 9.51067C14.4996 9.49966 14.0863 8.39734 13.4559 7.07056C12.6267 5.32557 11.8032 3.99244 11.0744 3.21532C11.0135 3.15051 10.9877 3.05763 11.0056 2.96826Z" fill="#045F6A"/>
  <path d="M12 6.24086C12 9.42155 9.31371 12 6 12C2.68629 12 0 9.42155 0 6.24086C0 3.06018 2.68629 0.48172 6 0.48172C9.31371 0.48172 12 3.06018 12 6.24086Z" fill="#045F6A"/>
  <path d="M12 6C12 8.76142 9.76142 11 7 11C4.23858 11 2 8.76142 2 6C2 3.23858 4.23858 1 7 1C9.76142 1 12 3.23858 12 6Z" fill="#00A5B9"/>
  <path d="M14 2.87957C14 4.46991 12.6569 5.75914 11 5.75914C9.34315 5.75914 8 4.46991 8 2.87957C8 1.28923 9.34315 0 11 0C12.6569 0 14 1.28923 14 2.87957Z" fill="#045F6A"/>
  <path d="M14 3.5C14 4.88071 12.8807 6 11.5 6C10.1193 6 9 4.88071 9 3.5C9 2.11929 10.1193 1 11.5 1C12.8807 1 14 2.11929 14 3.5Z" fill="#00A5B9"/>
  <path d="M12 4C12.5515 4 13 3.55143 13 3C13 2.44857 12.5515 2 12 2C11.4486 2 11 2.44857 11 3C11.0002 3.55133 11.4487 4 12 4Z" fill="white"/>
</svg>